<svg version="1.2" xmlns="http://www.w3.org/2000/svg" viewBox="0 0 1080 928" width="1080" height="928">
	<style>
		.s0 { fill: #a9a7d3 } 
		.s1 { fill: #4512b1 } 
		.s2 { fill: #631aec } 
		.s3 { fill: #221e54 } 
		.s4 { fill: #1369b1 } 
		.s5 { fill: #217dc5 } 
		.s6 { fill: #3ea5ec } 
		.s7 { fill: #7433ee } 
		.s8 { fill: #360e94 } 
		.s9 { fill: #c7aef9 } 
		.s10 { fill: #5416cf } 
		.s11 { fill: #7bbff3 } 
		.s12 { fill: #99ccf6 } 
		.s13 { fill: #fb394b } 
		.s14 { fill: #ffa000 } 
		.s15 { fill: #2b2468 } 
		.s16 { fill: #e8dffd } 
		.s17 { fill: #f61d2d } 
		.s18 { fill: #ffffff } 
		.s19 { fill: #f7f5ff } 
		.s20 { fill: #332a7c } 
		.s21 { fill: #d7c6fb } 
		.s22 { fill: #1a1840 } 
		.s23 { fill: #3091d8 } 
		.s24 { fill: #f20010 } 
		.s25 { fill: #b7d9f9 } 
		.s26 { fill: #fdddb6 } 
		.s27 { fill: #fcbe72 } 
		.s28 { fill: #ff7200 } 
		.s29 { fill: #ff5a1f } 
		.s30 { fill: #ffae2b } 
		.s31 { fill: #a8d3f7 } 
		.s32 { fill: #c5e0fb } 
		.s33 { fill: #ebf5ff } 
		.s34 { fill: #8ac6f4 } 
		.s35 { fill: #bcbbe2 } 
		.s36 { fill: #dcdcf4 } 
		.s37 { fill: #9592c5 } 
		.s38 { fill: #e5e5f7 } 
		.s39 { fill: #9564f2 } 
	</style>
	<g id="Layer 1">
		<g id="&lt;Group&gt;">
			<path id="&lt;Compound Path&gt;" class="s0" d="m596.25 302.1c-0.55-0.74 0.32-1.68 1.1-1.2q0.13 0.08 0.22 0.2l0.41 0.54 0.35 0.44 0.35 0.43 0.35 0.44 0.36 0.43 0.23 0.26c0.23 0.27 0.27 0.67 0.08 0.98-0.3 0.48-0.97 0.53-1.34 0.1l-0.24-0.27-0.36-0.45-0.37-0.44-0.36-0.45-0.36-0.45zm-4.58-7.04c-0.44-0.8 0.53-1.63 1.24-1.06q0.13 0.1 0.2 0.24l0.27 0.48 0.27 0.48 0.28 0.47 0.29 0.48 0.28 0.47 0.28 0.44c0.15 0.23 0.17 0.53 0.06 0.78-0.28 0.6-1.1 0.67-1.46 0.11l-0.29-0.46-0.29-0.49-0.29-0.48-0.29-0.49-0.28-0.49zm-3.55-7.62q-0.14-0.39 0.07-0.75c0.36-0.57 1.23-0.49 1.48 0.14l0.18 0.47 0.2 0.51 0.21 0.5 0.21 0.51 0.21 0.5 0.24 0.53c0.36 0.79-0.6 1.55-1.29 0.98q-0.14-0.12-0.22-0.29l-0.25-0.56-0.22-0.51-0.22-0.52-0.21-0.52-0.21-0.52zm-2.45-8.04c-0.2-0.86 0.92-1.42 1.48-0.68q0.1 0.14 0.13 0.29l0.12 0.51 0.13 0.52 0.14 0.53 0.13 0.53 0.15 0.52 0.16 0.56c0.25 0.84-0.83 1.45-1.42 0.78q-0.12-0.13-0.17-0.3l-0.17-0.59-0.15-0.54-0.14-0.54-0.14-0.54-0.13-0.55zm-1.33-8.3c-0.06-0.8 0.92-1.22 1.46-0.61q0.17 0.2 0.19 0.46l0.06 0.55 0.05 0.54 0.06 0.53 0.07 0.54 0.07 0.54 0.08 0.54c0.04 0.26-0.05 0.53-0.23 0.72-0.49 0.48-1.31 0.21-1.41-0.46l-0.08-0.58-0.08-0.55-0.06-0.55-0.07-0.56-0.06-0.55zm-0.18-8.4c0.02-0.37 0.27-0.68 0.63-0.77 0.53-0.13 1.06 0.3 1.03 0.85l-0.03 0.59-0.01 0.54-0.02 0.54v0.54l-0.01 0.55 0.01 0.51c0 0.89-1.21 1.17-1.6 0.33q-0.06-0.15-0.06-0.32l-0.01-0.52 0.01-0.56 0.01-0.56 0.01-0.56 0.02-0.55zm0.96-8.35c0.05-0.27 0.22-0.48 0.46-0.6 0.61-0.29 1.29 0.24 1.17 0.9l-0.11 0.62-0.09 0.53-0.09 0.54-0.08 0.54-0.08 0.53-0.06 0.47c-0.11 0.87-1.34 1-1.62 0.14q-0.05-0.17-0.02-0.35l0.06-0.48 0.08-0.56 0.08-0.55 0.09-0.55 0.1-0.55zm2.1-8.14c0.11-0.33 0.44-0.56 0.79-0.56 0.57 0 0.96 0.55 0.79 1.09l-0.2 0.59-0.16 0.52-0.16 0.53-0.16 0.52-0.15 0.52-0.12 0.45c-0.1 0.34-0.4 0.59-0.75 0.61-0.57 0.03-1-0.5-0.85-1.05l0.12-0.46 0.16-0.54 0.16-0.54 0.16-0.53 0.17-0.54zm3.23-7.76c0.42-0.81 1.65-0.46 1.57 0.45q-0.01 0.16-0.08 0.3l-0.25 0.49-0.24 0.5-0.24 0.5-0.23 0.5-0.22 0.5-0.21 0.47c-0.29 0.69-1.31 0.65-1.54-0.07q-0.1-0.3 0.02-0.59l0.21-0.48 0.23-0.52 0.24-0.51 0.24-0.51 0.25-0.52zm4.3-7.21c0.14-0.21 0.37-0.34 0.61-0.36 0.7-0.06 1.16 0.72 0.76 1.3l-0.22 0.31-0.32 0.47-0.31 0.46-0.3 0.47-0.3 0.48-0.34 0.54c-0.42 0.69-1.47 0.44-1.54-0.36q-0.02-0.27 0.12-0.5l0.35-0.57 0.31-0.49 0.32-0.48 0.32-0.48 0.32-0.48zm5.3-6.53c0.52-0.54 1.42-0.19 1.44 0.56q0 0.33-0.23 0.57l-0.4 0.44-0.39 0.42-0.38 0.43-0.38 0.43-0.37 0.44-0.24 0.29c-0.56 0.68-1.67 0.13-1.44-0.75q0.05-0.17 0.16-0.31l0.26-0.3 0.38-0.45 0.39-0.44 0.39-0.45 0.4-0.43zm6.16-5.71c0.24-0.19 0.55-0.24 0.84-0.13 0.58 0.25 0.7 1.01 0.21 1.42l-0.45 0.36-0.46 0.38-0.45 0.38-0.45 0.39-0.44 0.39-0.24 0.22c-0.3 0.26-0.73 0.29-1.05 0.05-0.42-0.31-0.46-0.93-0.07-1.28l0.26-0.23 0.45-0.4 0.46-0.4 0.47-0.39 0.47-0.39zm6.9-4.81c0.75-0.45 1.6 0.42 1.12 1.16q-0.1 0.16-0.26 0.26l-0.19 0.11-0.53 0.33-0.53 0.33-0.52 0.33-0.51 0.34-0.48 0.32c-0.67 0.46-1.55-0.24-1.24-1q0.1-0.23 0.31-0.37l0.49-0.33 0.53-0.35 0.53-0.34 0.54-0.34 0.55-0.34zm7.45-3.86c0.34-0.15 0.75-0.06 0.99 0.24 0.33 0.44 0.18 1.05-0.32 1.27l-0.68 0.31-0.59 0.27-0.59 0.28-0.58 0.28-0.52 0.26c-0.85 0.41-1.63-0.65-0.94-1.34q0.08-0.08 0.19-0.14l0.54-0.27 0.59-0.29 0.61-0.28 0.61-0.28zm7.85-2.94q0.27-0.08 0.53 0.01c0.75 0.29 0.72 1.33-0.04 1.57l-0.82 0.27-0.66 0.21-0.65 0.22-0.64 0.23-0.33 0.12c-0.35 0.12-0.74 0.01-0.96-0.29-0.32-0.44-0.13-1.08 0.39-1.27l0.34-0.13 0.66-0.23 0.67-0.22 0.67-0.22zm8.12-2.06c0.82-0.18 1.35 0.87 0.71 1.43q-0.16 0.15-0.38 0.19l-0.49 0.1-0.72 0.15-0.71 0.16-0.71 0.16-0.58 0.14c-0.87 0.21-1.42-0.92-0.68-1.48q0.13-0.09 0.29-0.13l0.59-0.14 0.72-0.17 0.73-0.16 0.74-0.15zm8.27-1.26c0.38-0.04 0.73 0.18 0.87 0.53 0.18 0.51-0.15 1.06-0.69 1.12l-0.34 0.03-0.78 0.09-0.77 0.1-0.77 0.1-0.6 0.08c-0.9 0.12-1.32-1.06-0.54-1.53q0.14-0.09 0.3-0.11l0.62-0.09 0.78-0.1 0.79-0.09 0.79-0.09zm8.34-0.53c0.87-0.03 1.2 1.14 0.4 1.57q-0.17 0.08-0.35 0.08l-0.47 0.02-0.83 0.02-0.83 0.03-0.82 0.04-0.34 0.02c-0.37 0.02-0.71-0.2-0.83-0.56-0.18-0.51 0.19-1.07 0.73-1.09l0.36-0.02 0.83-0.04 0.84-0.04 0.85-0.02zm-47.8 105.9c0.67 0.6 0.05 1.68-0.81 1.41q-0.16-0.05-0.29-0.17l-0.44-0.39-0.44-0.4-0.43-0.4-0.43-0.4-0.42-0.41-0.3-0.29c-0.22-0.21-0.3-0.53-0.21-0.83 0.18-0.6 0.92-0.79 1.37-0.35l0.29 0.28 0.41 0.4 0.42 0.39 0.42 0.39 0.43 0.39z"/>
			<path id="&lt;Path&gt;" class="s1" d="m636.03 208.25l28.81-6.86-27.72-1.62z"/>
			<path id="&lt;Path&gt;" class="s2" d="m664.84 201.39l-30.09-6.25 2.37 4.63z"/>
			<path id="&lt;Path&gt;" class="s2" d="m638.97 203.65l5.21 10.44 20.66-12.7z"/>
			<path id="&lt;Path&gt;" class="s3" d="m636.03 208.25l2.94-4.6 1.92 3.84z"/>
			<path id="&lt;Compound Path&gt;" fill-rule="evenodd" class="s0" d="m889.89 697.88l0.4 0.5 0.4 0.5 0.41 0.49 0.43 0.5 0.43 0.5 0.34 0.39q0.18 0.2 0.25 0.47c0.32 1.21-1.19 2-2 1.09l-0.36-0.41-0.44-0.51-0.44-0.52-0.43-0.52-0.42-0.52-0.41-0.52-0.54-0.69q-0.15-0.19-0.21-0.43c-0.28-1.26 1.31-1.98 2.07-1zm-6.24-10.06l0.24 0.51 0.24 0.5 0.26 0.51 0.26 0.5 0.27 0.51 0.28 0.5 0.36 0.64c0.39 0.67 0.04 1.52-0.71 1.72-0.52 0.13-1.05-0.08-1.31-0.54l-0.39-0.68-0.29-0.53-0.28-0.53-0.28-0.53-0.27-0.53-0.25-0.52-0.26-0.53-0.18-0.41c-0.33-0.7 0.09-1.51 0.85-1.65 0.52-0.09 1.05 0.17 1.27 0.66zm-3.52-11.04l0.09 0.5 0.1 0.5 0.1 0.49 0.11 0.5 0.12 0.5 0.12 0.5 0.13 0.5 0.2 0.72c0.25 0.87-0.55 1.69-1.43 1.46-0.39-0.1-0.71-0.42-0.82-0.81l-0.07-0.24-0.14-0.53-0.14-0.52-0.13-0.53-0.12-0.53-0.12-0.52-0.11-0.53-0.1-0.52-0.1-0.53-0.04-0.24c-0.13-0.79 0.53-1.48 1.33-1.36 0.49 0.07 0.89 0.46 0.98 0.95zm-0.51-11.22l-0.04 0.48-0.03 0.48-0.03 0.48-0.02 0.48-0.02 0.48-0.01 0.48-0.01 0.49v0.48l0.01 0.32c0.01 1.03-1.2 1.57-1.97 0.88-0.23-0.21-0.37-0.52-0.38-0.84v-0.35-0.51l0.01-0.51 0.01-0.51 0.02-0.51 0.02-0.5 0.03-0.51 0.03-0.5 0.04-0.5 0.04-0.4c0.09-1.04 1.37-1.45 2.05-0.66q0.32 0.37 0.28 0.86zm2.29-11.01l-0.15 0.44-0.14 0.44-0.14 0.44-0.13 0.45-0.13 0.44-0.12 0.45-0.12 0.45-0.19 0.74q-0.09 0.37-0.37 0.61c-0.88 0.74-2.16-0.04-1.91-1.15l0.2-0.79 0.13-0.47 0.13-0.47 0.13-0.47 0.14-0.47 0.14-0.46 0.15-0.46 0.15-0.46 0.19-0.56c0.3-0.89 1.51-1.07 2.06-0.3 0.22 0.31 0.28 0.7 0.16 1.07zm4.49-9.9q-0.44 0.77-0.87 1.55-0.4 0.74-0.77 1.48c-0.35 0.7-1.27 0.87-1.84 0.34-0.39-0.35-0.49-0.91-0.26-1.38q0.39-0.78 0.81-1.55l0.45-0.82 0.23-0.4q0.41-0.71 0.83-1.42c0.34-0.56 1.09-0.73 1.64-0.37 0.54 0.35 0.7 1.04 0.37 1.59q-0.3 0.49-0.59 0.98zm4.55-6.6q-0.18 0.22-0.44 0.34c-1.13 0.48-2.15-0.83-1.39-1.8q1.5-1.87 3.16-3.6 0.16-0.17 0.37-0.26c1.18-0.51 2.2 0.94 1.33 1.88q-1.59 1.65-3.03 3.44zm22.09-13.39l-0.23-0.02-0.22-0.01-0.23-0.01-0.23-0.01h-0.24l-0.23 0.01-0.24 0.01-0.24 0.01-0.25 0.02-0.24 0.03-0.25 0.03-0.25 0.03-0.26 0.04-0.25 0.05-0.26 0.05-0.41 0.09q-0.21 0.05-0.42 0.02c-1.3-0.19-1.38-1.98-0.13-2.3l0.49-0.11 0.3-0.06 0.29-0.05 0.3-0.05 0.29-0.04 0.29-0.03 0.29-0.03 0.29-0.03 0.29-0.01 0.29-0.02h0.29 0.28 0.28l0.28 0.01 0.28 0.02 0.28 0.03 0.24 0.02c0.77 0.08 1.26 0.9 0.96 1.62-0.2 0.48-0.68 0.77-1.2 0.72zm5.32 2.94c-0.47-0.65-0.16-1.56 0.6-1.8 0.48-0.15 1.01 0.03 1.31 0.44 0.99 1.41 1.61 3.17 1.82 4.88 0.11 0.8-0.63 1.48-1.42 1.3-0.48-0.12-0.83-0.5-0.9-0.99-0.17-1.34-0.64-2.72-1.41-3.83zm0.41 9.98q0.17-0.32 0.49-0.49c1.03-0.54 2.11 0.53 1.6 1.56-0.84 1.64-2.06 3.04-3.77 3.81q-0.22 0.1-0.45 0.11c-1.3 0.02-1.68-1.71-0.53-2.24 1.22-0.55 2.06-1.57 2.66-2.75zm-11.73-0.22l0.54 0.33 0.56 0.33 0.57 0.33 0.58 0.33 0.59 0.32 0.59 0.31q0.31 0.17 0.49 0.49c0.53 1.03-0.57 2.12-1.58 1.59l-0.61-0.32-0.62-0.34-0.6-0.34-0.6-0.34-0.58-0.35-0.57-0.35-0.57-0.36q-0.3-0.19-0.45-0.53c-0.44-1.05 0.76-2.06 1.72-1.44zm-9.39-9.18q1.32-1 2.71-1.89l0.62-0.39q0.34-0.21 0.69-0.41 0.2-0.11 0.42-0.15c1.29-0.17 1.86 1.54 0.76 2.18-1.31 0.75-2.57 1.61-3.77 2.52q-0.2 0.15-0.44 0.21-0.07 0.01-0.14 0.02l0.32 0.36 0.33 0.37 0.35 0.37 0.35 0.37 0.37 0.36 0.37 0.36 0.46 0.42q0.13 0.12 0.22 0.28c0.68 1.16-0.77 2.35-1.78 1.48l-0.51-0.48-0.4-0.38-0.4-0.4-0.38-0.39-0.37-0.4-0.36-0.4-0.36-0.4-0.34-0.4-0.22-0.28q-0.16-0.2-0.23-0.44c-0.24-0.9 0.54-1.56 1.28-1.48-0.03-0.36 0.1-0.74 0.45-1.01zm-4.3-8.33l0.08 0.4 0.08 0.4 0.09 0.39 0.1 0.4 0.11 0.39 0.12 0.39 0.12 0.39 0.14 0.4 0.14 0.39 0.2 0.49c0.38 0.9-0.44 1.84-1.39 1.59-0.34-0.09-0.63-0.34-0.77-0.67l-0.06-0.15-0.17-0.43-0.16-0.44-0.15-0.44-0.14-0.44-0.13-0.43-0.12-0.45-0.11-0.44-0.11-0.44-0.09-0.44-0.08-0.45-0.04-0.2c-0.15-0.91 0.72-1.63 1.58-1.3 0.38 0.14 0.66 0.49 0.73 0.88zm0.91-10.92l-0.13 0.41-0.12 0.41-0.12 0.4-0.11 0.41-0.1 0.41-0.09 0.41-0.09 0.41-0.08 0.41-0.07 0.4-0.06 0.41q-0.03 0.17-0.1 0.33c-0.59 1.21-2.39 0.68-2.23-0.64l0.08-0.49 0.08-0.44 0.09-0.45 0.09-0.45 0.1-0.44 0.11-0.45 0.12-0.44 0.12-0.44 0.14-0.45 0.14-0.44 0.08-0.27c0.06-0.15 0.11-0.26 0.21-0.38 0.83-1 2.41-0.13 2.03 1.1zm-2.15-0.99l-1.15 4.75 2.33 0.31zm7.16-8.71l-0.28 0.4-0.27 0.39-0.27 0.4-0.26 0.4-0.26 0.4-0.25 0.4-0.24 0.4-0.28 0.47c-0.4 0.7-1.37 0.8-1.9 0.19-0.33-0.37-0.38-0.91-0.14-1.34l0.31-0.52 0.26-0.43 0.26-0.42 0.27-0.42 0.28-0.42 0.28-0.42 0.29-0.42 0.29-0.42 0.41-0.56c0.47-0.64 1.41-0.65 1.89-0.01 0.3 0.41 0.3 0.98 0 1.39zm7.81-8.72l-0.39 0.36-0.39 0.36-0.38 0.37-0.38 0.36-0.37 0.37-0.37 0.37-0.36 0.37-0.35 0.36q-0.13 0.14-0.3 0.23c-1.19 0.59-2.29-0.88-1.39-1.85l0.36-0.37 0.38-0.39 0.38-0.38 0.39-0.38 0.39-0.38 0.39-0.38 0.4-0.37 0.41-0.38 0.32-0.29c0.89-0.79 2.25 0.05 1.91 1.22q-0.1 0.3-0.33 0.51zm8.13-6.37l-0.46 0.31-0.91 0.63-0.45 0.32-0.62 0.46c-0.17 0.12-0.31 0.17-0.5 0.21-1.22 0.2-1.88-1.33-0.9-2.09l0.65-0.48 0.47-0.33 0.46-0.33 0.47-0.32 0.47-0.32 0.48-0.32 0.91-0.6q0.24-0.15 0.51-0.19c1.24-0.12 1.8 1.47 0.78 2.15q-0.69 0.44-1.36 0.9zm10.69-6.05l-0.51 0.24-0.5 0.24-0.51 0.25-1 0.5-0.83 0.43c-0.33 0.17-0.73 0.18-1.06 0.02-0.86-0.43-0.89-1.64-0.04-2.09l0.87-0.45 0.51-0.26 0.52-0.26 0.52-0.25 0.52-0.25 0.52-0.25 0.81-0.37q0.32-0.14 0.67-0.09c1.14 0.17 1.36 1.75 0.31 2.23zm10.9-4.06l-0.53 0.15-0.52 0.15-0.53 0.16-0.52 0.16-0.53 0.17-0.52 0.17-0.52 0.18 3.79-3.61-4.56 1.4 0.77 2.21q-0.23 0.08-0.47 0.06c-1.28-0.12-1.48-1.86-0.3-2.27l0.55-0.19 0.54-0.18 0.54-0.17 0.54-0.17 0.55-0.16 0.54-0.16 0.55-0.16 0.75-0.21q0.21-0.05 0.42-0.03c1.31 0.15 1.43 1.95 0.19 2.3zm-3.66 1.14zm15.15-3.19l-0.52 0.04-0.51 0.04-0.52 0.05-0.51 0.06-0.52 0.06-0.52 0.06-0.52 0.07-0.38 0.06c-0.96 0.14-1.66-0.86-1.21-1.72 0.17-0.32 0.5-0.55 0.86-0.6l0.4-0.06 0.54-0.07 0.55-0.07 0.54-0.06 0.54-0.06 0.54-0.05 0.54-0.05 0.53-0.04 0.59-0.04q0.23-0.01 0.46 0.07c1.22 0.46 0.92 2.2-0.32 2.27zm11.34 0.69l-0.47-0.1-0.47-0.09-0.47-0.08-0.48-0.08-0.48-0.07-0.48-0.06-0.49-0.06-0.6-0.06c-1.13-0.11-1.46-1.59-0.49-2.18q0.33-0.19 0.7-0.16l0.66 0.07 0.51 0.06 0.52 0.07 0.51 0.08 0.5 0.08 0.51 0.09 0.5 0.09 0.5 0.1 0.57 0.13q0.26 0.06 0.47 0.22c0.98 0.82 0.2 2.33-0.99 2.07zm8.34 3.03l-0.41-0.22-0.41-0.21-0.41-0.21-0.17-0.08q-0.29-0.13-0.47-0.39c-0.67-1.02 0.4-2.23 1.46-1.73l0.2 0.09 0.45 0.23 0.45 0.23 0.44 0.23 0.44 0.25c0.84 0.48 0.77 1.72-0.12 2.09-0.34 0.15-0.72 0.13-1.04-0.05zm-69.4 134.3l-0.6-0.49-0.58-0.5-0.57-0.5-0.57-0.5-0.67-0.62q-0.26-0.25-0.35-0.59c-0.28-1.12 1.09-1.92 1.93-1.14l0.66 0.6 0.55 0.49 0.55 0.48 0.57 0.49 0.58 0.48 0.58 0.49c0.69 0.57 0.52 1.66-0.31 1.99-0.4 0.15-0.84 0.09-1.17-0.18z"/>
			<path id="&lt;Path&gt;" class="s1" d="m951.83 572.89l26.93 3.2-23.31-10.14z"/>
			<path id="&lt;Path&gt;" class="s2" d="m978.76 576.09l-23.88-14.88 0.57 4.74z"/>
			<path id="&lt;Path&gt;" class="s2" d="m955.82 569.87l1.17 10.62 21.77-4.4z"/>
			<path id="&lt;Path&gt;" class="s3" d="m951.83 572.89l3.99-3.02 0.43 3.9z"/>
			<path id="&lt;Compound Path&gt;" class="s0" d="m195.1 530.13c-0.43-0.19-0.94-0.08-1.25 0.28-0.46 0.54-0.28 1.37 0.37 1.67l0.9 0.41 0.72 0.31 0.73 0.31 0.74 0.31 0.89 0.36c0.43 0.17 0.92 0.05 1.21-0.31 0.46-0.56 0.25-1.41-0.43-1.68l-0.86-0.34-0.72-0.31-0.71-0.3-0.7-0.31zm-9.06-5.21c-0.31-0.24-0.75-0.27-1.1-0.1-0.72 0.37-0.8 1.34-0.15 1.82l0.34 0.26 0.48 0.34 0.5 0.34 0.5 0.34 0.52 0.34 0.53 0.34 0.55 0.33 0.23 0.14c0.94 0.55 2.03-0.53 1.44-1.5-0.1-0.15-0.21-0.25-0.36-0.35l-0.21-0.12-0.52-0.32-0.51-0.32-0.49-0.32-0.48-0.32-0.47-0.33-0.45-0.32zm-6.76-7.51c-0.54-1.02-2.08-0.59-2.01 0.56q0.01 0.23 0.12 0.43l0.04 0.08 0.21 0.39 0.22 0.39 0.23 0.38 0.24 0.38 0.25 0.38 0.27 0.38 0.27 0.37 0.29 0.38 0.3 0.37 0.19 0.23c0.32 0.37 0.83 0.48 1.27 0.28 0.64-0.3 0.81-1.12 0.36-1.66l-0.17-0.2-0.27-0.34-0.26-0.34-0.24-0.33-0.24-0.34-0.23-0.34-0.21-0.34-0.21-0.34-0.19-0.34-0.18-0.35zm-1.54-9.75c0.15-1.07-1.25-1.65-1.91-0.78q-0.17 0.23-0.21 0.51l-0.02 0.16-0.05 0.42-0.04 0.42-0.03 0.41-0.03 0.42-0.02 0.41v0.42 0.41l0.01 0.41 0.01 0.41 0.03 0.41 0.02 0.2c0.04 0.45 0.36 0.83 0.8 0.94 0.71 0.17 1.4-0.41 1.32-1.15l-0.01-0.15-0.02-0.36-0.02-0.37-0.01-0.37v-0.36l0.01-0.37 0.02-0.37 0.02-0.38 0.03-0.37 0.04-0.38 0.04-0.37zm3.21-9.8c0.49-1.07-0.84-2.03-1.7-1.23q-0.15 0.13-0.24 0.32l-0.4 0.85-0.19 0.43-0.19 0.43-0.19 0.43-0.18 0.43-0.17 0.43-0.17 0.43-0.23 0.58c-0.4 1.15 1.09 1.98 1.86 1.02q0.1-0.13 0.15-0.28l0.21-0.55 0.16-0.41 0.17-0.4 0.17-0.41 0.18-0.41 0.18-0.41 0.19-0.42 0.19-0.41zm5.19-9.19c0.54-0.9-0.37-1.96-1.34-1.55q-0.3 0.14-0.48 0.42-1.14 1.82-2.23 3.68c-0.53 0.95 0.47 1.98 1.45 1.47q0.25-0.15 0.39-0.4 1.08-1.82 2.21-3.62zm5.81-8.93c0.63-0.96-0.49-2.12-1.48-1.48q-0.18 0.12-0.3 0.3-1.18 1.79-2.36 3.57c-0.6 0.92 0.43 2.08 1.45 1.5q0.21-0.12 0.34-0.33 1.18-1.78 2.35-3.56zm5.78-9.04c0.57-0.95-0.51-2.05-1.49-1.46q-0.21 0.14-0.34 0.35-1.1 1.82-2.24 3.61c-0.56 0.88 0.34 1.96 1.32 1.56q0.3-0.13 0.48-0.41 1.16-1.81 2.27-3.65zm5.15-9.48c0.15-0.31 0.14-0.68-0.04-0.99-0.43-0.75-1.51-0.7-1.89 0.07l-0.4 0.85-0.24 0.48-0.48 0.97q-0.38 0.74-0.77 1.47c-0.56 1.05 0.73 2.09 1.64 1.31q0.15-0.13 0.24-0.29 0.4-0.76 0.79-1.52l0.5-0.99 0.24-0.49zm3.74-10.22c0.27-1.12-1.14-1.81-1.87-0.93q-0.14 0.19-0.2 0.41l-0.13 0.49-0.13 0.49-0.13 0.49-0.15 0.48-0.15 0.49-0.15 0.49-0.16 0.48-0.2 0.58c-0.16 0.44-0.02 0.93 0.36 1.21 0.57 0.44 1.41 0.19 1.65-0.49l0.21-0.62 0.17-0.5 0.16-0.51 0.16-0.51 0.15-0.51 0.14-0.51 0.14-0.51zm1.11-10.9c-0.04-0.81-0.91-1.28-1.61-0.87-0.34 0.21-0.55 0.57-0.53 0.97l0.03 0.5 0.02 0.49 0.01 0.49v0.49l-0.01 0.49-0.01 0.49-0.03 0.49-0.02 0.49-0.02 0.2c-0.09 1.18 1.51 1.62 2.03 0.54q0.08-0.17 0.1-0.36l0.02-0.23 0.03-0.53 0.02-0.52 0.02-0.52v-0.53-0.52l-0.01-0.53-0.02-0.52zm-2.6-10.71c-0.47-1.07-2.08-0.72-2.04 0.48q0.01 0.19 0.08 0.37l0.24 0.56 0.21 0.5 0.19 0.5 0.18 0.5 0.17 0.49 0.16 0.5 0.15 0.5 0.1 0.33c0.1 0.36 0.39 0.65 0.76 0.75 0.8 0.2 1.51-0.52 1.3-1.32l-0.11-0.37-0.16-0.53-0.17-0.53-0.19-0.54-0.19-0.53-0.21-0.53-0.21-0.53zm-5.74-9.31c-0.65-0.82-1.96-0.32-1.9 0.73q0.02 0.33 0.22 0.59 1.3 1.64 2.46 3.39c0.25 0.39 0.73 0.57 1.18 0.44 0.69-0.19 1-1.01 0.6-1.61q-1.2-1.83-2.56-3.54zm-7.61-7.79c-0.81-0.67-2.02 0.13-1.7 1.16q0.1 0.29 0.34 0.49 1.61 1.33 3.1 2.8c0.69 0.66 1.82 0.18 1.82-0.77q-0.01-0.44-0.32-0.75-1.56-1.54-3.24-2.93zm-9.12-5.98c-0.86-0.41-1.79 0.39-1.49 1.29q0.14 0.42 0.54 0.63 1.87 0.92 3.63 2.03c0.39 0.25 0.91 0.21 1.26-0.09 0.55-0.47 0.49-1.33-0.12-1.72q-1.86-1.16-3.82-2.14zm-10.51-3.26q-0.37-0.04-0.69 0.16c-0.85 0.54-0.56 1.84 0.44 1.97 1.34 0.15 2.73 0.43 4.02 0.8 1.11 0.3 1.84-1.08 1-1.83q-0.18-0.16-0.42-0.22c-1.41-0.4-2.89-0.71-4.35-0.88zm36.21 134.24q0.5 0.14 0.93-0.15c0.72-0.52 0.53-1.64-0.32-1.89l-0.93-0.29-0.92-0.28-0.9-0.29-0.88-0.29-0.41-0.14c-1.04-0.33-1.86 0.91-1.13 1.74q0.19 0.2 0.46 0.29l0.41 0.14 0.9 0.29 0.91 0.29 0.93 0.3z"/>
			<path id="&lt;Path&gt;" class="s1" d="m171.88 405.59l-25.47-14.89 26.89 6.5z"/>
			<path id="&lt;Path&gt;" class="s2" d="m146.41 390.7l30.49 2.77-3.6 3.73z"/>
			<path id="&lt;Path&gt;" class="s2" d="m170.41 400.36l-7.99 8.44-16.01-18.1z"/>
			<path id="&lt;Path&gt;" class="s3" d="m171.88 405.59l-1.47-5.23-2.94 3.1z"/>
			<path id="&lt;Compound Path&gt;" fill-rule="evenodd" class="s4" d="m192.33 626.28q3.03-3.76 6.78-6.79l-4.37-9.11c-0.34-0.7-0.08-1.55 0.6-1.94l8.24-4.76c0.68-0.39 1.54-0.2 1.98 0.44l5.75 8.35c2.98-1.14 6.07-1.97 9.23-2.47l0.76-10.09c0.06-0.78 0.71-1.38 1.49-1.38h9.52c0.78 0 1.43 0.6 1.49 1.38l0.8 10.09q4.75 0.75 9.24 2.48l5.7-8.35c0.44-0.65 1.3-0.84 1.98-0.45l8.24 4.76c0.68 0.39 0.94 1.23 0.61 1.94l-4.35 9.14q3.74 3.02 6.76 6.76l9.1-4.38c0.71-0.34 1.56-0.07 1.95 0.6l4.76 8.25c0.39 0.67 0.2 1.53-0.45 1.98l-8.35 5.74c1.15 2.98 1.98 6.08 2.47 9.23l10.09 0.77c0.78 0.06 1.39 0.71 1.39 1.49v9.52c0 0.78-0.61 1.43-1.38 1.49l-10.09 0.8q-0.75 4.75-2.49 9.24l8.35 5.69c0.65 0.45 0.85 1.31 0.46 1.99l-4.76 8.24c-0.39 0.68-1.24 0.94-1.94 0.6l-9.15-4.35q-3 3.73-6.72 6.74l4.35 9.13c0.33 0.71 0.07 1.56-0.61 1.95l-8.24 4.75c-0.68 0.4-1.54 0.2-1.98-0.45l-5.71-8.36q-4.48 1.73-9.22 2.48l-0.81 10.1c-0.06 0.78-0.71 1.38-1.49 1.38h-9.52c-0.78 0-1.43-0.6-1.49-1.38l-0.76-10.08q-4.75-0.74-9.24-2.47l-5.74 8.34c-0.44 0.64-1.3 0.84-1.98 0.45l-8.24-4.76c-0.68-0.39-0.94-1.24-0.6-1.95l4.38-9.11q-3.75-3.02-6.77-6.75l-9.14 4.34c-0.7 0.34-1.55 0.08-1.94-0.6l-4.76-8.24c-0.39-0.68-0.19-1.54 0.45-1.99l8.36-5.7c-1.15-2.98-1.98-6.07-2.48-9.23l-10.1-0.8c-0.78-0.06-1.38-0.71-1.38-1.49v-9.52c0-0.78 0.61-1.44 1.39-1.49l10.07-0.76q0.75-4.75 2.48-9.24l-8.34-5.74c-0.65-0.45-0.84-1.31-0.45-1.98l4.76-8.25c0.39-0.68 1.24-0.94 1.94-0.6zm18.4 18.72c-5.37 9.29-2.18 21.18 7.11 26.54 9.3 5.37 21.18 2.19 26.54-7.11 5.37-9.29 2.19-21.18-7.11-26.54-9.29-5.37-21.17-2.18-26.54 7.11z"/>
			<path id="&lt;Compound Path&gt;" fill-rule="evenodd" class="s5" d="m234.19 610.34c3.41 0.5 6.69 1.39 9.8 2.61l5.87-8.6c0.33-0.48 0.97-0.62 1.47-0.33l8.24 4.75c0.5 0.29 0.7 0.92 0.45 1.44l-4.49 9.43c2.63 2.1 5.03 4.5 7.13 7.13l9.39-4.52c0.53-0.25 1.15-0.06 1.44 0.45l4.76 8.24c0.29 0.5 0.15 1.14-0.33 1.47l-8.59 5.91q1.84 4.66 2.6 9.75l10.39 0.79c0.58 0.04 1.03 0.52 1.03 1.1v9.52c0 0.58-0.45 1.05-1.02 1.1l-10.41 0.83q-0.76 5.09-2.6 9.75l8.59 5.87c0.49 0.33 0.63 0.96 0.34 1.47l-4.76 8.24c-0.29 0.5-0.91 0.69-1.43 0.45l-9.43-4.49c-2.11 2.63-4.5 5.02-7.14 7.13l4.52 9.39c0.25 0.52 0.06 1.15-0.44 1.44l-8.24 4.76c-0.51 0.29-1.14 0.14-1.47-0.33l-5.91-8.59q-4.66 1.83-9.76 2.6l-0.78 10.39c-0.04 0.58-0.52 1.02-1.1 1.02h-9.52c-0.58 0-1.06-0.44-1.11-1.02l-0.82-10.4q-5.07-0.77-9.71-2.59l-5.91 8.59c-0.33 0.47-0.96 0.62-1.47 0.33l-8.24-4.76c-0.5-0.29-0.7-0.92-0.44-1.44l4.52-9.4c-2.64-2.1-5.04-4.49-7.14-7.12l-9.43 4.49c-0.52 0.24-1.14 0.05-1.43-0.45l-4.76-8.24c-0.29-0.51-0.15-1.14 0.33-1.47l8.6-5.87q-1.84-4.66-2.61-9.75l-10.4-0.83c-0.58-0.05-1.02-0.52-1.02-1.1v-9.52c0-0.58 0.45-1.06 1.03-1.1l10.39-0.79q0.76-5.09 2.6-9.75l-8.59-5.91c-0.48-0.33-0.62-0.97-0.33-1.47l4.76-8.24c0.29-0.51 0.91-0.7 1.44-0.45l9.39 4.52c2.1-2.63 4.49-5.03 7.13-7.13l-4.49-9.43c-0.25-0.52-0.05-1.15 0.45-1.44l8.24-4.75c0.5-0.29 1.14-0.15 1.47 0.33l5.87 8.6c3.1-1.22 6.36-2.1 9.75-2.61l0.82-10.4c0.05-0.58 0.53-1.02 1.11-1.02h9.52c0.58 0 1.06 0.44 1.1 1.02zm-26.46 44.38c0 10.95 8.87 19.82 19.82 19.82 10.94 0 19.81-8.87 19.81-19.82 0-10.94-8.87-19.81-19.81-19.81-10.95 0-19.82 8.87-19.82 19.81z"/>
			<path id="&lt;Compound Path&gt;" fill-rule="evenodd" class="s4" d="m200.77 639.92c4.12-7.12 10.83-12.27 18.78-14.4 7.94-2.13 16.33-1.03 23.46 3.09 7.12 4.11 12.27 10.82 14.4 18.77 2.13 7.95 1.03 16.33-3.09 23.46-4.11 7.13-10.82 12.28-18.77 14.41-7.94 2.12-16.33 1.02-23.46-3.09-7.13-4.12-12.28-10.83-14.4-18.78-2.13-7.94-1.03-16.33 3.08-23.46zm20.74-7.08c-6 1.61-11.07 5.5-14.17 10.87-3.11 5.38-3.94 11.71-2.33 17.71 1.6 6 5.49 11.07 10.87 14.17 5.38 3.11 11.71 3.94 17.71 2.33 6-1.6 11.06-5.49 14.17-10.87 3.1-5.38 3.94-11.71 2.33-17.71-1.61-6-5.49-11.06-10.87-14.17-5.38-3.1-11.71-3.94-17.71-2.33z"/>
			<path id="&lt;Compound Path&gt;" fill-rule="evenodd" class="s6" d="m227.55 624.26c8.41 0 16.02 3.41 21.53 8.92 5.51 5.51 8.92 13.13 8.92 21.54 0 8.4-3.41 16.02-8.92 21.53-5.51 5.51-13.12 8.92-21.53 8.92-8.41 0-16.02-3.41-21.53-8.92-5.51-5.51-8.92-13.13-8.92-21.53 0-8.41 3.41-16.03 8.92-21.54 5.51-5.51 13.12-8.92 21.53-8.92zm16.83 13.63c-4.31-4.31-10.26-6.97-16.83-6.97-6.57 0-12.52 2.66-16.83 6.97-4.31 4.3-6.97 10.25-6.97 16.83 0 6.57 2.66 12.52 6.97 16.83 4.31 4.31 10.26 6.97 16.83 6.97 6.57 0 12.52-2.66 16.83-6.97 4.31-4.31 6.97-10.26 6.97-16.83 0-6.58-2.66-12.53-6.97-16.83z"/>
			<path id="&lt;Compound Path&gt;" fill-rule="evenodd" class="s4" d="m210.39 644.81c5.47-9.48 17.59-12.73 27.07-7.26 9.48 5.47 12.73 17.6 7.25 27.08-5.47 9.48-17.59 12.72-27.07 7.25-9.48-5.47-12.73-17.59-7.25-27.07zm36.27 9.91c0-10.56-8.55-19.12-19.11-19.12-10.56 0-19.12 8.56-19.12 19.12 0 10.55 8.56 19.11 19.12 19.11 10.56 0 19.11-8.56 19.11-19.11z"/>
			<path id="&lt;Compound Path&gt;" fill-rule="evenodd" class="s4" d="m149.77 571.85q1.58-1.96 3.54-3.55l-2.28-4.76c-0.18-0.36-0.04-0.81 0.31-1.01l4.31-2.49c0.35-0.2 0.8-0.1 1.03 0.24l3 4.36q2.35-0.9 4.82-1.29l0.4-5.27c0.03-0.41 0.37-0.72 0.78-0.72h4.97c0.41 0 0.75 0.31 0.78 0.72l0.42 5.26q2.48 0.4 4.82 1.3l2.98-4.36c0.23-0.34 0.68-0.44 1.04-0.24l4.3 2.49c0.36 0.2 0.49 0.64 0.32 1.01l-2.28 4.78q1.96 1.58 3.54 3.53l4.75-2.29c0.37-0.17 0.81-0.04 1.02 0.32l2.48 4.3c0.21 0.35 0.11 0.8-0.23 1.04l-4.36 3q0.9 2.34 1.29 4.82l5.27 0.4c0.41 0.03 0.72 0.37 0.72 0.78v4.97c0 0.41-0.31 0.75-0.72 0.78l-5.27 0.42q-0.39 2.48-1.3 4.82l4.37 2.98c0.33 0.23 0.44 0.68 0.23 1.03l-2.48 4.31c-0.21 0.35-0.65 0.49-1.02 0.31l-4.77-2.27q-1.57 1.94-3.51 3.52l2.27 4.77c0.17 0.37 0.03 0.81-0.32 1.01l-4.3 2.49c-0.36 0.2-0.81 0.1-1.04-0.24l-2.98-4.36q-2.34 0.9-4.82 1.29l-0.42 5.28c-0.03 0.41-0.37 0.72-0.78 0.72h-4.97c-0.41 0-0.75-0.32-0.78-0.73l-0.4-5.26q-2.48-0.39-4.82-1.29l-3 4.36c-0.23 0.33-0.68 0.43-1.03 0.23l-4.31-2.49c-0.35-0.2-0.49-0.64-0.31-1.01l2.29-4.76q-1.96-1.58-3.54-3.53l-4.77 2.27c-0.37 0.18-0.81 0.04-1.02-0.31l-2.48-4.31c-0.21-0.35-0.1-0.8 0.24-1.03l4.36-2.98q-0.9-2.34-1.29-4.82l-5.28-0.42c-0.41-0.03-0.72-0.37-0.72-0.78v-4.97c0-0.41 0.32-0.75 0.72-0.78l5.26-0.4q0.39-2.48 1.3-4.82l-4.36-3c-0.33-0.24-0.44-0.69-0.23-1.04l2.48-4.3c0.21-0.36 0.65-0.49 1.02-0.32zm9.61 9.78c-2.81 4.85-1.14 11.06 3.71 13.86 4.86 2.81 11.06 1.14 13.87-3.71 2.8-4.86 1.13-11.06-3.72-13.87-4.85-2.8-11.06-1.13-13.86 3.72z"/>
			<path id="&lt;Compound Path&gt;" fill-rule="evenodd" class="s5" d="m171.64 563.52q2.67 0.4 5.11 1.37l3.07-4.49c0.17-0.26 0.5-0.33 0.77-0.18l4.3 2.49c0.26 0.15 0.36 0.47 0.23 0.75l-2.34 4.92q2.07 1.65 3.72 3.73l4.91-2.36c0.27-0.14 0.6-0.03 0.75 0.23l2.49 4.3c0.15 0.26 0.07 0.6-0.18 0.77l-4.48 3.09q0.96 2.43 1.36 5.09l5.42 0.41c0.31 0.02 0.54 0.27 0.54 0.58v4.97c0 0.3-0.23 0.55-0.53 0.58l-5.44 0.43q-0.4 2.66-1.36 5.09l4.49 3.07c0.25 0.16 0.33 0.5 0.18 0.76l-2.49 4.31c-0.15 0.26-0.47 0.36-0.75 0.23l-4.92-2.34q-1.66 2.07-3.73 3.72l2.36 4.91c0.13 0.27 0.03 0.6-0.23 0.75l-4.31 2.48c-0.26 0.16-0.59 0.08-0.76-0.17l-3.09-4.49q-2.43 0.96-5.09 1.36l-0.41 5.43c-0.03 0.3-0.28 0.54-0.58 0.54h-4.97c-0.3 0-0.55-0.24-0.58-0.54l-0.43-5.43q-2.65-0.4-5.07-1.36l-3.09 4.49c-0.17 0.25-0.5 0.33-0.76 0.17l-4.31-2.48c-0.26-0.15-0.36-0.48-0.23-0.75l2.36-4.91q-2.07-1.65-3.73-3.72l-4.92 2.34c-0.27 0.13-0.6 0.03-0.75-0.23l-2.48-4.31c-0.16-0.26-0.08-0.6 0.17-0.76l4.49-3.07q-0.96-2.43-1.36-5.09l-5.43-0.43c-0.31-0.03-0.54-0.28-0.54-0.58v-4.97c0-0.31 0.24-0.56 0.54-0.58l5.43-0.41q0.39-2.66 1.35-5.09l-4.48-3.09c-0.25-0.17-0.33-0.51-0.18-0.77l2.49-4.3c0.15-0.26 0.48-0.37 0.75-0.23l4.91 2.36q1.65-2.08 3.72-3.73l-2.34-4.92c-0.13-0.28-0.03-0.6 0.23-0.75l4.31-2.49c0.26-0.15 0.59-0.08 0.76 0.18l3.07 4.49q2.43-0.96 5.09-1.37l0.43-5.43c0.03-0.3 0.28-0.53 0.58-0.53h4.97c0.3 0 0.55 0.23 0.58 0.53zm-13.83 23.18c0 5.72 4.64 10.36 10.36 10.36 5.71 0 10.35-4.64 10.35-10.36 0-5.71-4.64-10.35-10.35-10.35-5.72 0-10.36 4.64-10.36 10.35z"/>
			<path id="&lt;Compound Path&gt;" fill-rule="evenodd" class="s4" d="m154.18 578.97c2.15-3.72 5.66-6.41 9.81-7.52 4.15-1.11 8.53-0.53 12.25 1.61 3.72 2.15 6.41 5.66 7.52 9.81 1.12 4.15 0.54 8.53-1.61 12.25-2.15 3.73-5.65 6.41-9.8 7.53-4.15 1.11-8.54 0.53-12.26-1.62-3.72-2.14-6.41-5.65-7.52-9.8-1.11-4.15-0.54-8.53 1.61-12.26zm10.83-3.7c-3.13 0.84-5.78 2.88-7.4 5.68-1.62 2.81-2.06 6.12-1.22 9.25 0.84 3.14 2.87 5.78 5.68 7.41 2.81 1.62 6.12 2.05 9.25 1.21 3.13-0.84 5.78-2.87 7.4-5.68 1.62-2.81 2.06-6.11 1.22-9.25-0.84-3.13-2.87-5.78-5.68-7.4-2.81-1.62-6.12-2.05-9.25-1.22z"/>
			<path id="&lt;Compound Path&gt;" fill-rule="evenodd" class="s6" d="m168.17 570.8c4.39 0 8.36 1.78 11.24 4.65 2.88 2.88 4.66 6.86 4.66 11.25 0 4.39-1.78 8.37-4.66 11.25-2.88 2.88-6.85 4.66-11.24 4.66-4.4 0-8.37-1.78-11.25-4.66-2.88-2.88-4.66-6.86-4.66-11.25 0-4.39 1.78-8.37 4.66-11.25 2.88-2.87 6.85-4.65 11.25-4.65zm8.79 7.11c-2.25-2.25-5.36-3.64-8.79-3.64-3.44 0-6.54 1.39-8.79 3.64-2.25 2.25-3.65 5.36-3.65 8.79 0 3.43 1.4 6.54 3.65 8.79 2.25 2.25 5.35 3.64 8.79 3.64 3.43 0 6.54-1.39 8.79-3.64 2.25-2.25 3.64-5.36 3.64-8.79 0-3.43-1.39-6.54-3.64-8.79z"/>
			<path id="&lt;Compound Path&gt;" fill-rule="evenodd" class="s4" d="m159.2 581.52c2.86-4.95 9.19-6.64 14.14-3.78 4.95 2.86 6.65 9.19 3.79 14.14-2.86 4.95-9.19 6.64-14.14 3.79-4.95-2.86-6.65-9.19-3.79-14.15zm18.95 5.18c0-5.51-4.47-9.98-9.98-9.98-5.52 0-9.99 4.47-9.99 9.98 0 5.52 4.47 9.99 9.99 9.99 5.51 0 9.98-4.47 9.98-9.99z"/>
			<path id="&lt;Compound Path&gt;" fill-rule="evenodd" class="s4" d="m210.98 530.44q0.95-1.19 2.14-2.15l-1.38-2.88c-0.11-0.22-0.03-0.49 0.19-0.62l2.61-1.51c0.21-0.12 0.48-0.06 0.62 0.15l1.82 2.64q1.42-0.55 2.92-0.78l0.24-3.19c0.02-0.25 0.23-0.44 0.48-0.44h3.01c0.24 0 0.45 0.19 0.47 0.43l0.25 3.19q1.51 0.24 2.93 0.79l1.8-2.64c0.14-0.21 0.41-0.27 0.63-0.14l2.61 1.5c0.21 0.13 0.29 0.39 0.19 0.62l-1.38 2.89q1.18 0.95 2.14 2.14l2.88-1.39c0.22-0.1 0.49-0.02 0.62 0.19l1.5 2.61c0.13 0.22 0.07 0.49-0.14 0.63l-2.64 1.82q0.54 1.42 0.78 2.92l3.19 0.24c0.25 0.02 0.44 0.22 0.44 0.47v3.01c0 0.25-0.19 0.46-0.43 0.48l-3.2 0.25q-0.23 1.5-0.78 2.92l2.64 1.8c0.2 0.14 0.27 0.42 0.14 0.63l-1.5 2.61c-0.13 0.22-0.39 0.3-0.62 0.19l-2.89-1.38q-0.95 1.18-2.13 2.14l1.38 2.89c0.1 0.22 0.02 0.49-0.19 0.61l-2.61 1.51c-0.22 0.12-0.49 0.06-0.63-0.15l-1.8-2.64q-1.42 0.54-2.93 0.78l-0.25 3.2c-0.02 0.25-0.22 0.44-0.47 0.44h-3.01c-0.25 0-0.46-0.2-0.48-0.44l-0.24-3.19q-1.5-0.24-2.92-0.78l-1.82 2.63c-0.14 0.21-0.41 0.27-0.62 0.15l-2.61-1.51c-0.22-0.12-0.3-0.39-0.19-0.61l1.38-2.89q-1.18-0.95-2.14-2.14l-2.89 1.38c-0.22 0.11-0.49 0.03-0.61-0.19l-1.51-2.61c-0.12-0.21-0.06-0.49 0.14-0.63l2.65-1.8q-0.55-1.42-0.79-2.92l-3.19-0.25c-0.25-0.02-0.44-0.23-0.44-0.48v-3.01c0-0.24 0.19-0.45 0.44-0.47l3.19-0.24q0.23-1.5 0.78-2.93l-2.64-1.81c-0.2-0.14-0.26-0.41-0.14-0.63l1.51-2.61c0.12-0.21 0.39-0.3 0.61-0.19zm5.82 5.93c-1.69 2.94-0.69 6.7 2.25 8.39 2.95 1.7 6.71 0.69 8.4-2.25 1.7-2.94 0.69-6.7-2.25-8.4-2.94-1.69-6.7-0.69-8.4 2.26z"/>
			<path id="&lt;Compound Path&gt;" fill-rule="evenodd" class="s5" d="m224.22 525.39q1.62 0.24 3.1 0.83l1.86-2.72c0.11-0.15 0.31-0.2 0.47-0.11l2.6 1.51c0.16 0.09 0.22 0.29 0.15 0.45l-1.42 2.99q1.25 1 2.25 2.25l2.97-1.43c0.17-0.08 0.37-0.01 0.46 0.14l1.51 2.61c0.09 0.16 0.04 0.36-0.11 0.47l-2.72 1.87q0.58 1.47 0.83 3.08l3.28 0.25c0.19 0.02 0.33 0.17 0.33 0.35v3.01c0 0.19-0.14 0.34-0.32 0.35l-3.3 0.26q-0.24 1.62-0.82 3.09l2.72 1.86c0.15 0.1 0.2 0.3 0.11 0.46l-1.51 2.61c-0.09 0.16-0.29 0.22-0.45 0.14l-2.99-1.42q-1 1.25-2.26 2.26l1.43 2.97c0.08 0.17 0.02 0.36-0.14 0.46l-2.6 1.5c-0.16 0.09-0.36 0.05-0.47-0.1l-1.87-2.72q-1.47 0.58-3.09 0.82l-0.24 3.29c-0.02 0.18-0.17 0.32-0.35 0.32h-3.01c-0.19 0-0.34-0.14-0.35-0.32l-0.27-3.29q-1.6-0.24-3.07-0.82l-1.87 2.72c-0.1 0.15-0.3 0.19-0.46 0.1l-2.61-1.51c-0.16-0.09-0.22-0.28-0.14-0.45l1.43-2.97q-1.26-1.01-2.26-2.26l-2.98 1.42c-0.17 0.08-0.36 0.02-0.46-0.14l-1.5-2.61c-0.09-0.16-0.05-0.36 0.1-0.46l2.73-1.86q-0.59-1.47-0.83-3.09l-3.29-0.26c-0.18-0.01-0.33-0.16-0.33-0.35v-3.01c0-0.18 0.15-0.33 0.33-0.35l3.29-0.25q0.24-1.61 0.82-3.08l-2.72-1.87c-0.15-0.11-0.19-0.31-0.1-0.47l1.5-2.61c0.09-0.15 0.29-0.22 0.46-0.14l2.97 1.43q1-1.25 2.26-2.25l-1.42-2.99c-0.08-0.16-0.02-0.36 0.14-0.45l2.61-1.51c0.16-0.09 0.36-0.04 0.46 0.11l1.86 2.72q1.47-0.58 3.08-0.83l0.27-3.29c0.01-0.18 0.16-0.32 0.35-0.32h3.01c0.18 0 0.33 0.14 0.35 0.32zm-8.38 14.05c0 3.46 2.81 6.27 6.27 6.27 3.47 0 6.27-2.81 6.27-6.27 0-3.47-2.8-6.27-6.27-6.27-3.46 0-6.27 2.8-6.27 6.27z"/>
			<path id="&lt;Compound Path&gt;" fill-rule="evenodd" class="s4" d="m213.65 534.76c1.3-2.26 3.43-3.89 5.94-4.56 2.51-0.68 5.17-0.33 7.42 0.97 2.26 1.31 3.89 3.43 4.56 5.94 0.68 2.52 0.33 5.17-0.98 7.43-1.3 2.25-3.42 3.88-5.94 4.56-2.51 0.67-5.17 0.32-7.42-0.98-2.25-1.3-3.88-3.43-4.56-5.94-0.67-2.51-0.32-5.17 0.98-7.42zm6.56-2.25c-1.9 0.51-3.5 1.74-4.48 3.44-0.99 1.71-1.25 3.71-0.74 5.61 0.51 1.9 1.74 3.5 3.44 4.48 1.7 0.98 3.7 1.25 5.6 0.74 1.9-0.51 3.5-1.74 4.49-3.44 0.98-1.7 1.24-3.71 0.74-5.6-0.51-1.9-1.74-3.51-3.45-4.49-1.7-0.98-3.7-1.24-5.6-0.74z"/>
			<path id="&lt;Compound Path&gt;" fill-rule="evenodd" class="s6" d="m222.12 529.8c2.66 0 5.07 1.08 6.82 2.82 1.74 1.75 2.82 4.15 2.82 6.82 0 2.66-1.08 5.07-2.82 6.81-1.75 1.74-4.16 2.82-6.82 2.82-2.66 0-5.07-1.08-6.81-2.82-1.75-1.74-2.82-4.15-2.82-6.81 0-2.67 1.07-5.07 2.82-6.82 1.74-1.74 4.15-2.82 6.81-2.82zm5.33 4.31c-1.37-1.36-3.25-2.21-5.33-2.21-2.08 0-3.96 0.85-5.32 2.21-1.37 1.36-2.21 3.25-2.21 5.33 0 2.08 0.84 3.96 2.21 5.32 1.36 1.36 3.24 2.21 5.32 2.21 2.08 0 3.96-0.85 5.33-2.21 1.36-1.36 2.2-3.24 2.2-5.32 0-2.08-0.84-3.97-2.2-5.33z"/>
			<path id="&lt;Compound Path&gt;" fill-rule="evenodd" class="s4" d="m216.69 536.3c1.73-3 5.57-4.03 8.57-2.29 3 1.73 4.03 5.56 2.29 8.56-1.73 3-5.56 4.03-8.56 2.3-3-1.73-4.03-5.57-2.3-8.57zm11.48 3.14c0-3.34-2.71-6.05-6.05-6.05-3.34 0-6.05 2.71-6.05 6.05 0 3.34 2.71 6.05 6.05 6.05 3.34 0 6.05-2.71 6.05-6.05z"/>
			<path id="&lt;Path&gt;" class="s7" d="m848.37 280.57h-584.6c-9.8 0-17.81 8.55-17.81 18.99v395.5c0 10.44 8.01 18.99 17.81 18.99h584.6c9.79 0 17.81-8.55 17.81-18.99v-395.5c0-10.44-8.02-18.99-17.81-18.99z"/>
			<path id="&lt;Path&gt;" class="s2" d="m847.24 283.49h-582.35c-8.46 0-15.38 7.38-15.38 16.4v394.1c0 9.02 6.92 16.4 15.38 16.4h582.35c8.46 0 15.38-7.38 15.38-16.4v-394.1c0-9.02-6.92-16.4-15.38-16.4z"/>
			<path id="&lt;Path&gt;" class="s7" d="m708.72 283.49h-443.83c-8.46 0-15.38 7.38-15.38 16.4v394.1c0 9.02 6.92 16.4 15.38 16.4h162.24z"/>
			<path id="&lt;Compound Path&gt;" fill-rule="evenodd" class="s8" d="m264.89 283.02h582.35c4.37 0 8.33 1.9 11.2 4.96 2.87 3.06 4.65 7.27 4.65 11.91v394.1c0 4.63-1.78 8.84-4.65 11.9-2.87 3.06-6.83 4.97-11.2 4.97h-582.35c-4.36 0-8.32-1.91-11.2-4.97-2.86-3.06-4.64-7.27-4.64-11.9v-394.1c0-4.64 1.78-8.85 4.64-11.91 2.88-3.06 6.84-4.96 11.2-4.96zm582.35 0.93h-582.35c-4.09 0-7.82 1.79-10.52 4.67-2.71 2.89-4.39 6.88-4.39 11.27v394.1c0 4.39 1.68 8.37 4.39 11.26 2.7 2.88 6.43 4.67 10.52 4.67h582.35c4.1 0 7.83-1.79 10.53-4.67 2.71-2.89 4.39-6.87 4.39-11.26v-394.1c0-4.39-1.68-8.38-4.39-11.27-2.7-2.88-6.43-4.67-10.53-4.67z"/>
			<path id="&lt;Path&gt;" class="s1" d="m847.23 671.92h-582.32v-360.1h582.32z"/>
			<path id="&lt;Path&gt;" class="s9" d="m562.51 298.12c0 3.55-2.88 6.44-6.44 6.44-3.56 0-6.44-2.89-6.44-6.44 0-3.56 2.88-6.44 6.44-6.44 3.56 0 6.44 2.88 6.44 6.44z"/>
			<path id="&lt;Path&gt;" class="s7" d="m550.79 298.12c0-2.91 2.36-5.27 5.28-5.27 2.91 0 5.27 2.36 5.27 5.27 0 2.91-2.36 5.27-5.27 5.27-2.92 0-5.28-2.36-5.28-5.27z"/>
			<path id="&lt;Path&gt;" class="s8" d="m552.84 298.12c0-1.79 1.44-3.23 3.23-3.23 1.78 0 3.23 1.44 3.23 3.23 0 1.78-1.45 3.22-3.23 3.22-1.79 0-3.23-1.44-3.23-3.22z"/>
			<path id="&lt;Path&gt;" class="s8" d="m172.7 696.77h321.1c1.37 0 2.52 0.97 2.75 2.32 0.7 4.13 3.35 7.34 8.2 7.34h102.64c4.85 0 7.5-3.21 8.2-7.34 0.23-1.35 1.38-2.32 2.75-2.32h321.1v13.51h-766.74z"/>
			<path id="&lt;Path&gt;" class="s10" d="m939.44 697.5v12.78h-766.74v-12.78h321.1c1.01 0 1.85 0.71 2.02 1.72 0.81 4.75 3.95 7.95 8.93 7.95h102.64c4.98 0 8.12-3.2 8.92-7.95 0.17-1 1.02-1.72 2.03-1.72z"/>
			<path id="&lt;Path&gt;" class="s1" d="m172.7 710.28c5.06 4.99 15.82 13.34 43.34 14.29h680.06c27.52-0.95 38.28-9.3 43.34-14.29z"/>
			<path id="&lt;Path&gt;" class="s11" d="m845.88 313.39h-579.62v356.97h579.62z"/>
			<path id="&lt;Path&gt;" class="s12" d="m689 313.39h-422.74v356.97h187.28z"/>
			<path id="&lt;Path&gt;" class="s13" d="m290.07 533.68h27.46v110.99h-27.46z"/>
			<path id="&lt;Path&gt;" class="s2" d="m330.38 556.46h27.46v88.21h-27.46z"/>
			<path id="&lt;Path&gt;" class="s14" d="m370.68 596.73h27.46v47.94h-27.46z"/>
			<path id="&lt;Path&gt;" class="s15" d="m410.99 516.2h27.45v128.47h-27.45z"/>
			<path id="&lt;Path&gt;" class="s2" d="m451.29 461.1h27.46v183.57h-27.46z"/>
			<path id="&lt;Path&gt;" class="s13" d="m491.6 533.68h27.45v110.99h-27.45z"/>
			<path id="&lt;Path&gt;" class="s15" d="m531.9 501.89h27.46v142.78h-27.46z"/>
			<path id="&lt;Path&gt;" class="s14" d="m572.2 562.29h27.46v82.38h-27.46z"/>
			<path id="&lt;Path&gt;" class="s15" d="m289.59 655.97h350.97v5.87h-350.97z"/>
			<path id="&lt;Path&gt;" class="s14" d="m465.56 378.3l12.32-13.06c14.66 14.84 17.79 38.18 6.61 56.58l-15-9.87c6.34-10.99 4.52-24.68-3.93-33.65z"/>
			<path id="&lt;Path&gt;" class="s13" d="m429.27 421.51c12.63 8.31 29.45 5.23 38.37-6.75l15 9.87c-14.37 20.25-42.32 25.62-63.23 11.87-16.24-10.68-23.57-29.81-20-47.76l17.48 4.14c-1.89 10.81 2.62 22.21 12.38 28.63z"/>
			<path id="&lt;Path&gt;" class="s2" d="m444.84 369.37c-9.22 0.02-18.25 4.52-23.7 12.8-1.55 2.36-2.7 4.86-3.48 7.43l-17.47-4.14c1.25-4.55 3.23-8.98 5.96-13.14 9.1-13.83 24.33-21.2 39.73-20.88z"/>
			<path id="&lt;Path&gt;" class="s15" d="m448.2 369.57l1.04-17.93c7.3 0.68 14.54 3.11 21.1 7.42q2.71 1.79 5.09 3.87l-12.32 13.07q-1.25-1.04-2.63-1.95c-3.82-2.51-8.03-3.99-12.28-4.48z"/>
			<path id="&lt;Path&gt;" class="s13" d="m307.51 381.53l-15.3-9.38c11.51-17.39 33.71-25.23 54-18.06l-6.58 16.7c-12.05-3.95-25.08 0.64-32.12 10.74z"/>
			<path id="&lt;Path&gt;" class="s15" d="m357.23 408.19c5.54-14.07-0.93-29.9-14.47-36.17l6.58-16.7c22.76 9.92 33.74 36.16 24.57 59.44-7.12 18.07-24.34 29.17-42.63 29.36l0.47-17.95c10.97-0.37 21.2-7.12 25.48-17.98z"/>
			<path id="&lt;Path&gt;" class="s2" d="m303.02 403.63c1.91 9.02 8.17 16.94 17.38 20.57 2.63 1.03 5.31 1.65 7.99 1.88l-0.47 17.95c-4.72-0.3-9.46-1.32-14.09-3.15-15.39-6.06-25.72-19.45-28.57-34.59z"/>
			<path id="&lt;Path&gt;" class="s14" d="m302.52 400.31l-17.76 2.65c-0.82-7.28 0.07-14.86 2.95-22.16q1.19-3.02 2.74-5.78l15.31 9.38q-0.76 1.43-1.37 2.98c-1.68 4.25-2.25 8.67-1.87 12.93z"/>
			<path id="&lt;Path&gt;" class="s15" d="m547.81 371.65l-7.99-16.08c18.99-8.62 41.96-3.49 55.36 13.35l-14.44 10.67c-8.12-9.75-21.6-12.77-32.93-7.94z"/>
			<path id="&lt;Path&gt;" class="s2" d="m575.8 420.62c12.16-8.98 15.09-25.83 6.93-38.33l14.44-10.66c14.03 20.48 9.42 48.55-10.71 63.41-15.63 11.55-36.11 11.81-51.72 2.26l9.93-14.96c9.49 5.51 21.74 5.22 31.13-1.72z"/>
			<path id="&lt;Path&gt;" class="s13" d="m532.28 388c-3.17 8.65-2.07 18.68 3.82 26.65 1.67 2.27 3.62 4.22 5.77 5.83l-9.93 14.97c-3.83-2.75-7.31-6.14-10.27-10.14-9.83-13.31-11.48-30.14-5.85-44.49z"/>
			<path id="&lt;Path&gt;" class="s14" d="m533.62 384.91l-16.46-7.17c3.16-6.61 7.95-12.56 14.25-17.22q2.62-1.93 5.4-3.44l7.99 16.07q-1.4 0.81-2.73 1.79c-3.68 2.72-6.51 6.16-8.45 9.97z"/>
			<path id="&lt;Path&gt;" class="s9" d="m476.11 652.99c5.44 6.54 11.19 12.26 17.86 17.41h118.45c-13.51-7.59-26.73-15.76-35.8-25.91q-0.81-21.8-1.62-43.59c-9.23-3.74-22.93-3.21-37.2 1.9 1.06 14.45-23.71 30.78-61.69 50.19z"/>
			<path id="&lt;Path&gt;" class="s16" d="m462.49 659.03c3.4 4.09 6.92 7.86 10.71 11.37h115.23c-9.71-5.92-18.71-12.35-25.43-19.88q-0.81-21.79-1.62-43.58c-9.24-3.74-22.94-3.21-37.21 1.9 1.06 14.45-23.7 30.77-61.68 50.19z"/>
			<path id="&lt;Path&gt;" class="s13" d="m387.88 560.52l111.29-55.5 56.06 112.42-106.2 52.96h-57.5c-8.18-5.07-15.1-12.38-19.68-21.58l-8.09-16.21c-13.19-26.46-2.34-58.9 24.12-72.09z"/>
			<path id="&lt;Path&gt;" class="s17" d="m535.28 577.43l19.95 40.01-106.2 52.96h-57.5c-5.78-3.58-10.92-8.28-15.06-13.96z"/>
			<path id="&lt;Path&gt;" class="s18" d="m528.67 631.68c120.91-46.17 197.49-29.13 300.67-11.22l-167.67-336.2c-47.77 93.18-80.23 164.6-189.86 233.4l0.01 0.03c1.3 19.25 7.21 40.92 17.85 62.25 10.63 21.34 24.39 39.09 38.99 51.72z"/>
			<path id="&lt;Path&gt;" class="s19" d="m528.67 631.68c120.91-46.17 197.49-29.13 300.67-11.22l-75.65-151.69-255.19 126.96c8.97 14.38 19.33 26.56 30.16 35.93z"/>
			<path id="&lt;Path&gt;" class="s3" d="m677.63 266.53c41.56-20.73 114.53 41.24 162.98 138.4 48.46 97.16 54.05 192.72 12.49 213.45-41.56 20.72-114.52-41.24-162.98-138.4-48.45-97.17-54.04-192.73-12.49-213.45z"/>
			<path id="&lt;Path&gt;" class="s20" d="m678.76 268.79c40.31-20.1 111.76 41.35 159.59 137.27 47.83 95.91 53.93 189.95 13.62 210.05-40.3 20.11-111.75-41.35-159.58-137.26-47.84-95.91-53.93-189.96-13.63-210.06z"/>
			<path id="&lt;Path&gt;" class="s21" d="m688.07 287.46c30-14.96 88.92 42.3 131.61 127.91 42.69 85.6 52.98 167.12 22.98 182.07-29.99 14.97-88.92-42.3-131.61-127.9-42.69-85.6-52.98-167.12-22.98-182.08z"/>
			<path id="&lt;Path&gt;" class="s15" d="m723.73 401.06c0.43-0.21 0.09-0.04 0.13-0.06h0.01c11-5.26 27.7 14.15 41.35 41.52 13.66 27.38 19.12 52.4 8.29 58.02h-0.01c-0.04 0.03 0.4-0.19-0.12 0.07-0.52 0.26-2.07 0.8-3.21 0.92l-34.94 10.91c-8.41-13.23-16.55-27.61-24.18-42.9-7.83-15.72-14.58-31.3-20.18-46.35l30.66-20.59c0.67-0.62 1.78-1.33 2.2-1.54z"/>
			<path id="&lt;Path&gt;" class="s22" d="m725.09 400.38c8.46-4.21 26.42 14.65 40.13 42.14 13.71 27.49 17.97 53.2 9.52 57.41-8.45 4.22-26.42-14.65-40.13-42.14-13.71-27.49-17.97-53.19-9.52-57.41z"/>
			<path id="&lt;Path&gt;" class="s23" d="m884.4 511.32l-18.54-13.91c-2.48-1.87-6.03-1.36-7.89 1.12l-13.92 18.54c-1.86 2.48-1.36 6.04 1.13 7.9l18.54 13.91c2.48 1.87 6.03 1.36 7.89-1.12l13.92-18.54c1.86-2.48 1.36-6.04-1.13-7.9z"/>
			<path id="&lt;Path&gt;" class="s18" d="m870.07 536.38l13.71-18.26c1.24-1.65 0.91-4.02-0.75-5.26l-18.26-13.71c-1.65-1.24-4.02-0.9-5.27 0.75l-13.7 18.26c-1.24 1.66-0.91 4.03 0.75 5.27l18.26 13.7c1.65 1.25 4.02 0.91 5.26-0.75z"/>
			<path id="&lt;Path&gt;" class="s23" d="m863.26 511.45l-13.85 6.34c-0.62 0.29-1.01 0.84-1.09 1.51-0.07 0.68 0.2 1.3 0.74 1.71q8.69 6.52 17.37 13.03c0.55 0.41 1.22 0.5 1.85 0.24 0.63-0.26 1.04-0.79 1.14-1.46l1.22-8.22c0.1-0.7-0.17-1.35-0.74-1.78-0.56-0.42-1.26-0.5-1.91-0.21l-2.44 1.12c-0.26 0.12-0.54 0.09-0.76-0.08-0.23-0.17-0.34-0.43-0.3-0.71l1.41-9.51c0.1-0.7-0.17-1.35-0.73-1.78-0.57-0.42-1.27-0.5-1.91-0.2z"/>
			<path id="&lt;Path&gt;" class="s23" d="m878.49 513.8c-1.44-1.08-3.47-0.79-4.55 0.65-1.07 1.43-0.78 3.47 0.65 4.55 1.44 1.07 3.47 0.78 4.55-0.65 1.07-1.44 0.78-3.47-0.65-4.55z"/>
			<path id="&lt;Path&gt;" class="s23" d="m845.33 334.29l29.52-22.16c3.95-2.97 9.61-2.16 12.58 1.79l22.15 29.52c2.97 3.95 2.16 9.61-1.79 12.57l-29.52 22.16c-3.95 2.97-9.61 2.16-12.57-1.79l-22.16-29.52c-2.97-3.95-2.16-9.61 1.79-12.57z"/>
			<path id="&lt;Path&gt;" class="s18" d="m868.15 374.19l-21.83-29.07c-1.97-2.64-1.44-6.41 1.2-8.39l29.07-21.82c2.64-1.98 6.41-1.44 8.39 1.2l21.82 29.07c1.98 2.64 1.44 6.41-1.19 8.38l-29.08 21.83c-2.63 1.97-6.41 1.44-8.38-1.2z"/>
			<path id="&lt;Path&gt;" class="s23" d="m879 334.49l22.05 10.1c0.99 0.46 1.62 1.33 1.73 2.41 0.12 1.08-0.31 2.06-1.18 2.71q-13.83 10.38-27.65 20.76c-0.87 0.65-1.94 0.78-2.94 0.37-1-0.41-1.66-1.26-1.82-2.33l-1.94-13.08c-0.16-1.12 0.27-2.16 1.17-2.84 0.9-0.67 2.02-0.79 3.04-0.32l3.89 1.78c0.41 0.19 0.86 0.14 1.22-0.13 0.36-0.27 0.53-0.69 0.46-1.14l-2.23-15.13c-0.17-1.12 0.26-2.16 1.16-2.84 0.9-0.67 2.02-0.79 3.04-0.32z"/>
			<path id="&lt;Path&gt;" class="s23" d="m854.75 338.23c2.28-1.71 5.52-1.25 7.24 1.04 1.71 2.28 1.25 5.52-1.03 7.23-2.29 1.72-5.53 1.26-7.24-1.03-1.72-2.28-1.25-5.52 1.03-7.24z"/>
			<path id="&lt;Path&gt;" class="s23" d="m788.89 363.74l-23.43-9.72c-3.13-1.3-6.76 0.2-8.06 3.33l-9.73 23.43c-1.3 3.13 0.2 6.76 3.34 8.06l23.42 9.73c3.14 1.3 6.77-0.2 8.07-3.34l9.72-23.42c1.3-3.14-0.2-6.77-3.33-8.07z"/>
			<path id="&lt;Path&gt;" class="s18" d="m780.5 394.19l9.57-23.07c0.87-2.09-0.13-4.51-2.22-5.38l-23.07-9.57c-2.09-0.87-4.51 0.13-5.38 2.22l-9.58 23.07c-0.86 2.09 0.14 4.51 2.23 5.38l23.07 9.58c2.09 0.86 4.51-0.14 5.38-2.23z"/>
			<path id="&lt;Path&gt;" class="s23" d="m766.51 369.61l-12.96 10.48c-0.58 0.47-0.85 1.16-0.74 1.9 0.1 0.73 0.56 1.32 1.25 1.6q10.97 4.56 21.94 9.11c0.69 0.29 1.42 0.2 2.02-0.25 0.6-0.45 0.89-1.12 0.82-1.86l-0.95-9.04c-0.08-0.77-0.54-1.39-1.25-1.69-0.72-0.3-1.48-0.19-2.09 0.3l-2.28 1.85c-0.24 0.19-0.55 0.24-0.83 0.12-0.29-0.12-0.47-0.37-0.51-0.68l-1.08-10.45c-0.08-0.77-0.55-1.39-1.26-1.69-0.72-0.3-1.48-0.19-2.08 0.3z"/>
			<path id="&lt;Path&gt;" class="s23" d="m783.29 367.97c-1.81-0.75-3.89 0.11-4.64 1.92-0.75 1.82 0.1 3.89 1.92 4.65 1.81 0.75 3.89-0.11 4.64-1.92 0.75-1.82-0.11-3.89-1.92-4.65z"/>
			<path id="&lt;Path&gt;" class="s5" d="m780.13 462.39c4.35-7.54 11.45-12.99 19.86-15.24 8.37-2.25 17.29-1.07 24.81 3.27 7.53 4.35 12.98 11.45 15.23 19.85 2.25 8.38 1.07 17.3-3.27 24.81-4.35 7.54-11.45 12.99-19.85 15.24-8.38 2.24-17.3 1.07-24.81-3.27-7.54-4.35-12.99-11.45-15.24-19.85-2.24-8.38-1.07-17.3 3.27-24.81z"/>
			<path id="&lt;Path&gt;" class="s6" d="m780.91 462.84c8.78-15.21 28.23-20.42 43.44-11.64 15.2 8.78 20.41 28.23 11.63 43.43-8.78 15.21-28.22 20.42-43.43 11.64-15.21-8.78-20.42-28.23-11.64-43.43z"/>
			<path id="&lt;Compound Path&gt;" class="s18" d="m824.69 473.56l-0.07-0.07c-0.41-0.41-0.96-0.65-1.54-0.65h-10.28l0.56-1.07q0.78-1.49 1.14-3.13c0.42-1.98 0.28-3.95-0.27-5.89-0.2-0.68-0.58-1.27-1.17-1.67-0.39-0.27-0.85-0.44-1.33-0.47-0.45-0.03-0.91 0.07-1.3 0.3q-0.66 0.4-0.91 1.13l-1.52 4.34-6.41 6.74v14.73l6.47 2.94 0.02 0.01q0.05 0.02 0.1 0.02h12.05c0.58 0 1.12-0.23 1.53-0.64 0.41-0.41 0.64-0.96 0.64-1.54v-0.44q0-0.45-0.18-0.87l-0.36-0.82 0.87-0.19c1.13-0.26 1.65-0.87 1.65-2.07v-0.44c0-0.49-0.17-0.97-0.48-1.35l-0.47-0.6 0.72-0.53c0.47-0.35 0.89-0.86 0.89-1.47v-0.44c0-0.53-0.15-1.05-0.47-1.47l-0.39-0.5 0.45-0.46c0.4-0.41 0.63-0.96 0.63-1.53v-0.44c0-0.54-0.2-1.06-0.57-1.46zm-32.86-0.02c-0.11 0-0.2 0.09-0.2 0.2v14.68c0 0.11 0.09 0.2 0.2 0.2h7.32c0.12 0 0.21-0.09 0.21-0.2v-14.68c0-0.11-0.09-0.2-0.21-0.2z"/>
			<path id="&lt;Path&gt;" class="s5" d="m888.86 396.95c2.75-4.76 7.23-8.2 12.54-9.62 5.28-1.42 10.91-0.67 15.65 2.06 4.76 2.75 8.2 7.23 9.62 12.53 1.42 5.29 0.68 10.92-2.06 15.66-2.75 4.76-7.23 8.2-12.53 9.62-5.29 1.42-10.92 0.67-15.66-2.06-4.76-2.75-8.2-7.23-9.62-12.53-1.41-5.29-0.67-10.92 2.06-15.66z"/>
			<path id="&lt;Path&gt;" class="s6" d="m889.36 397.23c5.54-9.6 17.81-12.89 27.41-7.34 9.6 5.54 12.89 17.81 7.34 27.41-5.54 9.6-17.81 12.89-27.41 7.34-9.6-5.54-12.88-17.81-7.34-27.41z"/>
			<path id="&lt;Compound Path&gt;" class="s18" d="m916.99 404l-0.05-0.05c-0.26-0.26-0.6-0.4-0.97-0.4h-6.49l0.35-0.68q0.5-0.94 0.73-1.98c0.26-1.24 0.17-2.49-0.18-3.71-0.12-0.43-0.36-0.81-0.73-1.06q-0.38-0.26-0.84-0.29-0.44-0.03-0.82 0.18-0.42 0.26-0.58 0.72l-0.96 2.74-4.04 4.25v9.3l4.08 1.85 0.02 0.01q0.02 0.01 0.05 0.01h7.61c0.37 0 0.71-0.14 0.97-0.4 0.26-0.26 0.4-0.61 0.4-0.97v-0.28q0-0.29-0.11-0.55l-0.23-0.52 0.55-0.12c0.72-0.16 1.04-0.55 1.04-1.3v-0.28q0-0.48-0.3-0.86l-0.3-0.37 0.46-0.34c0.29-0.22 0.56-0.54 0.56-0.93v-0.28c0-0.32-0.09-0.66-0.3-0.92l-0.25-0.32 0.29-0.29c0.25-0.25 0.4-0.6 0.4-0.96v-0.28c0-0.34-0.13-0.67-0.36-0.92zm-20.74-0.02q-0.11 0.02-0.13 0.13v9.27q0.02 0.12 0.13 0.13h4.62q0.12-0.01 0.13-0.13v-9.27q-0.01-0.11-0.13-0.13z"/>
			<path id="&lt;Path&gt;" class="s5" d="m943.22 417.53c2.29-3.95 6.02-6.82 10.43-8 4.4-1.18 9.09-0.56 13.03 1.72 3.96 2.28 6.82 6.01 8 10.42 1.18 4.41 0.57 9.09-1.71 13.04-2.29 3.96-6.02 6.82-10.43 8-4.4 1.18-9.09 0.56-13.03-1.72-3.96-2.28-6.82-6.01-8-10.43-1.18-4.4-0.57-9.08 1.71-13.03z"/>
			<path id="&lt;Path&gt;" class="s6" d="m943.63 417.77c4.61-7.99 14.83-10.72 22.81-6.11 7.99 4.61 10.73 14.82 6.12 22.81-4.62 7.99-14.83 10.72-22.82 6.11-7.98-4.61-10.72-14.82-6.11-22.81z"/>
			<path id="&lt;Compound Path&gt;" class="s18" d="m966.63 423.4l-0.04-0.04c-0.22-0.21-0.5-0.33-0.81-0.33h-5.4l0.29-0.57q0.42-0.78 0.6-1.64c0.22-1.04 0.15-2.08-0.14-3.09q-0.15-0.55-0.61-0.88-0.32-0.22-0.7-0.25-0.37-0.02-0.68 0.16-0.35 0.21-0.48 0.59l-0.8 2.28-3.37 3.54v7.74l3.4 1.54 0.01 0.01q0.03 0.01 0.05 0.01h6.33q0.47-0.01 0.81-0.34c0.21-0.21 0.34-0.5 0.34-0.81v-0.23q-0.01-0.24-0.1-0.46l-0.19-0.43 0.45-0.1c0.6-0.13 0.87-0.45 0.87-1.08v-0.23q0-0.4-0.25-0.71l-0.25-0.32 0.38-0.28c0.25-0.18 0.47-0.45 0.47-0.77v-0.23c0-0.28-0.08-0.55-0.25-0.77l-0.2-0.27 0.23-0.24q0.33-0.33 0.33-0.8v-0.23q0-0.44-0.29-0.77zm-17.26-0.01q-0.1 0.01-0.11 0.11v7.71q0.01 0.1 0.11 0.1h3.84q0.1 0 0.11-0.1v-7.71q-0.01-0.1-0.11-0.11z"/>
			<path id="&lt;Path&gt;" class="s24" d="m797.28 403.4c3.22-5.59 8.48-9.62 14.71-11.29 6.2-1.66 12.81-0.79 18.37 2.42 5.58 3.22 9.62 8.48 11.28 14.71 1.67 6.2 0.8 12.81-2.42 18.37-3.22 5.58-8.48 9.62-14.7 11.28-6.21 1.67-12.81 0.8-18.38-2.41-5.58-3.23-9.61-8.49-11.28-14.71-1.66-6.2-0.79-12.81 2.42-18.37z"/>
			<path id="&lt;Path&gt;" class="s13" d="m797.86 403.73c6.5-11.26 20.9-15.12 32.17-8.62 11.26 6.5 15.12 20.9 8.62 32.17-6.51 11.26-20.91 15.12-32.17 8.62-11.27-6.51-15.12-20.91-8.62-32.17z"/>
			<path id="&lt;Path&gt;" class="s18" d="m818.25 410.88c1.42-2.83 2.83-4.25 5.66-4.25 3.12 0 5.66 2.54 5.66 5.66 0 5.66-3.33 9.31-11.32 13.76-7.2-4.37-11.31-8.1-11.31-13.76 0-3.12 2.53-5.66 5.65-5.66 2.83 0 4.25 1.42 5.66 4.25z"/>
			<path id="&lt;Path&gt;" class="s24" d="m861.96 449.69c1.89-3.27 4.97-5.64 8.62-6.62 3.64-0.97 7.51-0.46 10.78 1.42 3.27 1.89 5.63 4.97 6.61 8.62 0.98 3.64 0.47 7.52-1.42 10.78-1.89 3.27-4.97 5.64-8.62 6.62-3.64 0.97-7.51 0.46-10.77-1.42-3.28-1.89-5.64-4.98-6.62-8.63-0.97-3.63-0.46-7.51 1.42-10.77z"/>
			<path id="&lt;Path&gt;" class="s13" d="m862.3 449.88c3.81-6.6 12.26-8.86 18.86-5.05 6.61 3.81 8.87 12.26 5.06 18.86-3.82 6.61-12.26 8.87-18.87 5.06-6.6-3.81-8.86-12.26-5.05-18.87z"/>
			<path id="&lt;Path&gt;" class="s18" d="m874.26 454.08c0.83-1.66 1.66-2.49 3.31-2.49 1.84 0 3.32 1.48 3.32 3.31 0 3.32-1.95 5.46-6.63 8.08-4.22-2.57-6.64-4.76-6.64-8.08 0-1.83 1.49-3.31 3.32-3.31 1.66 0 2.49 0.83 3.32 2.49z"/>
			<path id="&lt;Path&gt;" class="s24" d="m929.98 461.02c1.23-2.13 3.23-3.66 5.6-4.3 2.37-0.63 4.89-0.3 7.01 0.92 2.12 1.23 3.66 3.23 4.3 5.6 0.63 2.37 0.3 4.89-0.93 7.01-1.22 2.12-3.23 3.66-5.6 4.3-2.36 0.63-4.88 0.3-7-0.93-2.13-1.22-3.67-3.23-4.3-5.6-0.63-2.36-0.3-4.88 0.92-7z"/>
			<path id="&lt;Path&gt;" class="s13" d="m930.2 461.15c2.48-4.29 7.97-5.77 12.26-3.29 4.29 2.48 5.76 7.97 3.28 12.26-2.47 4.29-7.96 5.76-12.25 3.28-4.3-2.47-5.77-7.96-3.29-12.25z"/>
			<path id="&lt;Path&gt;" class="s18" d="m937.97 463.87c0.54-1.08 1.08-1.62 2.16-1.62 1.19 0 2.15 0.97 2.15 2.16 0 2.15-1.26 3.55-4.31 5.24-2.74-1.66-4.31-3.09-4.31-5.24 0-1.19 0.97-2.16 2.16-2.16 1.07 0 1.61 0.54 2.15 1.62z"/>
			<path id="&lt;Path&gt;" class="s24" d="m797.05 332.64c1.99-3.45 5.24-5.95 9.09-6.98 3.84-1.03 7.92-0.49 11.36 1.5 3.45 1.99 5.95 5.24 6.98 9.09 1.03 3.84 0.49 7.92-1.49 11.36-2 3.45-5.25 5.95-9.1 6.98-3.83 1.03-7.92 0.49-11.36-1.5-3.45-1.99-5.95-5.24-6.98-9.09-1.03-3.84-0.49-7.92 1.5-11.36z"/>
			<path id="&lt;Path&gt;" class="s13" d="m797.41 332.84c4.02-6.96 12.92-9.35 19.89-5.33 6.96 4.03 9.35 12.93 5.33 19.9-4.02 6.96-12.93 9.35-19.89 5.33-6.97-4.03-9.35-12.93-5.33-19.9z"/>
			<path id="&lt;Path&gt;" class="s18" d="m810.02 337.26c0.87-1.75 1.75-2.62 3.5-2.62 1.93 0 3.49 1.57 3.49 3.5 0 3.5-2.05 5.76-6.99 8.51-4.45-2.7-7-5.01-7-8.51 0-1.93 1.57-3.5 3.5-3.5 1.75 0 2.62 0.87 3.5 2.62z"/>
			<path id="&lt;Path&gt;" class="s24" d="m921.77 363.35c1.67-2.88 4.38-4.97 7.6-5.83 3.21-0.86 6.63-0.41 9.5 1.25 2.89 1.67 4.98 4.38 5.84 7.6 0.86 3.21 0.41 6.63-1.25 9.5-1.67 2.89-4.39 4.98-7.61 5.84-3.2 0.86-6.62 0.41-9.5-1.25-2.88-1.67-4.97-4.39-5.83-7.61-0.86-3.2-0.41-6.62 1.25-9.5z"/>
			<path id="&lt;Path&gt;" class="s13" d="m922.07 363.53c3.36-5.83 10.81-7.82 16.63-4.46 5.83 3.36 7.82 10.81 4.46 16.63-3.36 5.82-10.81 7.82-16.63 4.46-5.83-3.37-7.82-10.81-4.46-16.63z"/>
			<path id="&lt;Path&gt;" class="s18" d="m932.61 367.22c0.73-1.46 1.47-2.19 2.93-2.19 1.61 0 2.92 1.31 2.92 2.92 0 2.93-1.72 4.82-5.85 7.12-3.72-2.26-5.85-4.19-5.85-7.12 0-1.61 1.31-2.92 2.93-2.92 1.46 0 2.19 0.73 2.92 2.19z"/>
			<path id="&lt;Path&gt;" class="s25" d="m631.71 724.16c-41.03 0-74.3 2.71-74.3 6.05 0 3.34 33.27 6.04 74.3 6.04 41.04 0 74.31-2.7 74.31-6.04 0-3.34-33.27-6.05-74.31-6.05z"/>
			<path id="&lt;Path&gt;" class="s20" d="m616.64 704.89l0.76 8.38 11.08 0.83 0.67-10.07z"/>
			<path id="&lt;Path&gt;" class="s20" d="m649.09 706.22l0.93 8.83 11.92 0.87 0.72-10.59z"/>
			<path id="&lt;Path&gt;" class="s22" d="m628.75 709.71c1.57 0.4 2.15 13.18-1.43 15.35-5.9 3.56-5.54-3.03-17.62 6.08 0 0-5.35 4.04-12.1 2.12 0 0-5.18-0.68-6.22-5.44 0 0-0.1-2.52 3.28-4.46 0 0 8.26-1.84 13.54-8.4 0 0 1.64-4.77 5.18-5.78 0 0 5.39-0.86 5.52 0.84 0.39 5.03 10.03 1.4 9.85-0.31z"/>
			<path id="&lt;Path&gt;" class="s22" d="m662.27 711.47c1.6 0.26 1.87 11.61-1.74 13.8-7.54 4.59-7.26 5.72-10.58 11.24-3.42 6.01-14.65 6.1-16.77-0.75 0 0-0.21-2.14 2.83-4.95 0 0 5.02-4.93 7.37-11.63 0 0 0.04-5.31 3.46-6.7 0 0 3.36-1.47 3.15 0.29-0.31 2.57 11.44 2.64 12.28-1.3z"/>
			<path id="&lt;Path&gt;" class="s20" d="m614.46 708.75c0 0 17.21 2.3 16.87-1.04-1.82-17.5 1.35-37.6-0.98-47.82-1.54-6.77 4.53-14.21 5.3-21.75l11.03-59.45-34.03 1.22c-1.88 13.36-7.07 48.52-3.92 78.4 1.35 12.86 5.06 34.6 5.73 50.44z"/>
			<path id="&lt;Path&gt;" class="s3" d="m625.02 709.52c3.49 0 6.45-0.41 6.31-1.81-1.82-17.5 1.35-37.6-0.98-47.82-1.54-6.77 4.53-14.21 5.3-21.75l7.14-38.47-15.43-2.2c0 0 0.9 36.3-3.6 55.2 0 0-0.97 33.34 1.26 56.85z"/>
			<path id="&lt;Path&gt;" class="s20" d="m662.57 578.95c2.75 7.54 4.08 20.67 0.11 35.4 0.44 11.52-3.27 29.18-3.23 40.37 0.03 8.3 6.08 34.59 6.85 54.79-5.22 1.75-12.46 1.77-18.38 0.31-2.7-21.33-6.54-33.3-10.1-52.11-2.04-10.78-3.63-25.51-5.6-35.67-1.79-9.25-3.57-12.47-9.81-19.81-4.75-5.6-10.15-15.74-9.76-22.32z"/>
			<path id="&lt;Path&gt;" class="s3" d="m662.57 578.95c2.75 7.54 4.08 20.67 0.11 35.4 0.44 11.52-3.27 29.18-3.23 40.37 0.03 8.3 6.08 34.59 6.85 54.79-1.83 0.61-3.9 1.01-6.08 1.21-2.11-16.14-10.36-56.55-10.36-56.55-0.3-5.1 2.7-43.5 2.7-43.5 2.91-9.28 1.41-22.53-0.23-31.53z"/>
			<path id="&lt;Path&gt;" class="s26" d="m569.83 523.88c-4.6-4.2-10.5-2.92-12.24-2.05-6.54 3.27-11.07-4.39-13.03-5.18-3.45 3.92 8.86 21.16 21.53 14.93 6.43 1.22 21.04 26.16 35.85 25.36 4.28-3.56 33.9-39.25 34-44.58 1.07-13.12-10.2-13.96-15.94-9-1.44 1.34-17.11 32.06-21.8 38.8-5.61-6.81-18.56-10.87-28.37-18.28z"/>
			<path id="&lt;Path&gt;" class="s13" d="m636.41 505.13c2.95-7.52-9.67-16.75-17.83-4.37-4.13 6.28-11.19 23.41-20.03 41.18-3.06-4.87-9.72-7.81-25.65-16.15-2.07 2.57-3.39 7.85-3.61 11.49 0 0 23.07 22.51 33.66 19.66 14.34-13.86 29.22-35.09 33.46-51.81z"/>
			<path id="&lt;Path&gt;" class="s17" d="m569.75 533.77c-0.24 1.24-0.39 2.44-0.46 3.51 0 0 23.07 22.51 33.66 19.66 12.27-11.86 24.94-29.12 31-44.34-15.37 18.27-31.4 37.1-32.77 37.78 0 0-9.18 0-31.43-16.61z"/>
			<path id="&lt;Path&gt;" class="s13" d="m633.11 492.48c-15.04 1.68-23.32 16.53-17.29 62.59 0 0-8.23 27.06-1.57 29.69l21.24 2.68c10.96 1.83 31.64 3.11 28.39-13.99-4.08-21.51 2.46-59.43 3.19-71.42-0.24-6.03-13.99-13.15-18.33-12.16-7.4-1.16-8.33 2.73-15.63 2.61z"/>
			<path id="&lt;Path&gt;" class="s24" d="m654.02 543.02c-5.46 6.89-15.35 17.87-36.94 24.08 14.88-2.58 27.77-9.02 38.09-17.21l7.93-8.52c0.53-7.78 1.36-15.48 2.13-22.17l-3.62-24.45c-23.79 3.61 5.06 36.71-7.59 48.27z"/>
			<path id="&lt;Path&gt;" class="s26" d="m677.63 537.86c-7.11 2.96-14.08 13.63-25.27 27.45 0 0-7.95-0.81-8.94 1.62 0 0-2.73 5.05-1.35 6.8 0 0 0.83 1 1.72 0.88 0 0 2.63 3 4.38 3.22 0.53 0.61 4.49-0.01 6.18-2.97 1.32 0.11 5.01-1.22 5.46-5.18 3.3-3.04 35.87-24.19 30.33-33.45-9.43-12.67-14.3-26.63-26.11-38.61-8.99-0.25-12.74 5.4-8.3 19.51 8.15 7.8 13.75 12.93 21.9 20.73z"/>
			<path id="&lt;Path&gt;" class="s13" d="m660.92 494.67c13.02 0.98 26.22 32.78 30.43 40.94 1.41 13.81-20.39 24.18-26.38 32.8-5.9 0.33-9.18-4.3-10.17-6.82 4.65-6.07 14.7-19.11 21.52-23.67 0 0-19.24-16.14-21.41-21.92 0 0-8.88-20.49 6.01-21.33z"/>
			<path id="&lt;Path&gt;" class="s17" d="m656.14 563.99c-0.62-0.86-1.07-1.71-1.34-2.4 4.65-6.07 14.7-19.11 21.52-23.67 0 0-19.24-16.14-21.41-21.92 0 0-3.89-8.98-2.2-15.3 0.35 4.99 1.65 10.79 5.24 15.2 2.69 3.3 22.84 22.09 23.01 22.14 0 0-16.99 15.92-24.82 25.95z"/>
			<path id="&lt;Path&gt;" class="s27" d="m627.42 489.81c0 0 3.42 4.29 0.63 8.36 0 0-0.5 6.02 7.63 5.75 4.35-0.21 14.96-7.09 14.73-12.75 0 0-1.85-0.13-2.28-1.34 0 0-1.56-6.41 0.21-13.3z"/>
			<path id="&lt;Path&gt;" class="s26" d="m619.58 471.6c0 0-0.12 9.26 0.28 13.61 0 0 0.49 3.87 7.04 8.88 0.31 0.24 0.76 0.56 1.05 0.67 1.4 0.5 1.73 0.83 10.74-4.45 0 0 3.78-2.76 5.71-5.75 0 0 9.78-13.88 7.67-19.64 0 0-0.9-9.98-12.85-10.71 0 0-13.6-3.09-16.23 3.54-4.87 6.04-3.76 8.61-3.41 13.85z"/>
			<path id="&lt;Compound Path&gt;" fill-rule="evenodd" class="s3" d="m615.41 459.77c-4.97-2.67-0.9-7.37 0.22-7.26 1.4-3.69 5.73-2.77 6.03-0.98 1.16-2.13 3.41-0.52 3.44 0.56 0.95-5.43 7.43-5.5 8.34-3.44 2.78-2.8 6.31-0.7 6.32 1.46 0.31-2.99 5.69-0.84 5.18 1.83 2.04-2.28 5.48 0.59 4.45 2.39 4.29-1.9 6.38 3.43 4.82 5.34 3.84 3.2 0.28 7.66-0.06 7.64 2.7 0.33 1.41 4.86 1.41 4.86-0.4 2.75-2.95 3.83-2.95 3.83 1.39 1.43-1.42 4.79-1.86 4.75-0.15 2.82-3.28 3.65-3.59 3.29-0.46 1.69-2.55 2.95-3.77 3.55-0.1 2.73-3.38 5.49-5.36 5.06-1.7 3.04-3.53 3.05-3.53 3.05-2.07 1.59-4.23 1.09-5.54 0.37-1.48 0.18-3.67-0.16-5-2.41 0 0-2.94-0.42-3.38-3.88-1.09-0.37-3.09-4.41-0.98-7.2 0 0-1.75-2.07-0.96-5.55 0 0 0.02-1.38 0.78-4.08l0.33 0.33c0.03 1.01-0.72 4.56 1.7 4.8 0.39-1.1 2.09-1.06 2.9-0.11-0.03-0.41 2.62-1.5 4.78 1.21 2.74-1.99 4.98 0.36 4.88 0.66 1.37-0.9 5.07-0.23 5.29 1.46 3.96-0.32 4.4-4.42 4.72-5.62l0.75 0.05c-0.12 1.1-0.15 2.07-0.14 2.85 0.67 0.35 1.58 0.1 1.87-0.29 1.66-1.91 2.9-6.48 2.9-6.48 0.71-3.37-3.35-2.89-3.45-2.43l-1.09 5.11-0.59-0.09c-0.17-1.1-0.53-6.04-0.53-6.04-2.72-0.32-4.44-3.92-3.89-5.08-4.16 3.71-7.9 0.08-7.9 0.08-5.23 5.21-9.62 0.07-9.62 0.07-2.8 3.22-7.81-1.07-6.92-3.66zm7.9 23.6c0 0 1.83 0.73 4.03 1.23 2.23 0.36 3.47 0.18 3.47 0.18 1.85-0.67 2.33-2.18 2.33-2.18-1.92 0.93-9.09 0.29-10.52-1.29 0 0-0.59 1.33 0.69 2.06z"/>
			<path id="&lt;Path&gt;" class="s25" d="m506.74 725.46c-41.03 0-74.3 2.71-74.3 6.05 0 3.34 33.27 6.05 74.3 6.05 41.04 0 74.31-2.71 74.31-6.05 0-3.34-33.27-6.05-74.31-6.05z"/>
			<path id="&lt;Path&gt;" class="s20" d="m485.46 708.17l-0.81 8.87-11.7 0.87-0.72-10.64z"/>
			<path id="&lt;Path&gt;" class="s22" d="m472.57 713.71c-1.67 0.3-2.36 11.99 1.48 14.12 8.01 4.43 7.74 5.57 11.36 11.05 3.72 5.96 15.5 5.78 17.55-1.17 0 0 0.17-2.16-3.08-4.91 0 0-5.38-4.84-8-11.53 0 0-0.16-5.35-3.78-6.66 0 0-3.56-1.39-3.29 0.36 0.38 2.59-11.27 2.68-12.24-1.26z"/>
			<path id="&lt;Path&gt;" class="s20" d="m518.96 706.39l-0.76 8.42-11.12 0.83-0.68-10.11z"/>
			<path id="&lt;Path&gt;" class="s22" d="m506.83 711.95c-1.5 0.38-2.06 12.62 1.37 14.69 5.65 3.41 5.31-2.9 16.87 5.82 0 0 5.12 3.86 11.58 2.03 0 0 4.96-0.65 5.96-5.21 0 0 0.09-2.4-3.14-4.27 0 0-7.91-1.75-12.96-8.03 0 0-1.58-4.58-4.96-5.54 0 0-5.16-0.82-5.29 0.8-0.37 4.82-9.6 1.35-9.43-0.29z"/>
			<path id="&lt;Path&gt;" class="s20" d="m520.58 708.76c0 0-17 2.27-16.66-1.03 1.79-17.28-1.33-37.12 0.97-47.22 1.52-6.68-4.48-14.03-5.23-21.47l-10.9-58.71 33.6 1.2c1.86 13.19 6.98 47.91 3.88 77.42-1.34 12.7-5 34.17-5.66 49.81z"/>
			<path id="&lt;Path&gt;" class="s3" d="m510.15 709.52c-3.44 0-6.37-0.4-6.23-1.79 1.79-17.28-1.33-37.12 0.97-47.22 1.52-6.68-4.48-14.03-5.23-21.47l-7.05-38 15.23-2.17c0 0-0.89 35.85 3.56 54.51 0 0 0.95 32.92-1.25 56.14z"/>
			<path id="&lt;Path&gt;" class="s20" d="m473.08 580.58c-2.72 7.45-4.03 20.42-0.11 34.96-0.43 11.38 3.23 28.82 3.19 39.87-0.03 8.19-6.01 34.15-6.77 54.1 5.15 1.73 12.3 1.75 18.15 0.31 2.67-21.07 6.46-32.88 9.97-51.46 2.01-10.64 3.58-25.19 5.53-35.22 1.77-9.14 3.53-12.31 9.68-19.57 4.7-5.53 10.03-15.54 9.64-22.04z"/>
			<path id="&lt;Path&gt;" class="s3" d="m473.08 580.58c-2.72 7.45-4.03 20.42-0.11 34.96-0.43 11.38 3.23 28.82 3.19 39.87-0.03 8.19-6.01 34.15-6.77 54.1 1.81 0.61 3.85 1 6.01 1.2 2.08-15.94 10.23-55.85 10.23-55.85 0.29-5.03-2.67-42.95-2.67-42.95-2.87-9.17-1.39-22.25 0.22-31.14z"/>
			<path id="&lt;Path&gt;" class="s28" d="m514.46 496.36c0 0 9.15-1.71 16.62 17.11 6.28 15.83 4.16 27.53 4.16 27.53l-17.13-0.21z"/>
			<path id="&lt;Path&gt;" class="s14" d="m509.56 492.9c10.1 2.38 21.18 22.02 12.49 64.79 0 0-4.67 20.48-9.71 25.7l-17.92 2.53c0 0-21.44-0.01-24.94-5.15-1.18-1.73-2.93-4.93-0.48-11.14 7.63-19.37 2.23-59.2 2.83-70.76 2.39-4.06 14.39-8.97 16.73-8.01z"/>
			<path id="&lt;Path&gt;" class="s29" d="m480.24 551.65c0 0 13.93 11.54 19.65 20.81l6.78 7.3-19.56-16.58-16.51-16.03-5.08-21.53 9.19-15.91 4.43-12.53c17.39 14.41-1.24 37.58 1.1 54.47z"/>
			<path id="&lt;Path&gt;" class="s26" d="m499.06 584.62l7.07-6.79c0.61-0.59-1.42-0.95-2.11-1.47-10-7.54-17.62-19.76-26.56-23.88 0.84-4.04 2.03-9.3 1.44-14.79l-16.23-0.76c-0.36 5.59 0.61 11.36 0.79 17.7 8.41 13.6 27.76 17.49 35.6 29.99z"/>
			<path id="&lt;Path&gt;" class="s30" d="m479.34 540.42c1.63-8.94 5.87-18.76 6.02-24.1-0.44-20.08-7.63-22.22-14.28-18.06-3.7 2.32-6.81 7.89-6.82 17.17-0.01 6.54-3.71 14.15-4.65 21.76 7.23 0.39 15.68 0.77 19.73 3.23z"/>
			<path id="&lt;Path&gt;" class="s27" d="m516.03 490.31c0 0-3.71 4.36-0.95 8.7 0 0-1.72 6.24-10.19 5.67-4.54-0.37-16.11-7.94-15.68-13.83 0 0 1.95-0.08 2.44-1.33 0 0 1.84-6.63 0.23-13.88z"/>
			<path id="&lt;Path&gt;" class="s26" d="m522.52 474.22c0 0-2.03 9.45-3.45 13.79 0 0-1.4 3.83-9.23 7.4-0.37 0.17-0.9 0.39-1.22 0.43-1.54 0.18-4.51 0.36-12.45-7.11 0 0-3.21-3.68-4.48-7.18 0 0-7.36-16.42-3.87-21.79 0 0 6.43-9.83 18.76-7.81 0 0 14.56 0.03 15.69 7.39 3.55 7.27 1.83 9.63 0.25 14.88z"/>
			<path id="&lt;Path&gt;" class="s3" d="m534.78 463.65c0 0-5.6 0.14-8.8-2.16 0 0 2.69-0.02 5.51-3.61-9.64 3.13-17.41-21.98-37.71-8.97-0.24-1.22-0.27-2.94 0.36-4.1-2.11 2.03-3.83 4.31-4.2 6.44l-3.13-2.42 0.6 4.89c-8.32 4.22-1.38 18.31 1.03 23.58 0.42 4.31 2.76 6.74 4.45 8.74l-0.25-4.77c-2.94-2.39-5.87-11.4 0.21-8.47 0.6 3.42 0.43 3.25 1.6 6.61l0.75-0.11c-0.26-2.01 0.14-3.78 0.46-5.21 0.66-0.3 3.33-2.68 2.41-6.77 0 0 6.9 2.09 9.62 2.98 0 0-2.22-3.82-2.33-4.46-0.4-2.26 21.65 14.88 29.42-2.19z"/>
			<path id="&lt;Path&gt;" class="s31" d="m485.21 577.97l9.16 5.12 59.06-3.08-8.98-4.6z"/>
			<path id="&lt;Path&gt;" class="s32" d="m485.21 577.97l9.14 4.83 0.17 3.22-8.58-5.75c-0.48-0.32-0.74-0.81-0.74-1.38z"/>
			<path id="&lt;Path&gt;" class="s33" d="m553.42 579.72l-59.07 3.08 0.17 3.22 57.41-2.99c0.91-0.04 1.62-0.83 1.57-1.74z"/>
			<path id="&lt;Path&gt;" class="s32" d="m505.83 542.06l-13.29 40.01 1.83 1.02 15.6-43.39-1.29 0.09c-1.35 0.09-2.43 0.98-2.85 2.27z"/>
			<path id="&lt;Path&gt;" class="s34" d="m563.12 537.44l-53.63 2.28c-0.82 0.04-1.51 0.56-1.77 1.34l-13.78 42.05 59.7-3.11 11.44-40.07c0.18-0.62 0.05-1.24-0.34-1.75-0.4-0.5-0.97-0.76-1.62-0.74z"/>
			<path id="&lt;Path&gt;" class="s33" d="m563.14 537.74l-53.64 2.27c-0.7 0.03-1.28 0.47-1.5 1.14l-13.65 41.65 59.07-3.08 11.38-39.87c0.15-0.53 0.05-1.05-0.29-1.49-0.34-0.43-0.82-0.65-1.37-0.62z"/>
			<path id="&lt;Path&gt;" class="s26" d="m522.45 577.62c0 0 0.18 4.19-1.78 6.35 0 0-4.72 2.13-6.76 3.9-1.97 1.71-8.8-0.63-8.79-0.63 0.01 0-2.37-1.15-0.95-2.7 0.65-0.71 2-1.3 2.82-1.01 6.92 2.45 5.51-4.34 6.94-5.63 1.7-1.54 6.87-2.89 8.52-0.28z"/>
			<path id="&lt;Path&gt;" class="s22" d="m357.84 342.78c0 0 2.83 6.86 1.99 8.97-0.33 0.83 0.85 5.24 0.89 7.51 0.02 0.97-0.85 0.84-1.03 1.02-0.46 0.49-2.49-5.01-2.49-5.01 0 0-1.69-1.86-6.04 9.26 0 0 0.08 5.01-8.39 6.37 0 0-4.1 1.85-7.01-1.17 0 0-1.2-1.8 0.39-4.74 0 0 5.22-5.07 6.13-12.25 0 0 0.91-3.93 4.57-7.92 0 0 2.73-2.24 3.91-1.38 1.17 0.86 7.08-0.66 7.08-0.66z"/>
			<path id="&lt;Path&gt;" class="s22" d="m393.49 354.41c0 0 5.41 7.02 5.8 9.49 0.09 0.61 0.01 1.23-0.17 1.84-0.19 0.65 0.49 5.07 1.03 7.34 0.23 0.99-0.57 0.81-0.7 1.01-0.48 0.69-2.46-4.75-2.46-4.75 0 0-1-1.52-1.07 11.96 0 0 2.12 5.26-6.26 10.13 0 0-3.57 3.61-7.87 1.61 0 0-1.99-1.41-1.51-5.16 0 0 3.45-7.46 1.49-15.4 0 0-0.63-4.52 1.61-10.21 0 0 0.19-4.02 1.27-4.85 3.08-2.4 7.18 0.37 8.84-3.01z"/>
			<path id="&lt;Path&gt;" class="s13" d="m386.02 258.66l-34.07 17.74c-7.81 4.06-10.1 10.53-9.41 19.76 1.09 14.38 6.03 33.67 5.2 48.06 0 0 4.47 0.96 10.88-0.39 0 0 2.57-31.96 1.59-40.59 0 0-1.22-7.6-1.69-8.95l35.62-12.17 11.96-24.15z"/>
			<path id="&lt;Path&gt;" class="s24" d="m353.27 344.52c1.54-0.07 3.35-0.27 5.35-0.69 0 0 2.57-31.96 1.6-40.59 0 0-1.23-7.6-1.7-8.95l35.62-12.17 11.96-24.15-1.31 0.04c-17.14 14.1-36.6 27.72-53.15 33.9 0 0 4.29 31.65 1.63 52.61z"/>
			<path id="&lt;Path&gt;" class="s13" d="m418.83 286.87l-36.75 16.56c0 0 7.98 9.18 12.23 50.93-0.78 1.94-4.91 7.2-10.47 6.43 0 0-13.25-47.5-18.17-53.66-4.31-10.25 2.04-15.09 8.32-20.75l26.75-21.89 1.32-6.24 23.87-9.23c9.66 10.42 12.17 26.75-7.1 37.85z"/>
			<path id="&lt;Path&gt;" class="s24" d="m418.83 286.87l-36.75 16.56c0 0 7.98 9.18 12.23 50.93-0.44 1.1-1.97 3.28-4.23 4.81-1.73-23.18-13.36-57.31-13.8-59.16 7.72-2.93 34.66-13.8 45.65-24.35 7.83-7.52 6.01-17.24 0.56-25.31l3.44-1.33c9.66 10.42 12.17 26.75-7.1 37.85z"/>
			<path id="&lt;Path&gt;" class="s3" d="m413.91 159.45c0 0-9.57-12.06-2.22-15.33 0.8-16.25 41.92-4.76 22.39 29.28-2.18 3.8-7.61 18.2 1.86 18.69-6.73 10.01-32.51-0.85-22.03-32.64z"/>
			<path id="&lt;Path&gt;" class="s26" d="m365.57 188.89c1.59-3.12 3.62-5.78 2.28-9.05 1.85-1.48 0.25-4.16-0.97-5.52-0.53-0.71-4.64-2.19-7.66 1.16-2.06 2.08-3.97 4.59-0.13 12.7 0.73 11.37-4.4 20.11 0.82 32.46 8.56 2.36 25.07-8.25 28.79-8.97 13.46-3.59 12.14-11.76 7.15-16.68-1.34-1.23-19.61 10.43-29.32 16.3 0.94-5.39-1.02-11.27-0.96-22.4z"/>
			<path id="&lt;Path&gt;" class="s14" d="m403.97 190.85c-7.2-4.2-17.07 1.29-20.91 5.21-9.43 9.62-9.99 8.92-14.24 13.47l9.03 10.44 22.02-17.21z"/>
			<path id="&lt;Path&gt;" class="s28" d="m373.74 215.22l4.11 4.75 22.02-17.21 2.94-8.53z"/>
			<path id="&lt;Path&gt;" class="s14" d="m398.98 184.3c-3.08 6.3-25.57 24.38-13.82 35.83 4.87 4.74 3.92 14.97 2.59 24.6 0 0-6.56 9.55-2.04 14.45 5.84 3.13 18.48 1.58 24.72 2.14 0 0 13.51 3.12 17.77-2.82 3.82-5.33 0.62-6.39-0.21-14.02-2.06-19.01 4.89-40.2 4.58-50.82-2.1-3.79-12.09-11.63-14.27-10.8z"/>
			<path id="&lt;Path&gt;" class="s28" d="m384.35 256.66c0.24 0.91 0.67 1.77 1.36 2.52 5.84 3.13 18.48 1.58 24.72 2.14 0 0 13.51 3.12 17.77-2.82 3.82-5.33 0.62-6.39-0.21-14.02-2.06-19.01 4.89-40.2 4.58-50.82-0.4-0.71-1.07-1.56-1.91-2.47-6.18 3.89-10.91 6.87-10.91 6.87 0 0 4.38 17.3 2.88 30.44-0.48 4.25-1.88 7.35-1.25 11.84 2.4 17.33-19.45 19.62-37.03 16.32z"/>
			<path id="&lt;Path&gt;" class="s27" d="m395.02 185.81c0 0 3.61 3.29 1.74 7.25 0 0 2.12 5.09 9.22 3.7 3.8-0.8 12.77-8.44 11.77-13.38 0 0-1.65 0.15-2.2-0.85 0 0-2.27-5.41-1.69-11.72z"/>
			<path id="&lt;Path&gt;" class="s17" d="m419.11 141.69c-3.33-1.26-6.98 0.22-8.14 3.29-1.16 3.08 0.59 6.6 3.92 7.85 3.33 1.26 6.97-0.21 8.14-3.29 1.16-3.08-0.6-6.59-3.92-7.85z"/>
			<path id="&lt;Path&gt;" class="s13" d="m418.33 142.46c-3.77-1.42-7.77-0.08-8.94 3-1.16 3.07 0.95 6.72 4.72 8.15 3.78 1.43 7.78 0.09 8.94-2.99 1.16-3.08-0.95-6.73-4.72-8.16z"/>
			<path id="&lt;Path&gt;" class="s26" d="m420.73 169.85c-1.56-1.55-4.62-1.01-6.84 1.21-2.23 2.23-2.77 5.29-1.21 6.84 1.55 1.56 4.61 1.02 6.84-1.21 2.22-2.22 2.76-5.29 1.21-6.84z"/>
			<path id="&lt;Path&gt;" class="s26" d="m390.59 165.24c0 0-1.08 7.34-0.67 11.39-0.49 2.95 3.87 9.62 6.34 10.48 1.31 0.45 5.29 0.75 13.63-4.25 0 0 3.5-2.61 5.27-5.41 0 0 9.53-12.94 7.51-18.28 0 0-3.08-12.39-14.22-12.96 0 0-12.7-2.74-15.09 3.46-4.48 5.68-3.15 10.69-2.77 15.57z"/>
			<path id="&lt;Path&gt;" class="s15" d="m389.19 169.91c0.59-2.4 0.66-2.83 1.36-5.79 5.33 3.17 16.57 4.27 22.59-2.78-1.82 5.73 1.26 9.03 3.78 10.84l-2.32 6.1 5.82-8.51c6.56-8.04 9.86-20.31-1.19-25.37-13.07-7.98-25.95-1.11-28.87 12.47-0.99 4.59-1.87 12.77-1.17 13.04z"/>
			<path id="&lt;Path&gt;" class="s26" d="m432.91 134.23c-1.73-6.8-12.67-6.47-8.7-10.24-0.89-1.8-1.88-6.15 0.37-7.47 2.97-1.75 12.53-1.4 14.78 5.21 0.79 2.02 1.59 6.57 2.58 10.61 2.2 9.33 15.31 24.68 13.55 39.24-3 3.5-16.56 24.23-24.96 32.95-8.75-1.9-10.32-6.75-8.24-10.33 2.86-4.91 9.89-17.57 20.37-27.24-6.68-11.53-5.71-23.88-9.75-32.73z"/>
			<path id="&lt;Path&gt;" class="s14" d="m419.13 201.39c-0.23-6.61 1.51-12.02 7.42-17.12 1.21-1.99 3.31-4.82 5.63-7.64 4.56 3.33 9.8 7.96 13.11 13.03-4.64 6.25-10.3 11.42-11.92 15.27-5.21 7.86-14.04 2.24-14.24-3.54z"/>
			<path id="&lt;Path&gt;" class="s28" d="m440.29 183.57c1.88 1.91 3.61 3.96 5 6.09-4.64 6.25-10.3 11.42-11.92 15.27-3.79 5.71-9.48 4.31-12.39 0.89 6.77-5.87 14.37-13.64 19.31-22.25z"/>
			<path id="&lt;Path&gt;" class="s22" d="m317.77 121.98c0.48-0.33 1.15-0.21 1.48 0.28l15.54 22.58c0.33 0.48 0.21 1.15-0.27 1.48-0.49 0.33-1.16 0.21-1.49-0.27l-15.54-22.58c-0.33-0.49-0.21-1.15 0.28-1.49z"/>
			<path id="&lt;Path&gt;" class="s22" d="m302.46 140.74c0.26-0.53 0.9-0.76 1.43-0.51l24.74 11.79c0.53 0.25 0.76 0.89 0.51 1.42-0.26 0.53-0.9 0.76-1.43 0.5l-24.74-11.78c-0.53-0.25-0.76-0.89-0.51-1.42z"/>
			<path id="&lt;Path&gt;" class="s22" d="m298.58 164.63c-0.04-0.58 0.4-1.1 0.98-1.15l27.33-2.16c0.58-0.05 1.1 0.39 1.14 0.98 0.05 0.58-0.39 1.1-0.97 1.14l-27.33 2.17c-0.58 0.05-1.1-0.39-1.15-0.98z"/>
			<path id="&lt;Path&gt;" class="s35" d="m374.19 178.4c-0.95 1.3-2.03 2.31-3.67 3.23-0.91 0.23-1.93-0.16-2.65-0.38q-4.13 3.88-8.26 7.75c-1.61-1.23-2.76-2.79-3.08-4.52 1.37-2.19 5.84-3.74 7.83-6.28q-0.05-2.13-0.11-4.25c0.88-0.42 2.21-0.46 3.63-0.05-0.01 1.41 2.5 2.85 6.31 4.5z"/>
			<path id="&lt;Path&gt;" class="s36" d="m375.56 178.9c-0.95 1.31-2.04 2.32-3.68 3.23-0.9 0.23-1.93-0.16-2.65-0.38q-4.13 3.88-8.25 7.75c-1.62-1.23-2.77-2.79-3.09-4.52 1.37-2.19 5.84-3.74 7.84-6.28q-0.06-2.13-0.12-4.25c0.88-0.42 2.21-0.45 3.63-0.05-0.01 1.42 2.5 2.85 6.32 4.5z"/>
			<path id="&lt;Path&gt;" class="s37" d="m356.53 184.48l1.36 0.5c0.2 1.75 1.97 3.67 3.09 4.52l-1.37-0.5c-0.87-0.65-2.77-2.39-3.08-4.52z"/>
			<path id="&lt;Path&gt;" class="s17" d="m382.2 168.86l-11.17-4.71-4.75 11.28 11.17 4.71c2.65 1.12 5.74-0.14 6.86-2.79l0.69-1.63c1.12-2.65-0.14-5.74-2.8-6.86z"/>
			<path id="&lt;Path&gt;" class="s38" d="m368.95 176.65c-12.05-3.74-19.39-1.6-29.32 0.78l14.23-33.75c5.22 8.77 8.82 15.52 19.91 21.53 0 1.88-0.45 4.03-1.35 6.17-0.9 2.14-2.13 3.95-3.47 5.27z"/>
			<path id="&lt;Path&gt;" class="s22" d="m352.19 142.06c-4.17-1.76-10.88 4.72-14.99 14.47-4.11 9.75-4.06 19.08 0.11 20.84 4.17 1.76 10.88-4.72 14.99-14.47 4.11-9.75 4.07-19.08-0.11-20.84z"/>
			<path id="&lt;Path&gt;" class="s20" d="m352.1 142.28c-4.05-1.7-10.62 4.72-14.67 14.35-4.06 9.62-4.07 18.81-0.03 20.51 4.05 1.71 10.62-4.71 14.68-14.34 4.05-9.62 4.06-18.81 0.02-20.52z"/>
			<path id="&lt;Path&gt;" class="s9" d="m351.31 144.16c-3.01-1.27-8.39 4.66-12.01 13.26-3.62 8.59-4.12 16.58-1.11 17.85 3.01 1.27 8.39-4.67 12.01-13.26 3.62-8.59 4.12-16.58 1.11-17.85z"/>
			<path id="&lt;Path&gt;" class="s15" d="m348.54 155.43c-0.04-0.02 0 0-0.01-0.01-1.1-0.44-2.61 1.55-3.76 4.3-1.16 2.75-1.54 5.22-0.45 5.7 0 0-0.04-0.02 0.01 0 0.05 0.02 0.21 0.07 0.32 0.07l3.47 0.84q1.11-2.01 2.08-4.32 1-2.37 1.68-4.63l-3.11-1.81c-0.07-0.06-0.18-0.12-0.23-0.14z"/>
			<path id="&lt;Path&gt;" class="s22" d="m348.41 155.37c-0.85-0.36-2.48 1.59-3.64 4.35-1.17 2.76-1.42 5.29-0.57 5.64 0.84 0.36 2.47-1.59 3.64-4.34 1.16-2.76 1.42-5.29 0.57-5.65z"/>
			<path id="&lt;Compound Path&gt;" fill-rule="evenodd" class="s8" d="m896.24 485.4q0.69-0.85 1.54-1.54l-0.99-2.06c-0.08-0.16-0.02-0.35 0.13-0.44l1.87-1.08c0.15-0.09 0.35-0.05 0.45 0.1l1.3 1.89q1.02-0.39 2.09-0.56l0.18-2.28c0.01-0.18 0.16-0.32 0.34-0.32h2.15c0.18 0 0.33 0.14 0.34 0.32l0.18 2.28q1.08 0.17 2.09 0.56l1.3-1.89c0.1-0.14 0.29-0.19 0.45-0.1l1.86 1.08c0.16 0.09 0.22 0.28 0.14 0.44l-0.99 2.07q0.85 0.68 1.54 1.53l2.06-0.99c0.16-0.08 0.35-0.02 0.44 0.14l1.08 1.86c0.09 0.16 0.04 0.35-0.1 0.45l-1.89 1.3q0.39 1.02 0.56 2.1l2.28 0.17c0.18 0.01 0.32 0.16 0.32 0.34v2.15c0 0.18-0.14 0.33-0.32 0.34l-2.28 0.18q-0.17 1.08-0.57 2.1l1.9 1.29c0.14 0.1 0.19 0.29 0.1 0.45l-1.08 1.87c-0.09 0.15-0.28 0.21-0.44 0.13l-2.07-0.98q-0.68 0.84-1.53 1.52l0.99 2.07c0.08 0.16 0.02 0.35-0.14 0.44l-1.86 1.08c-0.16 0.09-0.35 0.04-0.45-0.1l-1.3-1.9q-1.01 0.4-2.09 0.57l-0.18 2.29c-0.01 0.17-0.16 0.31-0.34 0.31h-2.15c-0.18 0-0.33-0.14-0.34-0.32l-0.18-2.28q-1.07-0.17-2.09-0.56l-1.3 1.89c-0.1 0.14-0.3 0.19-0.45 0.1l-1.87-1.08c-0.15-0.09-0.21-0.28-0.13-0.44l0.99-2.06q-0.85-0.69-1.53-1.53l-2.07 0.98c-0.16 0.08-0.36 0.02-0.44-0.13l-1.08-1.87c-0.09-0.16-0.05-0.35 0.1-0.45l1.89-1.3q-0.39-1.01-0.56-2.09l-2.29-0.18c-0.17-0.01-0.31-0.16-0.31-0.34v-2.15c0-0.18 0.14-0.33 0.31-0.34l2.29-0.17q0.17-1.08 0.56-2.1l-1.89-1.3c-0.15-0.1-0.19-0.29-0.1-0.45l1.08-1.86c0.08-0.16 0.28-0.22 0.44-0.14zm4.17 4.24c-1.22 2.11-0.5 4.8 1.61 6.02 2.1 1.21 4.8 0.49 6.01-1.62 1.22-2.1 0.5-4.79-1.61-6.01-2.11-1.22-4.8-0.5-6.01 1.61z"/>
			<path id="&lt;Compound Path&gt;" fill-rule="evenodd" class="s2" d="m905.73 481.79q1.16 0.17 2.22 0.59l1.33-1.95c0.07-0.11 0.22-0.14 0.33-0.07l1.87 1.08c0.11 0.06 0.16 0.2 0.1 0.32l-1.02 2.14q0.9 0.71 1.62 1.61l2.13-1.02c0.12-0.06 0.26-0.01 0.32 0.1l1.08 1.87c0.07 0.11 0.04 0.25-0.07 0.33l-1.95 1.34q0.42 1.06 0.59 2.21l2.36 0.18c0.13 0.01 0.23 0.12 0.23 0.25v2.15c0 0.13-0.1 0.24-0.23 0.25l-2.36 0.19q-0.18 1.16-0.59 2.21l1.95 1.33c0.1 0.07 0.14 0.22 0.07 0.33l-1.08 1.87c-0.06 0.11-0.2 0.16-0.32 0.1l-2.14-1.01q-0.72 0.89-1.61 1.61l1.02 2.13c0.06 0.12 0.01 0.26-0.1 0.33l-1.87 1.08c-0.11 0.06-0.26 0.03-0.33-0.08l-1.34-1.95q-1.06 0.42-2.21 0.59l-0.18 2.36c-0.01 0.13-0.12 0.23-0.25 0.23h-2.16c-0.13 0-0.24-0.1-0.25-0.23l-0.18-2.36q-1.15-0.17-2.2-0.59l-1.34 1.95c-0.08 0.11-0.22 0.14-0.34 0.08l-1.86-1.08c-0.12-0.07-0.16-0.21-0.1-0.33l1.02-2.13q-0.9-0.72-1.62-1.61l-2.13 1.01c-0.12 0.06-0.26 0.01-0.33-0.1l-1.08-1.87c-0.06-0.11-0.03-0.26 0.08-0.33l1.95-1.33q-0.42-1.05-0.59-2.21l-2.36-0.19c-0.13-0.01-0.23-0.12-0.23-0.25v-2.15c0-0.13 0.1-0.24 0.23-0.25l2.36-0.18q0.17-1.15 0.58-2.21l-1.94-1.34c-0.11-0.08-0.14-0.22-0.08-0.33l1.08-1.87c0.07-0.11 0.21-0.16 0.33-0.1l2.13 1.02q0.71-0.9 1.61-1.61l-1.01-2.14c-0.06-0.12-0.02-0.26 0.1-0.32l1.86-1.08c0.12-0.07 0.26-0.04 0.34 0.07l1.33 1.95q1.05-0.42 2.21-0.59l0.18-2.36c0.01-0.13 0.12-0.23 0.25-0.23h2.16c0.13 0 0.24 0.1 0.25 0.23zm-6 10.06c0 2.48 2.02 4.49 4.5 4.49 2.48 0 4.49-2.01 4.49-4.49 0-2.48-2.01-4.49-4.49-4.49-2.48 0-4.5 2.01-4.5 4.49z"/>
			<path id="&lt;Compound Path&gt;" fill-rule="evenodd" class="s8" d="m898.15 488.49c0.94-1.61 2.46-2.78 4.26-3.26 1.8-0.48 3.7-0.23 5.32 0.7 1.61 0.93 2.78 2.45 3.26 4.25 0.48 1.8 0.23 3.7-0.7 5.32-0.93 1.61-2.45 2.78-4.25 3.26-1.8 0.49-3.71 0.24-5.32-0.7-1.61-0.93-2.78-2.45-3.26-4.25-0.49-1.8-0.24-3.7 0.69-5.32zm4.7-1.6c-1.36 0.36-2.5 1.24-3.21 2.46-0.7 1.22-0.89 2.66-0.53 4.01 0.37 1.36 1.25 2.51 2.47 3.22 1.22 0.7 2.65 0.89 4.01 0.52 1.36-0.36 2.51-1.24 3.21-2.46 0.71-1.22 0.89-2.65 0.53-4.01-0.36-1.36-1.24-2.51-2.46-3.21-1.22-0.71-2.66-0.9-4.02-0.53z"/>
			<path id="&lt;Compound Path&gt;" fill-rule="evenodd" class="s39" d="m904.22 484.94c1.91 0 3.63 0.78 4.88 2.03 1.25 1.24 2.02 2.97 2.02 4.88 0 1.9-0.77 3.63-2.02 4.87-1.25 1.25-2.97 2.03-4.88 2.03-1.9 0-3.63-0.78-4.88-2.03-1.25-1.24-2.02-2.97-2.02-4.87 0-1.91 0.77-3.64 2.02-4.88 1.25-1.25 2.98-2.03 4.88-2.03zm3.82 3.09c-0.98-0.98-2.33-1.58-3.82-1.58-1.49 0-2.84 0.6-3.81 1.58-0.98 0.98-1.58 2.33-1.58 3.82 0 1.49 0.6 2.83 1.58 3.81 0.97 0.97 2.32 1.58 3.81 1.58 1.49 0 2.84-0.61 3.82-1.58 0.97-0.98 1.58-2.32 1.58-3.81 0-1.49-0.61-2.84-1.58-3.82z"/>
			<path id="&lt;Compound Path&gt;" fill-rule="evenodd" class="s8" d="m900.33 489.6c1.24-2.15 3.99-2.88 6.14-1.64 2.15 1.23 2.88 3.98 1.64 6.13-1.24 2.15-3.98 2.88-6.13 1.64-2.15-1.24-2.89-3.98-1.65-6.13zm8.22 2.25c0-2.4-1.94-4.34-4.33-4.34-2.39 0-4.33 1.94-4.33 4.34 0 2.39 1.94 4.33 4.33 4.33 2.39 0 4.33-1.94 4.33-4.33z"/>
			<path id="&lt;Compound Path&gt;" fill-rule="evenodd" class="s8" d="m770.27 263.06q1.23-1.53 2.76-2.76l-1.78-3.69c-0.14-0.29-0.03-0.64 0.25-0.79l3.34-1.93c0.27-0.16 0.62-0.08 0.8 0.18l2.34 3.38q1.82-0.69 3.74-1l0.31-4.09c0.02-0.32 0.29-0.56 0.61-0.56h3.86c0.31 0 0.58 0.24 0.6 0.56l0.33 4.09q1.92 0.3 3.74 1.01l2.32-3.39c0.18-0.26 0.53-0.34 0.8-0.18l3.35 1.93c0.27 0.16 0.38 0.5 0.24 0.78l-1.77 3.71q1.52 1.23 2.75 2.75l3.69-1.78c0.29-0.14 0.63-0.03 0.79 0.24l1.93 3.35c0.16 0.27 0.08 0.62-0.18 0.8l-3.39 2.33q0.7 1.82 1.01 3.75l4.09 0.31c0.32 0.02 0.56 0.28 0.56 0.6v3.86c0 0.32-0.24 0.58-0.56 0.61l-4.09 0.33q-0.31 1.92-1.01 3.74l3.39 2.31c0.26 0.18 0.34 0.53 0.18 0.81l-1.93 3.34c-0.16 0.28-0.5 0.38-0.79 0.25l-3.71-1.77q-1.22 1.51-2.73 2.73l1.77 3.71c0.14 0.29 0.03 0.63-0.24 0.79l-3.35 1.93c-0.27 0.16-0.62 0.08-0.8-0.18l-2.32-3.39q-1.82 0.7-3.74 1l-0.33 4.1c-0.02 0.32-0.29 0.56-0.6 0.56h-3.86c-0.32 0-0.59-0.25-0.61-0.56l-0.31-4.09q-1.93-0.3-3.75-1.01l-2.33 3.39c-0.18 0.26-0.53 0.34-0.8 0.18l-3.34-1.93c-0.28-0.16-0.39-0.5-0.25-0.79l1.78-3.7q-1.52-1.22-2.75-2.74l-3.7 1.77c-0.29 0.13-0.63 0.03-0.79-0.25l-1.93-3.34c-0.16-0.28-0.08-0.63 0.18-0.81l3.39-2.31q-0.7-1.82-1-3.74l-4.1-0.33c-0.32-0.03-0.56-0.29-0.56-0.61v-3.86c0-0.31 0.25-0.58 0.56-0.6l4.09-0.31q0.3-1.93 1-3.75l-3.38-2.33c-0.26-0.18-0.34-0.53-0.18-0.8l1.93-3.35c0.16-0.27 0.5-0.38 0.79-0.24zm7.46 7.59c-2.18 3.77-0.88 8.6 2.89 10.77 3.77 2.18 8.59 0.89 10.76-2.88 2.18-3.77 0.89-8.59-2.88-10.77-3.77-2.18-8.59-0.89-10.77 2.88z"/>
			<path id="&lt;Compound Path&gt;" fill-rule="evenodd" class="s2" d="m787.26 256.59q2.08 0.31 3.98 1.06l2.38-3.49c0.13-0.2 0.39-0.25 0.59-0.14l3.35 1.93c0.2 0.12 0.28 0.37 0.18 0.59l-1.82 3.82q1.61 1.29 2.89 2.9l3.81-1.84c0.21-0.1 0.47-0.02 0.58 0.18l1.94 3.35c0.11 0.2 0.05 0.46-0.14 0.59l-3.48 2.4q0.74 1.89 1.05 3.96l4.22 0.31c0.23 0.02 0.41 0.22 0.41 0.45v3.86c0 0.24-0.18 0.43-0.41 0.45l-4.22 0.34q-0.31 2.06-1.06 3.95l3.49 2.38c0.19 0.14 0.25 0.4 0.13 0.6l-1.93 3.34c-0.11 0.21-0.37 0.29-0.58 0.19l-3.82-1.83q-1.29 1.61-2.9 2.9l1.84 3.81c0.1 0.21 0.02 0.47-0.18 0.58l-3.35 1.93c-0.2 0.12-0.46 0.06-0.59-0.13l-2.4-3.49q-1.89 0.75-3.96 1.06l-0.32 4.21c-0.01 0.24-0.21 0.42-0.45 0.42h-3.86c-0.23 0-0.43-0.18-0.44-0.41l-0.34-4.22q-2.06-0.31-3.94-1.06l-2.4 3.49c-0.13 0.19-0.39 0.25-0.59 0.13l-3.35-1.93c-0.2-0.11-0.28-0.37-0.18-0.58l1.84-3.81q-1.61-1.29-2.9-2.9l-3.82 1.83c-0.21 0.1-0.47 0.02-0.58-0.19l-1.94-3.34c-0.11-0.2-0.05-0.46 0.14-0.6l3.49-2.38q-0.75-1.89-1.06-3.95l-4.22-0.34c-0.23-0.02-0.41-0.21-0.41-0.45v-3.86c0-0.23 0.18-0.43 0.41-0.45l4.22-0.31q0.31-2.07 1.05-3.96l-3.48-2.4c-0.19-0.13-0.25-0.39-0.14-0.59l1.93-3.35c0.12-0.2 0.38-0.28 0.59-0.18l3.81 1.84q1.28-1.61 2.89-2.9l-1.82-3.82c-0.1-0.22-0.02-0.47 0.18-0.59l3.35-1.93c0.2-0.11 0.46-0.06 0.59 0.14l2.39 3.49q1.88-0.75 3.95-1.06l0.34-4.22c0.01-0.24 0.21-0.41 0.44-0.41h3.86c0.24 0 0.44 0.18 0.45 0.41zm-10.73 18.01c0 4.44 3.6 8.04 8.04 8.04 4.44 0 8.04-3.6 8.04-8.04 0-4.44-3.6-8.04-8.04-8.04-4.44 0-8.04 3.6-8.04 8.04z"/>
			<path id="&lt;Compound Path&gt;" fill-rule="evenodd" class="s8" d="m773.7 268.59c1.67-2.89 4.39-4.98 7.62-5.84 3.22-0.87 6.63-0.42 9.52 1.25 2.89 1.67 4.98 4.39 5.84 7.62 0.86 3.22 0.42 6.62-1.25 9.51-1.67 2.9-4.4 4.99-7.62 5.85-3.22 0.86-6.63 0.42-9.52-1.25-2.89-1.67-4.98-4.4-5.84-7.62-0.87-3.22-0.42-6.63 1.25-9.52zm8.41-2.87c-2.43 0.65-4.48 2.23-5.74 4.41-1.26 2.18-1.6 4.75-0.95 7.18 0.65 2.44 2.23 4.49 4.41 5.75 2.18 1.26 4.75 1.6 7.19 0.95 2.43-0.65 4.48-2.23 5.74-4.41 1.26-2.19 1.6-4.75 0.95-7.19-0.65-2.43-2.23-4.49-4.41-5.75-2.18-1.26-4.75-1.59-7.19-0.94z"/>
			<path id="&lt;Compound Path&gt;" fill-rule="evenodd" class="s39" d="m784.57 262.24c3.41 0 6.5 1.38 8.73 3.62 2.24 2.23 3.62 5.32 3.62 8.73 0 3.41-1.38 6.5-3.62 8.74-2.23 2.23-5.32 3.62-8.73 3.62-3.42 0-6.51-1.39-8.74-3.62-2.24-2.24-3.62-5.33-3.62-8.74 0-3.41 1.38-6.5 3.62-8.73 2.23-2.24 5.32-3.62 8.74-3.62zm6.82 5.52c-1.74-1.74-4.16-2.82-6.82-2.82-2.67 0-5.09 1.08-6.83 2.82-1.75 1.75-2.83 4.17-2.83 6.83 0 2.67 1.08 5.08 2.83 6.83 1.74 1.75 4.16 2.83 6.83 2.83 2.66 0 5.08-1.08 6.82-2.83 1.75-1.75 2.83-4.16 2.83-6.83 0-2.66-1.08-5.08-2.83-6.83z"/>
			<path id="&lt;Compound Path&gt;" fill-rule="evenodd" class="s8" d="m777.6 270.57c2.22-3.84 7.14-5.16 10.99-2.94 3.84 2.22 5.16 7.14 2.94 10.98-2.22 3.85-7.14 5.17-10.99 2.95-3.84-2.22-5.16-7.14-2.94-10.99zm14.72 4.02c0-4.28-3.47-7.75-7.75-7.75-4.29 0-7.76 3.47-7.76 7.75 0 4.29 3.47 7.76 7.76 7.76 4.28 0 7.75-3.47 7.75-7.76z"/>
			<path id="&lt;Compound Path&gt;" fill-rule="evenodd" class="s8" d="m914.01 292.89q0.78-0.97 1.74-1.75l-1.12-2.35c-0.09-0.18-0.02-0.4 0.15-0.5l2.12-1.22c0.18-0.1 0.4-0.05 0.51 0.12l1.48 2.14q1.15-0.44 2.38-0.63l0.19-2.6c0.02-0.2 0.18-0.35 0.39-0.35h2.44c0.2 0 0.37 0.15 0.39 0.35l0.2 2.6q1.23 0.19 2.38 0.64l1.47-2.15c0.11-0.17 0.33-0.22 0.51-0.12l2.12 1.22c0.17 0.11 0.24 0.32 0.15 0.5l-1.12 2.36q0.97 0.77 1.74 1.74l2.35-1.13c0.18-0.09 0.4-0.02 0.5 0.15l1.22 2.12c0.1 0.18 0.05 0.4-0.11 0.51l-2.15 1.48q0.44 1.16 0.63 2.38l2.6 0.19c0.2 0.02 0.36 0.19 0.36 0.39v2.45c0 0.2-0.16 0.36-0.36 0.38l-2.6 0.21q-0.19 1.22-0.63 2.37l2.14 1.47c0.17 0.11 0.22 0.33 0.12 0.51l-1.22 2.12c-0.1 0.17-0.32 0.24-0.5 0.15l-2.36-1.12q-0.77 0.96-1.73 1.74l1.12 2.35c0.09 0.18 0.02 0.4-0.15 0.5l-2.12 1.22c-0.18 0.1-0.4 0.05-0.51-0.11l-1.47-2.15q-1.15 0.44-2.37 0.63l-0.21 2.6c-0.02 0.2-0.18 0.36-0.39 0.36h-2.44c-0.2 0-0.37-0.16-0.39-0.36l-0.19-2.59q-1.23-0.19-2.38-0.64l-1.48 2.15c-0.11 0.16-0.33 0.21-0.51 0.11l-2.12-1.22c-0.17-0.1-0.24-0.32-0.15-0.5l1.12-2.35q-0.96-0.77-1.74-1.73l-2.35 1.11c-0.18 0.09-0.4 0.02-0.5-0.15l-1.22-2.12c-0.1-0.18-0.05-0.4 0.12-0.51l2.14-1.47q-0.44-1.15-0.63-2.37l-2.6-0.21c-0.2-0.02-0.36-0.18-0.36-0.38v-2.45c0-0.2 0.16-0.37 0.36-0.39l2.59-0.19q0.19-1.22 0.64-2.38l-2.15-1.48c-0.16-0.11-0.21-0.33-0.11-0.51l1.22-2.12c0.1-0.17 0.32-0.24 0.5-0.15zm4.74 4.81c-1.38 2.39-0.57 5.45 1.83 6.83 2.39 1.38 5.44 0.56 6.82-1.83 1.38-2.39 0.57-5.45-1.83-6.83-2.39-1.38-5.44-0.56-6.82 1.83z"/>
			<path id="&lt;Compound Path&gt;" fill-rule="evenodd" class="s2" d="m924.78 288.78q1.32 0.2 2.52 0.68l1.51-2.22c0.08-0.12 0.25-0.16 0.38-0.08l2.12 1.22c0.13 0.08 0.18 0.24 0.11 0.37l-1.15 2.43q1.02 0.81 1.83 1.83l2.42-1.16c0.13-0.07 0.3-0.02 0.37 0.11l1.22 2.12c0.08 0.13 0.04 0.3-0.08 0.38l-2.21 1.52q0.47 1.2 0.67 2.51l2.67 0.2c0.15 0.01 0.27 0.14 0.27 0.29v2.45c0 0.15-0.12 0.27-0.27 0.28l-2.67 0.21q-0.2 1.31-0.67 2.51l2.21 1.51c0.12 0.09 0.16 0.25 0.08 0.38l-1.22 2.12c-0.07 0.13-0.24 0.18-0.37 0.11l-2.43-1.15q-0.81 1.02-1.83 1.83l1.16 2.42c0.07 0.14 0.02 0.3-0.11 0.37l-2.12 1.23c-0.13 0.07-0.3 0.03-0.38-0.09l-1.52-2.21q-1.2 0.47-2.51 0.67l-0.2 2.67c-0.01 0.15-0.14 0.27-0.29 0.27h-2.44c-0.15 0-0.28-0.12-0.29-0.27l-0.21-2.67q-1.31-0.2-2.5-0.67l-1.52 2.21c-0.08 0.12-0.25 0.16-0.38 0.09l-2.12-1.23c-0.13-0.07-0.18-0.23-0.11-0.37l1.16-2.42q-1.02-0.81-1.84-1.83l-2.42 1.15c-0.13 0.07-0.3 0.02-0.37-0.11l-1.22-2.12c-0.08-0.13-0.04-0.29 0.08-0.38l2.21-1.51q-0.47-1.2-0.67-2.51l-2.67-0.21c-0.15-0.01-0.27-0.13-0.27-0.28v-2.45c0-0.15 0.12-0.28 0.27-0.29l2.67-0.2q0.2-1.31 0.67-2.51l-2.21-1.52c-0.12-0.08-0.16-0.25-0.08-0.38l1.22-2.12c0.07-0.13 0.24-0.18 0.37-0.11l2.42 1.16q0.81-1.02 1.83-1.83l-1.15-2.43c-0.07-0.13-0.02-0.29 0.11-0.37l2.12-1.22c0.13-0.08 0.3-0.04 0.38 0.08l1.51 2.22q1.2-0.48 2.51-0.68l0.21-2.67c0.01-0.15 0.14-0.26 0.29-0.26h2.44c0.15 0 0.28 0.11 0.29 0.26zm-6.81 11.42c0 2.81 2.28 5.1 5.1 5.1 2.81 0 5.1-2.29 5.1-5.1 0-2.82-2.29-5.1-5.1-5.1-2.82 0-5.1 2.28-5.1 5.1z"/>
			<path id="&lt;Compound Path&gt;" fill-rule="evenodd" class="s8" d="m916.18 296.4c1.06-1.84 2.79-3.16 4.83-3.71 2.05-0.55 4.2-0.26 6.04 0.79 1.83 1.06 3.16 2.79 3.7 4.83 0.55 2.05 0.27 4.21-0.79 6.04-1.06 1.83-2.79 3.16-4.83 3.71-2.05 0.54-4.2 0.26-6.04-0.8-1.83-1.06-3.16-2.78-3.7-4.83-0.55-2.04-0.27-4.2 0.79-6.03zm5.34-1.83c-1.55 0.42-2.85 1.42-3.65 2.8-0.8 1.38-1.01 3.01-0.6 4.56 0.41 1.54 1.41 2.84 2.8 3.64 1.38 0.8 3.01 1.02 4.55 0.6 1.55-0.41 2.85-1.41 3.65-2.8 0.8-1.38 1.01-3.01 0.6-4.55-0.41-1.54-1.41-2.85-2.8-3.65-1.38-0.8-3.01-1.01-4.55-0.6z"/>
			<path id="&lt;Compound Path&gt;" fill-rule="evenodd" class="s39" d="m923.07 292.37c2.16 0 4.12 0.87 5.54 2.29 1.42 1.42 2.29 3.38 2.29 5.54 0 2.16-0.87 4.12-2.29 5.54-1.42 1.42-3.38 2.3-5.54 2.3-2.16 0-4.12-0.88-5.54-2.3-1.42-1.42-2.29-3.38-2.29-5.54 0-2.16 0.87-4.12 2.29-5.54 1.42-1.42 3.38-2.29 5.54-2.29zm4.33 3.5c-1.11-1.11-2.64-1.79-4.33-1.79-1.69 0-3.22 0.68-4.33 1.79-1.11 1.11-1.79 2.64-1.79 4.33 0 1.69 0.68 3.22 1.79 4.33 1.11 1.11 2.64 1.79 4.33 1.79 1.69 0 3.22-0.68 4.33-1.79 1.11-1.11 1.79-2.64 1.79-4.33 0-1.69-0.68-3.22-1.79-4.33z"/>
			<path id="&lt;Compound Path&gt;" fill-rule="evenodd" class="s8" d="m918.65 297.65c1.41-2.44 4.53-3.27 6.97-1.86 2.44 1.4 3.27 4.52 1.87 6.96-1.41 2.44-4.53 3.28-6.97 1.87-2.44-1.41-3.27-4.53-1.87-6.97zm9.34 2.55c0-2.72-2.2-4.92-4.92-4.92-2.72 0-4.92 2.2-4.92 4.92 0 2.72 2.2 4.92 4.92 4.92 2.72 0 4.92-2.2 4.92-4.92z"/>
		</g>
	</g>
</svg>