<svg version="1.2" xmlns="http://www.w3.org/2000/svg" viewBox="0 0 1444 1367" width="1444" height="1367">
	<defs>
		<clipPath clipPathUnits="userSpaceOnUse" id="cp1">
			<path d="m164.17 204.22h1280v800h-1280z"/>
		</clipPath>
		<clipPath clipPathUnits="userSpaceOnUse" id="cp2">
			<path d="m827.26 444.22c16.91-70.15 69.55-121.84 133.1-128.7 5.06-0.55 9.77-0.8 14.08-0.86 168.54-2.33 357.2 278.72 283.4 481.48-34.74 95.47-128.29 175.3-221.74 177.95-114.33 3.26-138.32-111.59-257.16-107.63-106.48 3.54-133.87 97.31-242.77 80.76-15.21-2.31-94.87-14.43-126-83.73-19.76-44.07-17.77-106.54 7.88-151 65.17-113 235.4-27.1 345.07-142 34.42-36.1 53.48-82.01 64.14-126.27z"/>
		</clipPath>
	</defs>
	<style>
		.s0 { fill: #e3eeff } 
		.s1 { fill: #353b6e } 
		.s2 { fill: #ff90c6 } 
		.s3 { fill: #808bd1 } 
		.s4 { fill: #aacef2 } 
		.s5 { fill: #404884 } 
		.s6 { fill: #fd9ecc } 
		.s7 { fill: #ffffff } 
		.s8 { fill: #c9e3f4 } 
		.s9 { fill: #a7cdf2 } 
		.s10 { fill: #ac7dfd } 
		.s11 { fill: #ff73b7 } 
		.s12 { fill: #423565 } 
		.s13 { fill: #ffd5c0 } 
	</style>
	<g id="Layer 1">
		<g id="Layer 2 1 ">
			<g id="Vela UI Temaplates">
				<g id="Stats - Web">
					<g id="&lt;Clip Group&gt;" clip-path="url(#cp1)">
						<g id="&lt;Group&gt;">
							<g id="Stats - Web-2">
								<g id="Background-8">
									<path id="Path 700" class="s0" d="m1266.96 848.03c124.3 67.66 180.37 174 137.82 267.57q-4.77 10.48-10.74 20.32c-144.36 238.29-869 327.54-1206.28 97-158.78-108.6-234.59-290-157.21-422.98 94.62-162.72 343.83-124.53 441.02-294 87.08-151.85-74.83-249 54.27-391.62 18-19.93 112.52-124.29 277.56-124.6 104.94-0.2 227.19 41.69 292.83 105.57 166.81 162.33-154.28 347.75-23.06 573.79 41.13 70.79 115.4 126.29 193.79 168.95z"/>
								</g>
								<g id="Plant-5">
									<g id="Group 390">
										<path id="Path 701" class="s1" d="m579.17 895.99c0 0 33.91-20.25 82.9 0l-41 49.46z"/>
									</g>
									<path id="Path 702" class="s2" d="m613.36 887.75c-3.49-40.22-29.6-67.68-52.29-98-20.3-27.23-37.81-56.42-52.28-87.15-18.93 36.25-15.92 54.8-9.9 65 8.79 14.9 24.28 12.5 31.56 28.26 10.6 22.94-12.78 48.47-2.82 57.94 8.44 8 28.65-7.11 38.15 2.35 7.28 7.26-0.14 20.6 8 26.85 6.21 4.77 12.52-1.47 21.2 2.83 12.6 6.23 13.2 26.26 16 25.91 2.1-0.23 3.48-11.35 2.38-23.99z"/>
									<path id="Path 703" class="s3" d="m619.86 916.71c-38.45-83.02-44.16-177.49-16-264.54-7.34 32.66-1.49 52.58 5.18 64.71 8 14.56 16.45 16.62 19.78 30.75 5 21.33-11.28 29.12-10.05 52.76 1.24 23.93 18.61 28.23 23.21 51.19 2.71 13.71 1.07 34.87-22.12 65.13z"/>
									<path id="Path 704" class="s4" d="m626.55 911.3c-11.92-71.71 0.52-145.34 35.33-209.15-7.08 26-4.21 44.33 0 56.53 6.72 19.48 17.56 25.4 15.54 40.51-2.08 15.56-14.69 17.54-17 36.74-1.59 13.46 4.15 16.45 0 25.91-4.73 10.8-14.74 12.68-16 23.55-0.65 5.57 1.73 7.2 0.47 11.78-2.08 7.64-11.1 11.81-18.34 14.13z"/>
									<path id="Path 705" class="s5" d="m579.17 895.99c0 0 33 17 82.9 0l-9.38 78.23h-60.29z"/>
								</g>
								<g id="Browser-6">
									<path id="Path 706" class="s5" d="m701.07 364.59h353.63c13.32 0 24.12 11.86 24.12 26.5v221.06c0 14.63-10.8 26.5-24.12 26.5h-353.63c-13.32 0-24.12-11.86-24.12-26.5v-221.06c0-14.64 10.8-26.5 24.12-26.5z"/>
								</g>
								<g id="Plants-4">
									<path id="Path 707" class="s4" d="m590.66 408.97c0 0 47.73 122.62 163.38 123.25 0.01 0-22.42-103.78-163.38-123.25z"/>
									<path id="Path 708" class="s4" d="m723.57 524.81c0 0 38.56-106-73.84-202.75 0 0-27 137.22 73.84 202.75z"/>
								</g>
								<g id="Plants-5">
									<path id="Path 709" class="s6" d="m1088.66 540.3c0 0-22.91-45.16 5.94-73.47 28.85-28.31 25.05-29.75 29.58-50.35 4.53-20.6 12.75-41.25 31.16-44.88 18.41-3.63 11.15-20.48 35.78-17.8 0 0-19.62 30.38-16.93 47.86 2.69 17.48-4 47.67-17.12 58.92-13.12 11.25-32 27.36-33.63 50.34-1.63 22.98-24.95 31.19-34.78 29.38z"/>
									<path id="Path 710" class="s7" d="m1090.41 551.29c-0.75-9.67 0.08-19.39 2.44-28.79 1.19-4.68 2.83-9.23 4.89-13.59l0.77-1.63c0.26-0.55 0.57-1.06 0.85-1.59l0.87-1.59 0.43-0.79q0.23-0.39 0.48-0.77l1.92-3.05q0.98-1.5 2.14-2.88c0.76-0.91 1.6-1.79 2.42-2.68q1.23-1.33 2.45-2.7c1.62-1.81 3.19-3.66 4.76-5.51q4.7-5.53 9.37-11.1c3.1-3.73 6.18-7.48 9.16-11.31q4.52-5.74 8.41-11.92l0.95-1.56q0.46-0.79 0.9-1.6 0.46-0.8 0.87-1.6l0.82-1.64 0.41-0.82 0.37-0.84 0.74-1.68c0.24-0.56 0.44-1.13 0.67-1.71 0.23-0.58 0.45-1.13 0.63-1.72 1.63-4.62 2.6-9.45 2.86-14.35q0.14-3.68-0.29-7.33c-0.25-2.43-0.66-4.82-0.88-7.21q-0.16-1.78-0.15-3.57 0.04-1.78 0.34-3.54 0.3-1.76 0.86-3.45 0.57-1.7 1.33-3.32c2.14-4.31 4.9-8.29 8.19-11.8 3.19-3.63 6.56-7.11 9.92-10.6 3.36-3.49 6.72-7 10.12-10.42 3.4-3.42 6.87-6.83 10.37-10.18q-5.39 4.89-10.58 10c-3.47 3.39-6.89 6.82-10.32 10.24q-2.55 2.58-5.09 5.2-2.52 2.61-5 5.32c-1.65 1.81-3.19 3.66-4.65 5.62q-2.2 2.96-3.8 6.28-0.8 1.66-1.41 3.4-0.58 1.76-0.93 3.58-0.32 1.83-0.36 3.69-0.03 1.84 0.14 3.68c0.22 2.44 0.61 4.83 0.85 7.22q0.41 3.58 0.26 7.18c-0.28 4.78-1.25 9.49-2.86 14-1.61 4.53-3.72 8.87-6.29 12.93q-3.84 6.14-8.31 11.84c-2.95 3.83-6 7.58-9.09 11.31q-4.64 5.58-9.33 11.14-2.33 2.78-4.71 5.51-1.2 1.36-2.41 2.71c-0.81 0.9-1.64 1.79-2.42 2.74q-1.17 1.44-2.16 3l-1.91 3.11q-0.25 0.39-0.47 0.78l-0.43 0.81-0.86 1.61c-0.28 0.54-0.59 1.07-0.84 1.62l-0.77 1.66c-2.03 4.42-3.63 9.03-4.78 13.76q-1.69 7.11-2.14 14.4l-0.1 1.82q0 0.9 0 1.82 0 1.81 0 3.63 0.02 3.61 0.38 7.23z"/>
									<path id="Path 711" class="s4" d="m1040.98 584.79c0 0 1.26-35.37 38.66-49.85 37.4-14.48 62.26-20.93 73.61-48.94 11.35-28.01 24-43.45 43-48.58 19-5.13 19.39-12.11 34-16 14.61-3.89 38.46-2.34 38.46-2.34 0 0-43.93 20.49-52.3 48.41-8.37 27.92-21 44.86-41.59 55.6-20.59 10.74-36 47.14-74.24 48.42-38.24 1.28-59.6 13.28-59.6 13.28z"/>
									<path id="Path 712" class="s7" d="m1039.05 589.52c2.66-5.69 5.95-11.06 9.83-16 3.88-4.92 8.43-9.28 13.52-12.94 1.29-0.88 2.57-1.79 3.91-2.59q2.01-1.21 4.1-2.27 4.22-2.06 8.64-3.64l17.65-6.52c5.89-2.18 11.77-4.37 17.62-6.64q4.4-1.69 8.75-3.47c2.9-1.2 5.8-2.43 8.63-3.81 5.62-2.85 10.94-6.25 15.89-10.16 0.63-0.46 1.22-1 1.83-1.49l1.81-1.51 1.76-1.58q0.88-0.79 1.73-1.6c1.13-1.09 2.27-2.18 3.35-3.32 0.55-0.57 1.11-1.12 1.64-1.7l1.59-1.74c4.23-4.67 8.07-9.65 11.82-14.68 3.75-5.03 7.5-10.09 10.73-15.49 1.64-2.69 3.11-5.48 4.47-8.31 1.36-2.83 2.6-5.72 4-8.51 2.83-5.57 6.53-10.66 10.95-15.08 4.4-4.46 9.34-8.34 14.71-11.55 5.38-3.2 11.05-5.87 16.94-8l2.2-0.83 2.23-0.72 2.24-0.73c0.75-0.23 1.49-0.49 2.25-0.68l4.54-1.24 1.13-0.3 1.15-0.26 2.29-0.51 2.3-0.52 1.15-0.25 1.15-0.21 4.63-0.84c1.54-0.3 3.1-0.48 4.65-0.71l4.66-0.65-4.67 0.61c-1.55 0.21-3.11 0.37-4.65 0.66l-4.64 0.79-1.16 0.2q-0.58 0.11-1.15 0.24l-2.31 0.49-2.3 0.5-1.15 0.24-1.13 0.3-4.56 1.18c-0.76 0.19-1.51 0.44-2.26 0.67l-2.25 0.7-2.25 0.7-2.21 0.81c-5.93 2.12-11.65 4.8-17.07 8-5.43 3.2-10.43 7.08-14.89 11.54-4.49 4.44-8.25 9.57-11.12 15.2-1.43 2.81-2.66 5.7-4 8.51q-2.01 4.23-4.46 8.25c-3.22 5.35-7 10.37-10.72 15.41-3.72 5.04-7.59 10-11.8 14.6l-1.57 1.69q-0.8 0.86-1.62 1.7c-1.07 1.13-2.2 2.21-3.33 3.3q-0.83 0.82-1.72 1.59l-1.74 1.57-1.79 1.51c-0.61 0.49-1.19 1-1.82 1.48-4.9 3.88-10.17 7.27-15.74 10.11-2.81 1.37-5.69 2.6-8.58 3.8q-4.34 1.79-8.74 3.49-8.76 3.39-17.57 6.7l-17.62 6.62q-4.43 1.62-8.67 3.71-2.1 1.06-4.11 2.31c-1.35 0.82-2.63 1.73-3.92 2.63-5.07 3.73-9.6 8.15-13.45 13.13-3.84 4.98-7.09 10.39-9.7 16.11z"/>
									<path id="Path 713" class="s6" d="m1113.34 580.48c8.62-11.13 25.77-20.38 49-16.11 23.23 4.27 38.63-9.15 47.56-21.55 8.93-12.4 30.27-25.84 30.27-25.84q0.01 0-0.71 0h-0.3q-9.39-0.1-18.68-1.42c-13.35-1.72-24.2 11.07-36.19 10-11.5-1.15-23.1 0.8-33.58 5.66-11.25 4.95-19.35 6.79-39.58 2.32-20.23-4.47-48.29 26.53-48.29 26.53q-0.28 1.8-0.4 3.47v0.1c-2.05 31.97 42.33 27.95 50.9 16.84z"/>
									<path id="Path 714" class="s7" d="m1062.44 563.62q8.89-0.17 17.73-1.19c8.14-0.95 16.21-2.48 24.13-4.6 4-1.05 7.88-2.28 11.76-3.59 3.88-1.31 7.74-2.62 11.68-3.67q5.9-1.58 12-2.61 6.03-1.06 12.13-1.5c2-0.12 4.07-0.16 6.11-0.14q3.07 0.04 6.17-0.1 3.08-0.24 6.11-0.88c1-0.2 2-0.45 3-0.68l3-0.8q5.94-1.73 11.48-4.48c3.69-1.81 7.22-3.88 10.81-5.84q10.77-5.9 22.23-10.3 9.2-3.58 18.71-6.24h-0.3q-9.4 2.48-18.54 5.88-11.58 4.31-22.48 10.14l-5.39 2.92-2.7 1.46c-0.91 0.46-1.81 0.94-2.73 1.38q-5.5 2.7-11.38 4.4l-3 0.78c-1 0.23-2 0.48-3 0.67q-2.97 0.63-6 0.85c-2 0.14-4 0.1-6.1 0.08-2.1-0.02-4.11 0-6.17 0.13q-6.1 0.45-12.13 1.53-6 1.04-12 2.66c-4 1.09-7.85 2.4-11.72 3.71-3.87 1.31-7.77 2.63-11.68 3.63q-11.83 3.25-24 4.8-8.79 1.16-17.68 1.45z"/>
								</g>
								<g id="Browser-7">
									<path id="Path 715" class="s8" d="m1099.07 627.34c0 14.63-10.8 26.5-24.12 26.5h-353.63c-13.32 0-24.12-11.87-24.12-26.5v-214.28h401.87z"/>
									<path id="Path 716" class="s2" d="m721.32 379.78h353.63c13.32 0 24.12 11.86 24.12 26.5v6.78h-401.9v-6.78c0-14.64 10.83-26.5 24.15-26.5z"/>
									<g id="Group 393">
										<path id="Ellipse 45" class="s9" d="m1067.89 389.97c4.14 0 7.5 3.36 7.5 7.5 0 4.14-3.36 7.5-7.5 7.5-4.14 0-7.5-3.36-7.5-7.5 0-4.14 3.36-7.5 7.5-7.5z"/>
										<path id="Ellipse 46" class="s9" d="m1046.11 389.97c4.14 0 7.5 3.36 7.5 7.5 0 4.14-3.36 7.5-7.5 7.5-4.14 0-7.5-3.36-7.5-7.5 0-4.14 3.36-7.5 7.5-7.5z"/>
										<path id="Ellipse 47" class="s9" d="m1024.34 389.97c4.14 0 7.5 3.36 7.5 7.5 0 4.14-3.36 7.5-7.5 7.5-4.14 0-7.5-3.36-7.5-7.5 0-4.14 3.36-7.5 7.5-7.5z"/>
									</g>
									<g id="Content">
										<path id="Rectangle 178" class="s9" d="m941.75 428.89h128.1v142.27h-128.1z"/>
										<path id="Rectangle 179" class="s9" d="m787.07 429.15h91.14v58.23h-91.14z"/>
										<path id="Rectangle 180" class="s9" d="m786.82 498.26h91.14v58.23h-91.14z"/>
										<g id="Chart">
											<path id="Rectangle 181" class="s10" d="m956.57 486.36h16.01v67.9h-16.01z"/>
											<path id="Rectangle 182" class="s10" d="m977.19 508.7h16.01v45.56h-16.01z"/>
											<path id="Rectangle 183" class="s10" d="m997.81 522.04h16.01v32.22h-16.01z"/>
											<path id="Rectangle 184" class="s10" d="m1018.43 533.19h16.01v21.07h-16.01z"/>
											<path id="Rectangle 185" class="s10" d="m1039.05 541.81h16.01v12.45h-16.01z"/>
											<g id="Group 396">
												<path id="Path 717" class="s11" d="m967.17 464.22c18.77 32.63 49.23 55.48 88.14 66.23v5.12c-41.24-10.95-73.48-34.87-93.23-69.21z"/>
												<g id="Group 395">
													<path id="Path 718" class="s11" d="m959.67 472.71l-6.19-26.74 21 20.5z"/>
												</g>
											</g>
										</g>
										<path id="Rectangle 186" class="s9" d="m728.08 583.32h341.76v9.11h-341.76z"/>
										<path id="Rectangle 187" class="s9" d="m728.08 429.91h45.06v4.05h-45.06z"/>
										<path id="Rectangle 188" class="s9" d="m728.08 444.08h45.06v4.05h-45.06z"/>
										<path id="Rectangle 189" class="s9" d="m728.08 498.26h45.06v4.05h-45.06z"/>
										<path id="Rectangle 190" class="s9" d="m728.08 512.43h45.06v4.05h-45.06z"/>
										<path id="Rectangle 191" class="s9" d="m728.08 610.66h341.76v9.11h-341.76z"/>
									</g>
								</g>
								<g id="Person-7">
									<path id="Path 719" class="s12" d="m864.25 503.1c0 0 16.37-16.36 1.56-17.14-14.81-0.78-40.52-3.9-38.18 10.91 2.34 14.81 3.11 20.78 8.57 21.3 5.46 0.52 28.05-15.07 28.05-15.07z"/>
									<g id="Group 400">
										<path id="Path 720" class="s13" d="m910.42 628.31l41.75-68.74c17.14-4.26 12 11.65 12 11.65 0 0-38.89 89.72-53.13 89.1-13.87-0.6-0.62-32.01-0.62-32.01z"/>
										<path id="Path 721" class="s5" d="m848.75 548.53c10.84 7.51 61.67 79.78 61.67 79.78l31.75-52.43 17 10.2c0 0-36.53 78.64-48.58 75-12.05-3.64-55.54-47.66-68.79-76.47-13.25-28.81-1.44-39.5 6.95-36.08z"/>
										<g id="Group 399">
											<path id="Path 722" class="s13" d="m866.09 493.44c0 0 12.06 37.1-10.43 35-13.94-1.28-19-11.77-19-11.77 0 0-4.87 1.54-5.47-8.35-0.36-5.88 7-9 7.35 0.17 0 0 5.31 1.62 6.33-6.23 1.02-7.85 5.13-7.5 9.58-6.13 4.45 1.37 10.96-0.3 11.64-2.69z"/>
											<path id="Path 723" class="s13" d="m835.05 515.52c0 0-2.4 16.11-7.28 23.36 0 0-9.18 1.67-13.72 3-5.52 1.6 22.45 48.93 31.17 35.29 8.72-13.64 6-25.15 6-25.15 0 0-4.3-5.07-4-6.43 0.3-1.36 6.17-19.22 6.17-19.22 0 0 0.22-17.76-18.34-10.85z"/>
										</g>
										<path id="Path 724" class="s2" d="m825.7 539.16c0 0-27.23 3-36.7 6.2-1.6 0.55-13.3 66.81-13.48 68.49-1.8 16.28-10.89 63.34-10.85 67.28l80.3 1.2c0 0 4.93-56.7 15-91.14 4.78-16.43 0.62-32.11-12-43.69l-0.58 3.79c-0.36 2.34-2.69 3.48-5.56 3.68-5.95 0.35-11.43-3.26-13.47-8.86z"/>
										<path id="Path 725" class="s1" d="m819.08 945.77q-0.12 0.69-0.22 1.37-1.31 8.41-4 16.49h60.23l-32.72-16.14v-0.35c0.12-10.23 5.07-120.3 9.83-138.11 4.82-18-7.23-126.77-7.23-126.77l-64.54-0.42c-7.32 35.81 34.43 125.65 34.43 125.65-15.69 35.04 5.83 127.63 4.22 138.28z"/>
										<path id="Path 726" class="s13" d="m811.83 637.67l82.48 51.45c7.58 10.92-6 11.82-6 11.82 0 0-88-37.93-99.58-46.22-10-7.21 23.1-17.05 23.1-17.05z"/>
										<path id="Path 727" class="s5" d="m762.08 958.83l-17.55-23.77v-0.07c1.53-3.15 54.32-112 58.47-121.8 20.72-49.06 18.77-131 18.77-131l-46.37-0.65c-13.68 36.39-4.78 122-4.78 122-20.45 15.19-43.65 123.94-43.65 123.94l-0.21 0.37-10.51 18.37z"/>
										<path id="Path 728" class="s5" d="m791.37 544.27c-9 2.4-12.38 7.59-11.4 36.92 0.83 24.92-1.12 38.86 0.77 56.53 1.14 10.15 7.39 19.01 16.56 23.5l67 33.11 10.23-17.71-62-39.11c0 0-1.2-58.59-1.8-68.2-0.6-9.61-5.56-28.72-19.36-25.04z"/>
										<path id="Path 729" class="s1" d="m769.17 963.5l-24.1-29.08-19.51-7.7-13 21.77z"/>
										<path id="Path 730" class="s1" d="m875.09 963.5l-32.72-18.81v-0.4h-23.51q-1.3 9.75-4 19.21z"/>
									</g>
								</g>
								<g id="Plant-6">
									<g id="&lt;Clip Group&gt;" clip-path="url(#cp2)">
										<g id="&lt;Group&gt;">
											<g id="Group 403">
												<g id="Plant-7">
													<path id="Path 731" class="s1" d="m1036 925.84c1.51-7.24 15.06-73.54 11.63-114.88-0.46-5.56-2.1-21.12-12.25-36-1.2-1.75-10.75-15.72-16.37-13.73-4.74 1.67-4.55 13.93-4.12 22.23 1.84 35.76 13.44 101.54 21.11 142.38z"/>
													<path id="Path 732" class="s1" d="m1036.01 925.49c4.54-1.34-0.24-39.55-16.73-75.19-6.22-13.46-19.43-42-35.83-41.51-4.07 0.12-9.22 2.06-11.34 6-3.38 6.2 2.09 15.11 8.38 24.68 13.63 20.75 24.19 34 29.55 41.33 19.92 27.05 22.79 45.62 25.97 44.69z"/>
													<path id="Path 733" class="s1" d="m1036.35 925.85c7.73-35.26 25-55 34.28-64 4.78-4.6 33.47-32.23 50.58-23.36 6.13 3.18 10.68 11 9.62 17.73-1.82 11.52-19.45 16-35.21 23.09-15.76 7.09-37.18 20.18-59.27 46.54z"/>
													<path id="Path 734" class="s1" d="m1036.36 925.5c10.23-10.9 27.33-25 50.72-28.24 14.79-2 36.46-0.34 38.55 7.37 1.31 4.86-5.32 11.45-11.24 14.7-11.32 6.2-21.73 1.08-37.71 0-9.76-0.7-23.43 0-40.32 6.17z"/>
													<path id="Path 735" class="s2" d="m1003.22 924.56l60.35 1.71-9.14 76.32-46.4-1.31z"/>
												</g>
											</g>
										</g>
									</g>
								</g>
								<g id="Cloud-4">
									<path id="Path 1622-3" class="s0" d="m1132.17 322.22h-93c0 0 7.42-53 27.43-18.91 0 0 17.05-46.7 34.85 2.6-0.03-0.02 30.72-10.4 30.72 16.31z"/>
								</g>
								<g id="Cloud-5">
									<path id="Path 1622-4" class="s7" d="m857.17 293.41h-93c0 0 7.42-53 27.43-18.91 0 0 17-46.7 34.85 2.6-0.05 0 30.72-10.38 30.72 16.31z"/>
								</g>
								<g id="Cloud-6">
									<path id="Path 1622-5" class="s7" d="m550.65 446.45h-119.88c0 0 9.55-68.3 35.34-24.36 0 0 22-60.18 44.89 3.35 0 0 39.65-13.38 39.65 21.01z"/>
								</g>
							</g>
						</g>
					</g>
				</g>
			</g>
		</g>
	</g>
</svg>