<svg version="1.2" xmlns="http://www.w3.org/2000/svg" viewBox="0 0 1518 1080" width="1518" height="1080">
	<style>
		.s0 { fill: #e3eeff } 
		.s1 { fill: #aacef2 } 
		.s2 { fill: #ffffff } 
		.s3 { fill: #808bd1 } 
		.s4 { fill: #a7cdf2 } 
		.s5 { fill: #404884 } 
		.s6 { fill: #c9e3f4 } 
		.s7 { fill: #353b6e } 
		.s8 { fill: #ff73b7 } 
		.s9 { fill: #272e56 } 
		.s10 { fill: #ffd5c0 } 
		.s11 { fill: #ac7dfd } 
		.s12 { fill: #423565 } 
		.s13 { fill: #ff90c6 } 
		.s14 { fill: #fb911a } 
		.s15 { fill: #f1f1f2 } 
		.s16 { fill: #485194 } 
		.s17 { fill: #ff78ba } 
		.s18 { fill: #fefefe } 
		.s19 { opacity: .45;fill: #ffffff } 
	</style>
	<g id="Layer 1">
		<g id="Marketing tools 1 ">
			<g id="Background 4 ">
				<path id="Path 763 1 " class="s0" d="m805.27 251.97c-23.7-86.29-97.49-149.86-186.57-158.3-7.1-0.68-13.69-0.98-19.74-1.06-236.26-2.86-500.72 342.83-397.27 592.24 48.7 117.42 179.84 215.61 310.83 218.87 160.27 3.98 193.9-137.3 360.49-132.43 149.26 4.36 187.66 119.69 340.26 99.32 21.32-2.85 132.99-17.76 176.56-103 27.71-54.2 24.92-131.04-11.03-185.76-91.37-139.06-329.99-33.34-483.72-174.73-48.15-44.28-74.86-100.74-89.81-155.15z"/>
			</g>
			<g id="Plants 3 ">
				<path id="Path 764 1 " class="s1" d="m1086.94 821.92c0 0-26.18-47.83 11.96-96.44 38.13-48.61 65.97-76.71 58.96-122.74-7-46.03-2.35-76.47 18.75-98.21 21.1-21.73 16.16-31.3 32.47-47.91 16.31-16.61 49.08-33.37 49.08-33.37 0 0-42.05 61.7-31.14 105.26 10.9 43.56 7.48 75.95-11.33 106.36-18.81 30.41-10.59 90.78-60.2 122.56-49.62 31.78-68.55 64.49-68.55 64.49z"/>
				<path id="Path 765 1 " class="s2" d="m1088.1 829.7c-0.96-9.62-0.82-19.32 0.43-28.91 1.26-9.57 3.86-18.92 7.71-27.78 1.03-2.18 2-4.38 3.14-6.5q1.69-3.19 3.64-6.24 3.98-6.04 8.59-11.62l18.24-22.53c6.07-7.51 12.14-15.04 18.1-22.65q4.49-5.69 8.86-11.48c2.9-3.87 5.77-7.78 8.43-11.83 5.19-8.21 9.56-16.9 13.04-25.96 0.48-1.12 0.84-2.28 1.26-3.42l1.2-3.43 1.09-3.47c0.36-1.16 0.73-2.31 1.03-3.49 0.64-2.33 1.3-4.67 1.83-7.03 0.27-1.18 0.57-2.36 0.82-3.54l0.74-3.56c1.93-9.5 3.1-19.12 4.11-28.74 0.94-9.61 1.98-19.25 2.01-28.96 0.05-4.85-0.2-9.7-0.62-14.52-0.42-4.83-1.06-9.62-1.39-14.42-0.63-9.61 0.26-19.26 2.64-28.59 2.31-9.36 5.8-18.39 10.38-26.87 4.61-8.48 10.01-16.5 16.14-23.95l2.25-2.83 2.39-2.72 2.4-2.71c0.8-0.9 1.57-1.83 2.43-2.68l5.04-5.2 1.26-1.3 1.32-1.24 2.63-2.49 2.63-2.49q0.66-0.62 1.32-1.23l1.37-1.19 5.47-4.75c1.8-1.62 3.72-3.08 5.6-4.6l5.66-4.53-5.71 4.47c-1.88 1.51-3.83 2.95-5.64 4.55l-5.52 4.7-1.38 1.17q-0.67 0.61-1.34 1.23l-2.66 2.46-2.66 2.46-1.33 1.24-1.27 1.28-5.1 5.16c-0.87 0.85-1.65 1.77-2.47 2.66l-2.43 2.7-2.42 2.7-2.29 2.81c-6.2 7.45-11.67 15.48-16.34 23.97-4.67 8.51-8.23 17.59-10.62 27-2.46 9.42-3.4 19.17-2.77 28.88 0.32 4.85 0.96 9.64 1.36 14.44 0.41 4.8 0.65 9.61 0.59 14.43-0.05 9.63-1.1 19.23-2.06 28.84-1.03 9.6-2.21 19.19-4.14 28.63l-0.73 3.54c-0.25 1.18-0.54 2.34-0.81 3.52-0.53 2.35-1.18 4.67-1.81 6.99-0.3 1.17-0.66 2.31-1.02 3.46l-1.07 3.45-1.19 3.41c-0.41 1.13-0.77 2.28-1.24 3.39-3.44 9-7.75 17.63-12.89 25.78-2.63 4.02-5.48 7.92-8.37 11.78q-4.34 5.79-8.82 11.49-8.93 11.4-18 22.71l-18.12 22.63q-4.6 5.63-8.56 11.73-1.95 3.08-3.63 6.3c-1.14 2.15-2.11 4.37-3.12 6.57-3.78 8.93-6.3 18.35-7.47 27.97-1.15 9.61-1.2 19.32-0.14 28.95z"/>
				<path id="Path 766 1 " class="s3" d="m1179.37 759.26c2.64-21.52 18.08-47.27 52.2-59.9 34.13-12.63 43.95-42.52 46.03-65.96 2.07-23.44 19.7-58.02 19.7-58.02q0.01 0-0.92 0.58-0.18 0.11-0.41 0.24c-2.99 1.81-11.2 6.48-25.85 12.82-19.03 8.23-23.33 33.7-40.07 41.68-16.75 7.99-28.98 18.48-39.99 33.89-11.01 15.41-20.28 24.21-50.59 34.23-30.31 10.02-43.06 73.13-43.06 73.13q1.04 2.61 2.21 4.91 0.03 0.07 0.07 0.14c22.46 43.97 78.06 3.73 80.68-17.74z"/>
				<path id="Path 767 1 " class="s2" d="m1098.68 777q11.63-7.24 22.55-15.53c10.04-7.67 19.51-16.05 28.34-25.09 4.42-4.51 8.63-9.22 12.73-14.01 4.11-4.78 8.21-9.56 12.6-14.05 4.37-4.52 8.98-8.79 13.78-12.87q7.14-6.15 14.88-11.53 3.91-2.63 7.98-5c2.71-1.58 5.48-3.16 8.08-4.99q3.91-2.73 7.41-5.97c1.19-1.06 2.31-2.18 3.45-3.27l3.3-3.41c4.33-4.63 8.24-9.63 11.68-14.96 3.46-5.3 6.51-10.82 9.73-16.24 6.4-10.84 13.52-21.25 21.32-31.14q9.35-11.97 19.86-22.99-0.17 0.12-0.4 0.25-10.49 10.68-19.91 22.38c-7.91 9.84-15.14 20.21-21.65 31.03l-4.85 8.12-2.43 4.05c-0.84 1.33-1.66 2.67-2.52 3.98-3.43 5.26-7.31 10.21-11.61 14.78l-3.29 3.37c-1.14 1.08-2.25 2.19-3.42 3.23q-3.46 3.18-7.31 5.86c-2.57 1.78-5.29 3.33-8.02 4.92q-4.11 2.37-8.06 5.02-7.78 5.44-14.96 11.65c-4.8 4.11-9.43 8.42-13.82 12.97-4.4 4.55-8.51 9.36-12.59 14.15-4.09 4.79-8.26 9.51-12.62 14.05-8.72 9.08-18.09 17.52-28.02 25.25q-10.75 8.46-22.28 15.85 0.03 0.07 0.07 0.14z"/>
			</g>
			<g id="Plants-2 2 ">
				<path id="Path 768 1 " class="s4" d="m503.85 845.44c0 0-15.06-157.43-46.54-198.5-31.49-41.07-75.29 13.69-28.75 136.89 0 0-101.3-269.68-154.69-201.24-53.39 68.45 45.17 157.43 76.66 188.92 0 0-142.37-105.41-149.22-28.75-6.84 76.66 157.43 104.05 157.43 104.05z"/>
			</g>
			<g id="Computer 2 ">
				<path id="Path 769 1 " class="s5" d="m828.3 975.33v-151.38h-151.38v151.38l-76.71 30.68h304.8z"/>
				<path id="Path 1643 1 " class="s5" d="m384.15 266.52h756.35c10.03 0 18.16 8.13 18.16 18.16v550.77c0 10.03-8.13 18.16-18.16 18.16h-756.35c-10.03 0-18.16-8.13-18.16-18.16v-550.77c0-10.03 8.13-18.16 18.16-18.16z"/>
				<path id="Path 770 1 " class="s2" d="m1146.67 308.31v487.15c0.01 14.03-11.37 25.42-25.41 25.42q-0.01 0-0.01 0h-717.85c-14.04 0-25.42-11.38-25.42-25.42q0 0 0 0v-487.15c0-14.04 11.38-25.42 25.42-25.42h717.85c14.04 0 25.42 11.38 25.42 25.42q0 0 0 0z"/>
			</g>
			<g id="Browser 1 ">
				<g id="Group 415 1 ">
					<path id="Path 771 1 " class="s6" d="m1098.35 376.83v431.56c0.02 9.3-2.79 18.38-8.05 26.04h-656.48c-5.26-7.66-8.07-16.74-8.05-26.04v-431.56z"/>
					<path id="Path 772 1 " class="s4" d="m1052.85 326.13h-581.59c-25.13 0-45.49 18.44-45.49 41.19v9.51h672.58v-9.51c0-22.75-20.37-41.19-45.5-41.19z"/>
				</g>
				<g id="Group 416 1 ">
					<path id="Path 773 1 " class="s2" d="m470.2 364.43c-2.63 0-5.16-1.09-6.96-3.01-3.85-4.08-3.85-10.46 0-14.55 3.62-3.84 9.67-4.03 13.52-0.41q0.21 0.2 0.41 0.41c3.85 4.09 3.85 10.47 0 14.55-1.8 1.92-4.33 3.01-6.97 3.01z"/>
					<path id="Path 774 1 " class="s2" d="m497.5 364.43c-2.64 0-5.16-1.09-6.97-3.01-3.84-4.08-3.84-10.46 0-14.55 3.62-3.84 9.68-4.03 13.53-0.41q0.21 0.2 0.41 0.41c3.85 4.09 3.85 10.47 0 14.55-1.81 1.92-4.33 3.01-6.97 3.01z"/>
					<path id="Path 775 1 " class="s2" d="m524.8 364.43c-2.64 0-5.16-1.09-6.97-3.01-3.85-4.08-3.85-10.46 0-14.55 3.62-3.84 9.68-4.03 13.53-0.41q0.21 0.2 0.41 0.41c3.85 4.09 3.85 10.47 0 14.55-1.81 1.92-4.33 3.01-6.97 3.01z"/>
				</g>
				<path id="Rectangle 196 1 " class="s1" d="m462.54 424.66h280.82v144.66h-280.82z"/>
				<path id="Rectangle 326 1 " class="s1" d="m780.53 424.66h280.82v144.66h-280.82z"/>
				<path id="Rectangle 198 1 " class="s1" d="m462.54 644.13h280.82v144.66h-280.82z"/>
				<path id="Rectangle 327 1 " class="s1" d="m780.53 644.13h280.82v144.66h-280.82z"/>
			</g>
			<g id="Person 4 ">
				<path id="Path 777 1 " class="s7" d="m289.34 963.88l-28.96-0.74 0.1 19.47c0.26 20.38-9.37 21.67-11.37 19.71l-3.38-13.68-5.83-30.01c-1.1-5.68 2.6-11.17 8.28-12.28q0.44-0.08 0.9-0.13l43.6-4.61z"/>
				<path id="Path 778 1 " class="s8" d="m457.46 867.89c0 0 23.35 91.97-23.15 99.81-46.51 7.84-118.3-4.02-153.82-0.67l-1.67-27.84c0 0 40.33-3.17 61.98-7.68 21.65-4.5 55.11-11.69 75.57-9.83 0 0-58.5-164.57 25.02-121.35z"/>
				<path id="Path 779 1 " class="s9" d="m503.24 781.01c0 0 16.67-19.83 16.86-31.31l-18.71-4.26c0 0-2.22 23.52 1.85 35.57z"/>
				<path id="Path 780 1 " class="s10" d="m491.01 696.71c7.89 3.72 25.35 43.89 30.89 57.01 0.37 0.89 1.39 1.31 2.27 0.94 0.45-0.19 0.8-0.56 0.97-1.02 4.28-11.69 19.32-40.25 25.16-56 6.07-16.4 33.99-36.59 13.34 12.04-6.32 14.88-21.29 76.13-35.76 76.51-13.89 0.37-30.57-19.82-49.65-50.2-19.08-30.38 12.78-39.28 12.78-39.28z"/>
				<path id="Path 781 1 " class="s5" d="m493.61 688.19c0 0 6.11-2.5 11.67 15.56 5.56 18.07 15.56 45.86 15.56 45.86 0 0-16.42 12.2-17.6 32.14 0 0-24.08-31.59-29.08-44.65-5.01-13.06-7.51-52.8 19.45-48.91z"/>
				<path id="Path 782 1 " class="s10" d="m551.41 694.77c2.41-6.95-0.85-15.16 3.52-20.57 3.89-4.81 4.91-3.05 9.72-1.39 4.81 1.67 16.3-0.09 15.19 2.32-1.11 2.41-11.99 32.97-20.52 28.71-8.52-4.26-7.91-9.07-7.91-9.07z"/>
				<g id="Chat 1 ">
					<path id="Rectangle 200 1 " class="s2" d="m562.18 638.91h118.74v58.22h-118.74z"/>
					<g id="Group 419 1 ">
						<g id="Group 418 1 ">
							<path id="Path 783 1 " fill-rule="evenodd" class="s11" d="m682.04 698.58h-120.64v-60.8h120.64zm-118.39-2.25h116.14v-56.3h-116.14z"/>
						</g>
					</g>
					<path id="Rectangle 201 1 " class="s11" d="m571.37 652.9h97.48v4.83h-97.48z"/>
					<path id="Rectangle 202 1 " class="s11" d="m571.53 666.9h97.48v4.82h-97.48z"/>
					<path id="Rectangle 203 1 " class="s11" d="m571.69 680.89h97.48v4.83h-97.48z"/>
				</g>
				<path id="Path 784 1 " class="s10" d="m554 676.67c1.26-2.89 3.09-6.84 6.25-4.91 3.16 1.93 7.89 0.57 8.65 1.21 0.76 0.64-0.38 6.52-7.89 5.15-3.98-0.72-4.23 5.48-7.83 5.72-1.64 0 0.82-7.17 0.82-7.17z"/>
				<path id="Path 785 1 " class="s7" d="m519.24 971.88l-4.52 23.49 15.86 2.55c16.63 2.56 16.38 10.57 14.51 11.93l-11.6 0.9-25.22 0.69c-4.78 0.13-8.75-3.64-8.88-8.41q-0.01-0.37 0.01-0.75l2.16-36.13z"/>
				<path id="Path 786 1 " class="s7" d="m409.5 661.14c-12.78 0.56-6.76 25.66-11.21 62.9-4.44 37.23-2.22 88.09-2.22 88.09 0 0 67.25-1.67 78.36-1.39 0 0 8.94-79.64 25.22-117.77 0.38-0.88 0.14-1.9-0.59-2.52-3.44-2.9-19.72-11.57-36.44-20.88-22.11-12.31-40.34-8.98-53.12-8.43z"/>
				<g id="Group 422 1 ">
					<path id="Path 787 1 " class="s9" d="m412.46 762.29c0 0 12.6-43.35 36.13-19.63 0 0-18.34 19.63-36.13 19.63z"/>
					<path id="Path 788 1 " class="s10" d="m446.64 734.6c0 0 2.78 17.78 9.17 23.06 6.4 5.28 57.53 37.8 71.14 43.63 13.62 5.84 34.46 3.61 33.35 21.68-1.11 18.06-31.12-1.95-38.35-5.01-7.22-3.05-73.08-24.17-88.64-40.29-15.57-16.12-24.46-41.4-32.52-96.98 0 0 25.29-36.4 45.85 53.91z"/>
					<path id="Path 789 1 " class="s5" d="m403.56 661.84c1.57-0.85 7.66-1.24 9.46-1.44 5.88-0.64 11.93 5.94 15.38 10.75 5.18 7.22 10.19 18.89 20.19 71.51 0 0-28.53 9.45-36.12 19.63 0 0-14.27-38.16-14.82-66.69-0.18-9.07-1.2-18.36 1.35-27.22 0.41-1.76 1.21-3.4 2.34-4.81q0.96-1.05 2.22-1.73z"/>
				</g>
				<g id="Group 423 1 ">
					<path id="Path 790 1 " class="s12" d="m482.87 624.39c0 0 4.97-8.43 4.44-11.51-0.53-3.09-0.3-7.15-5.94-9.78-5.65-2.64-13.02-1.81-19.64 1.35-6.62 3.16-21.06 2.26-20.01 19.33 1.05 17.08 14.6 18.44 13.32 23.85l10.76-9.25z"/>
					<path id="Path 791 1 " class="s10" d="m483.32 621.3c0 0 10.61 32.74-9.17 30.92-12.27-1.13-16.71-10.38-16.71-10.38 0 0-4.28 1.36-4.81-7.37-0.31-5.19 6.17-7.98 6.47 0.15 0 0 4.66 1.43 5.57-5.49 0.9-6.92 4.51-6.62 8.42-5.42 3.92 1.2 9.63-0.3 10.23-2.41z"/>
					<path id="Path 792 1 " class="s10" d="m456.01 640.79c0 0-2.1 14.21-6.39 20.61 0 0-7.13-0.62-11.28-0.68-4.2-0.06 18.95 46.49 26.63 34.46 7.67-12.04 4.36-21.97 4.36-21.97 0 0-3.46-4.36-3.16-5.57 0.3-1.2 6.02-17.3 6.02-17.3 0 0 0.15-15.65-16.18-9.55z"/>
				</g>
				<path id="Path 793 1 " class="s13" d="m397.27 804.9c0 0-10 54.84 13.71 57.43 23.72 2.6 88.93-4.81 98.19 4.45 9.26 9.26 36.68-52.61 11.48-54.1-25.19-1.48-122.64-3.7-123.38-7.78z"/>
				<path id="Path 794 1 " class="s14" d=""/>
				<path id="Path 795 1 " class="s13" d="m508.4 812.1c0 0 44.46-1.95 40.56 25.35-3.9 27.3-28.08 138.83-28.08 138.83l-27.69 4.29c0 0-1.95-122.06 13.65-123.62 15.6-1.56 1.56-44.85 1.56-44.85z"/>
			</g>
			<g id="Person-2 3 ">
				<g id="Object 4 ">
					<path id="Ellipse 48 1 " class="s13" d="m937.05 444.16c25.84-4.27 50.25 13.22 54.52 39.07 4.27 25.84-13.22 50.25-39.06 54.52-25.85 4.27-50.26-13.22-54.53-39.06-4.27-25.85 13.22-50.26 39.07-54.53z"/>
					<path id="Path 809 1 " fill-rule="evenodd" class="s15" d="m927.49 514.37v-48.43l44.84 26.9zm4.44-40.59v33.54l31.06-14.91z"/>
				</g>
				<path id="Path 776 1 " class="s13" d="m1054.37 481.53c0 0-15.6-0.52-24.18 25.22-8.58 25.74 22.62 25.74 17.94 40.56-4.68 14.82-12.48 51.47 34.32 40.55 46.8-10.92 6.24-76.17-28.08-106.33z"/>
				<g id="Group 425 1 ">
					<path id="Path 796 1 " class="s10" d="m1127.36 618.74l0.22 0.1q-0.09 0.06-0.18 0.11l-30.15 63.43 10.58 6.26 35.97-45.69c2.84-3.58 8.56-15.4 7.04-19.71-1.42-4-11.34-10.98-19.39-17.29-7.81-6.12-4.09 12.79-4.09 12.79z"/>
					<path id="Path 797 1 " class="s10" d="m1121.8 627.88c0 0 19.56 15.89 21.92-11.54 0 0-33.06-32.7-57.12-48.47-12.26-8.03-36.56 5.75-29.97 11.18 41.1 33.83 65.17 48.83 65.17 48.83z"/>
				</g>
				<path id="Path 798 2 " class="s16" d="m1086.48 972.38c0 0-37.44 13.26-39 22.62-1.56 9.36 58.49-0.78 58.49-0.78 0 0 3.9-37.44-19.49-21.84z"/>
				<path id="Path 799 1 " class="s16" d="m1220.69 934.6c0 0-20.81 33.82-16.15 42.09 4.66 8.26 45.04-37.34 45.04-37.34 0 0-20.47-31.58-28.89-4.75z"/>
				<path id="Path 800 1 " class="s17" d="m1087.26 670.54c0 0 24.17 133.37 44.45 163.01 20.28 29.64 84.24 109.97 84.24 109.97l20.27-19.5c0 0-48.35-93.59-72.53-102.95 0 0-14.82-31.2-15.6-77.22-0.78-46.01-2.34-78.77-36.66-81.11-34.32-2.34-24.17 7.8-24.17 7.8z"/>
				<path id="Path 801 1 " class="s13" d="m1068.54 676c0 0-4.68 121.67-0.78 142.73 3.89 21.06 15.59 155.21 15.59 155.21l24.18 0.78c0 0 8.58-120.11 0-137.27-8.58-17.16 2.34-74.1 10.14-92.04 7.8-17.93 17.94-70.97 0.78-77.21-17.16-6.24-49.91 7.8-49.91 7.8z"/>
				<path id="Path 802 1 " class="s7" d="m1053.72 557.06c9.54-6.87 42.9-5.07 51.47 20.66 8.58 25.74-3.11 47.58 5.46 64.74 8.58 17.16 24.18 30.42 24.18 30.42 0 0-30.42 17.16-68.63 11.7 0 0-49.92-100.62-12.48-127.52z"/>
				<path id="Path 803 1 " class="s10" d="m1033.44 498.17c0 0-17.16 41.34-0.78 40.56 16.38-0.78 20.28 14.04 20.28 20.28 0 0 22.62-7.02 31.2 0.78 0 0 6.24-82.68-48.36-65.52z"/>
				<path id="Path 804 1 " class="s13" d="m1034.22 496.61c0 0 18.72 2.34 19.5 21.06 0 0 7.8-10.14 10.14-1.56 2.34 8.58-6.24 13.26-6.24 13.26 0 0-6.24 26.52 9.36 33.54 15.6 7.02 27.3 13.25 32.76 27.29 5.45 14.04 28.85 9.36 35.09 17.94 6.24 8.58 25.74 20.28 47.58 6.24 21.84-14.04 5.46-28.86 15.6-44.46 10.14-15.6 10.14-21.83-7.8-31.97-17.94-10.14-14.82-27.3-30.42-35.88-15.6-8.58-35.88 16.38-61.61 0-25.74-16.38-46.8-38.22-63.96-5.46z"/>
				<path id="Path 805 1 " class="s10" d="m988.6 609.15l-0.2 0.15q0-0.1-0.01-0.21l-41.03-56.98-10.58 6.25 22.68 53.53c1.77 4.22 9.37 14.93 13.88 15.67 4.18 0.69 15.08-4.64 24.49-8.65 9.13-3.9-9.23-9.76-9.23-9.76z"/>
				<path id="Path 806 1 " class="s10" d="m982.65 600.2c0 0-21.95 12.37 2.71 24.62 0 0 42.53-18.78 66.02-35.4 11.96-8.46 8.04-36.12 0.57-31.97-46.53 25.84-69.3 42.75-69.3 42.75z"/>
				<path id="Path 807 1 " class="s10" d="m947.75 555.05c0 0-1.07-10.63 0.71-16.34 1.77-5.72 1.92-8.08 1.92-8.08 0 0-4.84-0.62-6.77 7.46 0 0 0.04 0.2-8.8-0.83-1.74 6.95-1.14 14.28 1.71 20.86 0 0 10.38 12.95 11.23-3.07z"/>
				<path id="Path 808 1 " class="s10" d="m1052.16 557.45c0 0 10.84-6.28 9.36 38.21-0.78 23.4-17.16 5.46-17.16-9.36 0-14.82 7.8-28.85 7.8-28.85z"/>
			</g>
			<g id="Object-2 4 ">
				<g id="Group 430 1 ">
					<g id="Group 429 1 ">
						<g id="Group 428 1 ">
							<path id="Path 810 1 " class="s11" d="m1210.95 340.92l-13.16-8.45 18.31-2.7"/>
						</g>
					</g>
					<path id="Path 811 1 " class="s11" d="m1251.85 367.1c-13.25 7.82-30.71 2.78-39-11.25-8.29-14.04-4.27-31.76 8.98-39.59 13.24-7.82 30.7-2.78 38.99 11.25 8.29 14.04 4.27 31.76-8.97 39.59z"/>
				</g>
				<path id="Path 812 1 " class="s18" d="m1248.39 343.25l-17.15 10.12c-0.99 0.59-2.27 0.26-2.85-0.73q-0.29-0.48-0.29-1.04l-0.2-19.91c-0.01-1.16 0.91-2.1 2.06-2.11q0.56 0 1.05 0.27l17.34 9.78c1.01 0.57 1.36 1.84 0.8 2.85q-0.28 0.48-0.76 0.77z"/>
			</g>
			<g id="Object-3 3 ">
				<g id="Group 434 1 ">
					<g id="Group 433 1 ">
						<g id="Group 432 1 ">
							<path id="Path 813 1 " class="s11" d="m1067.22 247.6l-15.92 8.01 7.96-19.53"/>
						</g>
					</g>
					<path id="Path 814 1 " class="s11" d="m1116.62 222.62c0 17.54-15.06 31.76-33.65 31.76-18.58 0-33.65-14.22-33.65-31.76 0-17.53 15.07-31.75 33.65-31.75 18.58 0 33.65 14.22 33.65 31.75z"/>
				</g>
				<g id="Group 436 1 ">
					<g id="Group 435 1 ">
						<path id="Path 815 1 " class="s18" d="m1076.96 237.83c7.33 0.12 14.76 0.22 21.5-0.23 2.13-0.13 3.98-3.34 1.39-4.35 1.09-0.53 2.19-1.03 2.67-2.19 0.45-1.09-0.09-2.57-1.3-2.86 2.55 0.6 3.55-3.21 1.56-4.44 1.08-0.79 1.85-1.94 2.15-3.24 0.25-1.34-0.37-2.69-1.55-3.36-0.84-0.35-1.74-0.5-2.64-0.43l-9.15-0.07c0.82-4.5 1.07-9.41-1.35-13.36-0.73-1.2-2.69-2.62-4.25-1.71-1.46 0.86-1.06 3-0.98 4.35 0.3 5.6-3.08 11.23-8.32 13.87 0 0 0.34 11.94 0.27 18.02z"/>
					</g>
					<path id="Rectangle 204 1 " class="s18" d="m1063.22 219.81h11.08v18.01h-11.08z"/>
				</g>
			</g>
			<g id="Object-4 2 ">
				<path id="Path 816 1 " class="s13" d="m472.44 233.39c13.49-16.98 10.66-41.68-6.31-55.17-16.98-13.49-41.68-10.67-55.17 6.31-13.49 16.98-10.67 41.68 6.31 55.17 13.35 10.61 32.03 11.39 46.22 1.92l15.24 8.13z"/>
				<path id="Path 817 1 " class="s2" d="m425.08 198.1c3.78-3.71 9.86-3.66 13.58 0.13q0 0.01 0.01 0.01l2.45 2.5 2.52-2.48c3.78-3.72 9.87-3.68 13.59 0.11 3.73 3.78 3.68 9.87-0.1 13.59l-9.35 9.21q-0.03 0.03-0.06 0.06c-3.79 3.72-9.88 3.65-13.59-0.14q0 0 0 0l-9.2-9.4c-3.71-3.79-3.65-9.88 0.15-13.59z"/>
			</g>
			<g id="Content 1 ">
				<path id="Path 818 1 " class="s1" d="m116.48 521.51h211.88l-25.37-18.77v-115.93c0-7.64-6.2-13.84-13.84-13.84h-172.66c-7.65 0-13.85 6.2-13.85 13.84v120.85c0 7.65 6.2 13.85 13.84 13.85z"/>
				<g id="Group 444 1 ">
					<g id="Group 439 1 " style="opacity: .45">
						<path id="Rectangle 205 1 " class="s2" d="m217.88 403.73h-96.83v-9.27h96.83z"/>
						<path id="Rectangle 206 1 " class="s2" d="m217.88 417.57h-96.83v-9.26h96.83z"/>
						<path id="Rectangle 207 1 " class="s2" d="m217.88 431.41h-96.83v-9.26h96.83z"/>
						<path id="Rectangle 208 1 " class="s2" d="m217.88 444.9h-96.83v-9.27h96.83z"/>
						<path id="Rectangle 209 1 " class="s2" d="m217.88 458.38h-96.83v-9.26h96.83z"/>
						<path id="Rectangle 210 1 " class="s2" d="m217.88 482.89h-96.83v-9.26h96.83z"/>
						<path id="Rectangle 211 1 " class="s2" d="m286.31 497.48h-165.26v-9.26h165.26z"/>
					</g>
					<g id="Group 443 1 ">
						<path id="Rectangle 212 1 " class="s3" d="m275.7 465.58h-39.61c-5.86 0-10.61-4.74-10.61-10.6v-49.91c0-5.86 4.75-10.61 10.61-10.61h39.61c5.86 0 10.61 4.75 10.61 10.61v49.91c0 5.86-4.75 10.6-10.61 10.6z"/>
						<path id="Rectangle 213 1 " class="s19" d="m286.31 482.08h-60.82v-7.64h60.82z"/>
						<g id="Group 442 1 ">
							<path id="Path 819 1 " class="s2" d="m249.9 440.62h22.07c1.25 0 2.33-0.84 2.66-2.04l4.24-15.67c0.4-1.47-0.47-2.98-1.93-3.38q-0.36-0.1-0.72-0.1h-30.57c-1.52 0-2.75 1.24-2.75 2.76q0 0.36 0.09 0.72l4.25 15.67c0.32 1.2 1.41 2.04 2.66 2.04z"/>
							<g id="Group 440 1 ">
								<path id="Path 820 1 " class="s2" d="m246.01 444.14h26.58c0.31 0 0.55-0.24 0.55-0.54 0-0.31-0.24-0.55-0.55-0.55h-26.17l-9.25-32.26c-0.07-0.24-0.28-0.4-0.52-0.4h-5.79c-0.3 0-0.55 0.25-0.55 0.55 0 0.3 0.25 0.55 0.55 0.55h5.37l9.25 32.26c0.07 0.23 0.28 0.4 0.53 0.39z"/>
							</g>
							<g id="Group 441 1 ">
								<path id="Path 821 1 " class="s2" d="m268.52 448.47c0 1.77 1.44 3.21 3.22 3.21 1.77 0 3.21-1.44 3.21-3.21 0-1.78-1.44-3.22-3.21-3.22-1.78 0-3.22 1.44-3.22 3.22q0 0 0 0z"/>
								<path id="Path 822 1 " class="s2" d="m245.15 448.47c0 1.77 1.44 3.21 3.21 3.21 1.78 0 3.22-1.44 3.22-3.21 0-1.78-1.44-3.22-3.22-3.22-1.77 0-3.21 1.44-3.21 3.22q0 0 0 0z"/>
							</g>
						</g>
					</g>
				</g>
			</g>
			<g id="Letter 1 ">
				<g id="Group 446 1 ">
					<path id="Rectangle 214 1 " class="s0" d="m1304.66 393.59h80.36v56.72h-80.36z"/>
				</g>
				<g id="Group 447 1 ">
					<path id="Path 823 1 " class="s1" d="m1385.02 393.59l-40.03 39.77-40.33-39.77"/>
				</g>
				<g id="Group 448 1 ">
					<path id="Path 824 1 " class="s0" d="m1344.99 425.35l-40.33-31.76h80.36z"/>
				</g>
			</g>
			<g id="Object-5 2 ">
				<g id="Group 452 1 ">
					<g id="Group 450 1 ">
						<path id="Path 825 1 " fill-rule="evenodd" class="s1" d="m678.61 124.48c-1 5.11-3.02 9.97-5.92 14.3l6.48 6.48-10.81 10.81-6.48-6.48c-4.33 2.9-9.19 4.91-14.3 5.92v9.17h-15.28v-9.17c-5.12-1-9.98-3.02-14.3-5.92l-6.48 6.48-10.81-10.81 6.48-6.48c-2.9-4.32-4.92-9.19-5.92-14.3h-9.17v-15.28h9.17c1-5.12 3.01-9.98 5.92-14.3l-6.48-6.48 10.81-10.81 6.48 6.48c4.32-2.91 9.18-4.92 14.3-5.92v-9.17h15.28v9.17c5.11 1 9.97 3.02 14.3 5.92l6.48-6.48 10.81 10.81-6.48 6.48c2.9 4.32 4.91 9.18 5.92 14.3h9.17v15.28zm-11.43-7.64q0 0 0 0c0-15.05-12.2-27.25-27.25-27.25-15.05 0-27.25 12.2-27.25 27.25 0 15.05 12.21 27.25 27.26 27.25 15.05 0 27.25-12.2 27.24-27.25z"/>
					</g>
					<g id="Group 451 1 ">
						<path id="Ellipse 49 1 " fill-rule="evenodd" class="s1" d="m639.94 137.91c-11.66 0-21.08-9.42-21.08-21.07 0-11.66 9.42-21.08 21.08-21.08 11.65 0 21.07 9.42 21.07 21.08 0 11.65-9.42 21.07-21.07 21.07z"/>
					</g>
				</g>
				<g id="Group 454 1 ">
					<g id="Group 453 1 ">
						<path id="Path 826 1 " class="s1" d="m752.77 161.55v-11.14h-6.69c-0.73-3.73-2.2-7.28-4.32-10.43l4.73-4.73-7.88-7.88-4.73 4.72c-3.15-2.11-6.7-3.58-10.43-4.31v-6.69h-11.14v6.69c-3.73 0.73-7.28 2.2-10.43 4.32l-4.73-4.73-7.88 7.88 4.73 4.73c-2.12 3.15-3.59 6.7-4.32 10.43h-6.69v11.14h6.69c0.73 3.73 2.2 7.28 4.32 10.43l-4.73 4.73 7.88 7.88 4.73-4.72c3.15 2.11 6.7 3.58 10.43 4.32v6.68h11.15v-6.69c3.72-0.73 7.27-2.2 10.43-4.32l4.72 4.73 7.89-7.88-4.73-4.73c2.12-3.15 3.58-6.7 4.32-10.43z"/>
					</g>
				</g>
			</g>
		</g>
	</g>
</svg>