<svg version="1.2" xmlns="http://www.w3.org/2000/svg" viewBox="0 0 1386 1080" width="1386" height="1080">
	<defs>
		<clipPath clipPathUnits="userSpaceOnUse" id="cp1">
			<path d="m470.86 56h716.15v661.85h-716.15z"/>
		</clipPath>
	</defs>
	<style>
		.s0 { fill: #e9f6ff } 
		.s1 { fill: #d4edff } 
		.s2 { fill: #074fdf } 
		.s3 { fill: #8dcfff } 
		.s4 { fill: #acd4f8 } 
		.s5 { fill: #dbdac6 } 
		.s6 { fill: #ffffff } 
		.s7 { fill: #d1dbea } 
		.s8 { fill: #b0bfde } 
		.s9 { fill: #f7b68b } 
		.s10 { fill: #212957 } 
		.s11 { fill: #3b47bc } 
		.s12 { fill: #1c4997 } 
		.s13 { fill: #163f59 } 
		.s14 { fill: #194866 } 
		.s15 { fill: #281617 } 
		.s16 { fill: none;stroke: #9ac7f7;stroke-miterlimit:10;stroke-width: 1.9 } 
		.s17 { fill: #0561fc } 
		.s18 { fill: #9ac7f7 } 
		.s19 { fill: none;stroke: #ffffff;stroke-width: 4.8 } 
		.s20 { fill: #ec9568 } 
		.s21 { fill: #c5e1f9 } 
		.s22 { fill: none;stroke: #7eb3ff;stroke-miterlimit:10;stroke-width: 3.8 } 
		.s23 { fill: none;stroke: #7eb3ff;stroke-miterlimit:10;stroke-width: 4 } 
	</style>
	<g id="Layer 1">
		<g id="&lt;Group&gt;">
			<g id="&lt;Group&gt;">
				<path id="&lt;Path&gt;" class="s0" d="m561.27 718.25h618.95v-485.41h-618.95z"/>
				<path id="&lt;Path&gt;" class="s1" d="m561.27 234.8h618.95v-58.27h-618.95z"/>
				<path id="&lt;Path&gt;" class="s2" d="m1137.51 202.97c0 6.44 5.23 11.67 11.65 11.67 6.45 0 11.65-5.23 11.65-11.67 0-6.43-5.2-11.64-11.65-11.64-6.42 0-11.65 5.21-11.65 11.64z"/>
				<path id="&lt;Path&gt;" class="s3" d="m1100.61 202.97c0 6.44 5.22 11.67 11.65 11.67 6.44 0 11.66-5.23 11.66-11.67 0-6.43-5.22-11.64-11.66-11.64-6.43 0-11.65 5.21-11.65 11.64z"/>
				<path id="&lt;Path&gt;" class="s4" d="m1063.71 202.97c0 6.44 5.22 11.67 11.66 11.67 6.43 0 11.65-5.23 11.65-11.67 0-6.43-5.22-11.64-11.65-11.64-6.44 0-11.66 5.21-11.66 11.64z"/>
			</g>
			<g id="&lt;Clip Group&gt;" clip-path="url(#cp1)">
				<g id="&lt;Group&gt;">
					<path id="&lt;Path&gt;" class="s5" d="m969.42 542.2c0 0 6.71 0.14 8.59 28.59 0.8 12.13 0.45 25.96-0.21 37.83-0.88 15.95-8.27-1.49-8.27-1.49l-6.31-31.72c0 0-2.96-25.19 6.2-33.21z"/>
					<path id="&lt;Path&gt;" class="s6" d="m974.16 666.96l4.01-3.76 3.09-5.92 1.01-10.81c0 0-0.35-11.55-2.05-15.86-1.7-4.31-2.47-21.58-3.08-23.7-0.61-2.11-6.53-0.78-6.53-0.78 0 0 1.31 13.17 2.25 21.11 0.85 7.25-0.74 18.07-0.4 20.92 0.3 2.42 0.9 4.59 1.42 6.15 0.52 1.57 1.05 1.12 1.13-0.65 0.1-2.36 0.21-5.35 0.14-6.51-0.13-2.02 2.21-1.09 2.21-1.09 0 0 1.11 10.72 0.09 13.53-1.02 2.81-2.82 3.56-3.51 4.82-0.6 1.08 0.22 2.55 0.22 2.55z"/>
					<path id="&lt;Path&gt;" class="s7" d="m837.42 405.59c0 0-5.39 26.89-86.13 11.38-80.75-15.52-74.11-33.09-74.11-33.09l-1.26-20.68 41.99-44.99 22.61 18.79-1.07 4.48c0 0 3.22 5.17 8.61 5.17 5.38 0 29.06 7.24 75.36 9.31 21.35 0.95 15.08 44.46 14 49.63z"/>
					<g id="&lt;Group&gt;">
						<path id="&lt;Path&gt;" class="s8" d="m823.42 355.96q-1.37-0.06-2.73-0.14c3.74 12.52 3.48 28.03 3.25 31.02 0 0-1.82 27.32-83.96 21.67-14.81-1.02-26.73-2.45-36.35-4.12 10.7 4.09 25.94 8.41 47.66 12.58 80.74 15.51 86.13-11.38 86.13-11.38 1.08-5.17 7.35-48.68-14-49.63z"/>
					</g>
					<path id="&lt;Path&gt;" class="s9" d="m717.91 323.9c0 0-35.23-47.57 11.85-85.83 13.99-11.37-3.23-5.17-19.38 2.07-16.15 7.24-49.53 43.43-46.3 79.62 3.23 36.2 7.54 49.64 21.53 54.81 14 5.17 32.3-50.67 32.3-50.67z"/>
					<path id="&lt;Path&gt;" class="s9" d="m731.91 230.83l36.61-13.44 7.53 13.44-8.61 12.41-9.69-2.07-8.61 4.14z"/>
					<path id="&lt;Path&gt;" class="s10" d="m841.52 1000.85c0 0 22.81-82.35 23.89-129.92 1.08-47.57-6.46-80.66-6.46-80.66l-47.37-16.54 0.3 217.49z"/>
					<path id="&lt;Path&gt;" class="s10" d="m813.73 570.01l-2.15 203.72 43.07 23.78c0 0 25.83-48.6 29.06-110.65 3.23-62.04-69.98-116.85-69.98-116.85z"/>
					<path id="&lt;Path&gt;" class="s11" d="m813.73 570.01l94.75 223.36 17.52 28.89 68.18 151.81 7.4 17.15 30.39 3.7c0 0-7.22-101.24-33.06-144.67-25.84-43.43-38.75-67.22-38.75-67.22l-57.07-219.22z"/>
					<path id="&lt;Path&gt;" class="s7" d="m810.5 573.11l95.82-2.06 39.84-133.4c0 0 25.84-80.66-23.69-81.69-49.52-1.04-106.58-1.04-106.58-1.04 0 0-33.38 28.96-5.39 218.19z"/>
					<path id="&lt;Path&gt;" class="s9" d="m968.77 632.06l-26.92 23.78-11.84-21.71h7.53l5.39-9.31 16.15 6.2z"/>
					<path id="&lt;Path&gt;" class="s9" d="m878.95 273.16c0 0-20.95 23.48-15.57 40.02 5.39 16.54-3.35 27.26-3.35 32.43 0 5.17-5.38 27.92-1.08 26.89 4.31-1.03 32.3-10.34 35.53-17.58 3.23-7.24 8.61-28.95 8.61-28.95 0 0-4.14-25.57-5.25-33.91-1.2-9.02-14.59-20.97-18.89-18.9z"/>
					<path id="&lt;Path&gt;" class="s12" d="m863.72 373.66c0 0-43.41 74.85-31.09 157.68 0.97 6.53 8.75 11.19 8.75 11.19l10.68-9.32c0 0-0.86-93.75 11.66-159.55z"/>
					<path id="&lt;Path&gt;" class="s8" d="m865.27 371.67l2.36 16.54 28.36-26.87v-4.13z"/>
					<path id="&lt;Path&gt;" class="s8" d="m856.34 361l-4.97 21.52 12.58-10.85z"/>
					<path id="&lt;Path&gt;" class="s8" d="m737.24 366.07l6.59-13.92 2.3-5.73c-4.22-0.99-6.69-4.94-6.69-4.94l-2.85 11.3-5.93 12.65-13.17 13.92z"/>
					<g id="&lt;Group&gt;">
						<path id="&lt;Path&gt;" class="s9" d="m850.84 328.43c-0.3 4.32 2.96 8.07 7.28 8.37l35.18 2.46c4.32 0.3 8.07-2.96 8.37-7.28l3.64-52.13c0.3-4.32-2.95-8.06-7.27-8.37l-35.19-2.45c-4.32-0.31-8.07 2.95-8.37 7.27z"/>
						<path id="&lt;Path&gt;" class="s13" d="m853.68 287.05c0 0-4.38-5.38-5.03-8.54-0.33-1.6 1.61-7.42 5.68-9.43 4.07-2 7.03 2.46 7.03 2.46 0 0-6.49 3.04-6.9 4.32-0.42 1.28-0.78 11.19-0.78 11.19z"/>
						<path id="&lt;Path&gt;" class="s14" d="m907.26 303.56c0 0 6.72-19.67 6.15-25.6-0.57-5.94-0.93-10.05-8.06-11.21-10.66-1.72-10.95 0.55-15.93-3.07-4.99-3.63-13.81-12.13-16.99-13.14-5.28-1.68-13.82-0.48-14.86 9.6-0.76 7.44-5.59 8.94-5.48 9.23 0.36 0.94 2.26 1.93 5.55 3.87 9.43 5.57 15.23 6.96 22.86 5.53 7.63-1.43 21.89-4.69 23.13 0.96 1.24 5.65-0.6 22.55-0.03 23.9 0.56 1.35 2.29 0.81 3.66-0.07z"/>
						<path id="&lt;Path&gt;" class="s9" d="m895.09 318.43c-0.1 1.44 0.98 2.69 2.42 2.79l7.6 0.53c1.44 0.1 2.69-0.99 2.79-2.43l0.97-13.9c0.1-1.44-0.98-2.69-2.42-2.79l-7.6-0.53c-1.44-0.1-2.69 0.98-2.79 2.42z"/>
						<path id="&lt;Path&gt;" class="s9" d="m849.74 315.26c-0.1 1.44 0.99 2.69 2.43 2.79l7.6 0.53c1.44 0.1 2.69-0.99 2.79-2.43l0.97-13.9c0.1-1.44-0.99-2.69-2.43-2.79l-7.6-0.53c-1.44-0.1-2.69 0.99-2.79 2.43z"/>
						<path id="&lt;Path&gt;" class="s14" d="m903.57 307.89c0 0-1.43 20.52-1.91 27.37-0.43 6.19-3.84 19.59-38.8 17.15-20.69-1.45-18.86-16.6-18.52-21.59 0.27-3.81 5.37-14.9 7.71-16.93 0.07-0.06-0.6 8.47-0.6 8.47 0 0 4.88-7.95 14.72-7.26 15.87 1.11 18.82 10.64 25.83 10.97 5.38 0.25 10.04-8.25 11.57-18.18z"/>
						<path id="&lt;Path&gt;" class="s9" d="m871.75 329.02l-10.86-0.76c-1.44-0.1-2.52-1.35-2.42-2.79l0.1-1.52 16.08 1.12-0.11 1.52c-0.1 1.44-1.35 2.53-2.79 2.43z"/>
					</g>
					<path id="&lt;Path&gt;" class="s15" d="m757.85 1016.2h86.13l1.18-16.52-27.13-8.25c0 0-44.84 7.07-60.18 24.77z"/>
					<path id="&lt;Path&gt;" class="s15" d="m946.07 1016.2h86.13l1.18-16.52-27.13-8.25c0 0-44.84 7.07-60.18 24.77z"/>
					<path id="&lt;Path&gt;" class="s16" d="m870.05 582.17c0 0 10.01 26.68 30.01 26.68"/>
					<path id="&lt;Path&gt;" class="s16" d="m1016.78 984.55c0 0-16.68-118.94-67.81-188.96-2.07-2.84-51.13-175.63-51.13-175.63"/>
					<g id="&lt;Group&gt;">
						<path id="&lt;Path&gt;" class="s17" d="m840.97 283.84c0 5.23-4.25 9.48-9.48 9.48h-41.11v37.96l-56.93-37.96h-205.56c-5.24 0-9.49-4.25-9.49-9.48v-183.42c0-5.24 4.25-9.49 9.49-9.49h303.6c5.23 0 9.48 4.25 9.48 9.49z"/>
						<g id="&lt;Group&gt;">
							<path id="&lt;Path&gt;" class="s6" d="m605.37 173.15v-6.32c0-6.99-5.67-12.65-12.65-12.65h-22.14c-6.99 0-12.65 5.66-12.65 12.65v6.32z"/>
							<path id="&lt;Path&gt;" class="s6" d="m592.72 133.62c0-6.11-4.96-11.07-11.07-11.07-6.12 0-11.07 4.96-11.07 11.07 0 6.12 4.95 11.06 11.07 11.06 6.11 0 11.07-4.94 11.07-11.06z"/>
						</g>
						<g id="&lt;Group&gt;">
							<g id="&lt;Group&gt;">
								<path id="&lt;Path&gt;" class="s6" d="m714.47 135.2h-71.45v-9.49h71.45z"/>
							</g>
							<g id="&lt;Group&gt;">
								<path id="&lt;Path&gt;" class="s6" d="m802.72 135.2h-24.02v-9.49h24.02z"/>
							</g>
							<g id="&lt;Group&gt;">
								<path id="&lt;Path&gt;" class="s6" d="m802.72 161.41h-159.7v-9.49h159.7z"/>
							</g>
							<g id="&lt;Group&gt;">
								<path id="&lt;Path&gt;" class="s6" d="m802.72 183.71h-159.7v-9.48h159.7z"/>
							</g>
							<g id="&lt;Group&gt;">
								<path id="&lt;Path&gt;" class="s6" d="m802.72 206.02h-159.7v-9.49h159.7z"/>
							</g>
							<g id="&lt;Group&gt;">
								<path id="&lt;Path&gt;" class="s6" d="m802.72 228.33h-159.7v-9.49h159.7z"/>
							</g>
							<g id="&lt;Group&gt;">
								<path id="&lt;Path&gt;" class="s6" d="m777.42 250.63h-134.4v-9.49h134.4z"/>
							</g>
						</g>
					</g>
					<g id="&lt;Group&gt;">
						<path id="&lt;Path&gt;" class="s18" d="m1086.89 485.79c-1.28-4.64-6.09-7.36-10.73-6.09l-36.44 10.06-9.28-33.64-41.18 47.55-182.19 50.26c-4.63 1.28-7.37 6.09-6.08 10.73l27.06 98.1c1.28 4.65 6.08 7.37 10.73 6.09l269.07-74.22c4.66-1.28 7.38-6.09 6.1-10.73z"/>
						<g id="&lt;Group&gt;">
							<path id="&lt;Path&gt;" class="s19" d="m917.12 571.19l158.36-43.69"/>
							<path id="&lt;Path&gt;" class="s19" d="m922.57 590.97l121.73-33.59"/>
						</g>
						<path id="&lt;Path&gt;" class="s6" d="m899.53 607.24l-0.87-3.17c-0.85-3.09-4.06-4.91-7.15-4.06l-19.62 5.41c-3.09 0.86-4.92 4.07-4.06 7.16l4.64 16.81c0.85 3.09 4.06 4.92 7.15 4.07l19.63-5.42c3.08-0.85 4.9-4.06 4.06-7.15l-0.88-3.18 9.95 3.29-5.98-21.68z"/>
						<g id="&lt;Group&gt;">
							<path id="&lt;Compound Path&gt;" fill-rule="evenodd" class="s6" d="m858.21 594.12c-6.95 1.92-14.17-2.18-16.09-9.14-1.91-6.95 2.18-14.17 9.13-16.09 6.96-1.92 14.18 2.18 16.09 9.13 1.93 6.96-2.17 14.17-9.13 16.1zm-5.41-19.62c-3.87 1.06-6.14 5.07-5.07 8.93 1.07 3.87 5.07 6.15 8.94 5.08 3.86-1.07 6.14-5.08 5.07-8.94-1.07-3.86-5.07-6.14-8.94-5.07z"/>
						</g>
						<path id="&lt;Path&gt;" class="s6" d="m844.63 615.96c-1.28-4.64 1.45-9.45 6.09-10.73l19.62-5.41c2.48-0.68 4.99-0.2 7 1.09l6.6-1.82c-3.53-4.35-9.41-6.45-15.14-4.88l-19.62 5.42c-7.74 2.13-12.29 10.14-10.16 17.87l2.33 8.41 25.22-6.95-1.54-5.61-19.62 5.41z"/>
					</g>
					<path id="&lt;Path&gt;" class="s9" d="m1003.22 524.51l-38.76 112.72c0 0 47.38-39.3 59.21-65.15 11.85-25.85 18.31-53.77 18.31-53.77z"/>
					<path id="&lt;Path&gt;" class="s7" d="m939.7 433.52l55.98 85.82 7.54 1.04-2.15 7.24 40.55-3.11 8.97-35.16-78.59-115.81c0 0-24.49-22.26-64.6-16.55-29.07 4.14 27.99 69.28 32.3 76.53z"/>
					<path id="&lt;Path&gt;" class="s8" d="m1038.28 502.09c0 0-25.06 12.03-38.35 17.84l3.29 0.45-2.16 7.24 14.02-1.19 19.64-4.64 1.08-8.31h-6.09z"/>
				</g>
			</g>
			<g id="&lt;Group&gt;">
				<g id="&lt;Group&gt;">
					<path id="&lt;Path&gt;" class="s20" d="m408.43 329.66l54.16-87.55c0 0 15.03-4.08 11.48 7.32-3.56 11.4-29.4 80.24-29.4 80.24 0 0-38.52 37.42-36.24-0.01z"/>
					<path id="&lt;Path&gt;" class="s20" d="m467.06 257.88c0 0 12.99-11.58 19.68-17 6.69-5.42 22.95-23.49 24.37-28.05 1.42-4.56 1.42-4.56 1.42-4.56l-16.32 15.24 3.79-9.14c0 0 9.64-8.88 10.55-10.78 0.9-1.91 0.67-4.17 0.67-4.17-0.09-4.72-2.73-4.29-2.73-4.29l-12.83 10.07-8.31 9.61 2.83-10.07c0 0 11.17-7.77 11.71-9.48 0.53-1.71-1.59-3.93-1.59-3.93l-15.45 11.44-10.01 19.08c0 0-2.3-1.65-0.31-6.04 2-4.38 2.12-7.78 1.14-9.65-0.98-1.87-6.98 10.34-7.49 12.99-0.51 2.65-8.29 10.55-6.59 20.15 1.7 9.59 5.47 18.58 5.47 18.58z"/>
				</g>
				<path id="&lt;Path&gt;" class="s20" d="m426.26 359.2l70.31-93.76c0 0 17.59-5.04 12.44 6.98-5.15 12.03-41.27 84.85-41.27 84.85 0 0-47.64 40.9-41.48 1.93z"/>
				<path id="&lt;Path&gt;" class="s21" d="m344.68 420.68c0 0 23.4 3.75 58.37-36.27 34.98-40.02 55.17-59.65 54.2-62.99-0.96-3.35-6.97-20.38-15.85-22.03-8.88-1.65-16.6-3.01-19.86-0.12-3.26 2.88-90.97 90.91-96.97 99.3-5.02 7.04 14.91 18.31 20.11 22.11z"/>
				<path id="&lt;Path&gt;" class="s20" d="m366.99 344c0 0 11.91 18.77 24.9 19.76 13 0.99 19.49-29.65 19.49-50.4 0-20.75-22.74-40.51-24.9-46.44-2.17-5.93-24.91 13.83-24.91 31.62 0 17.79 5.42 40.51 5.42 45.46z"/>
				<path id="&lt;Path&gt;" class="s11" d="m287.03 991.07c0 0-1.13 10.98-1.13 14.36 0 3.37 7.32 12.94 7.88 15.76 0.56 2.81 0.56 2.81 0.56 2.81h-55.15c0 0-1.13-5.63 7.88-12.95 9-7.31 11.81-12.38 12.94-21.67 1.13-9.28 27.02 1.69 27.02 1.69z"/>
				<path id="&lt;Path&gt;" class="s11" d="m383.56 992.48l-5.63 30.39h86.12c0 0 0.56-9.56-9.57-12.38-10.13-2.81-37.71-11.26-45.03-20.26-7.31-9.01-25.89 2.25-25.89 2.25z"/>
				<path id="&lt;Path&gt;" class="s10" d="m284.74 990.23l84.43-303.09 12.66-131.71v-7.6l-48.12 0.85c0 0-30.39 32.92-29.55 75.98 0.85 43.06 2.53 140.15-4.22 158.72-6.75 18.58-24.48 49.81-26.17 69.23-1.69 19.42-10.13 135.93-10.13 135.93z"/>
				<path id="&lt;Path&gt;" class="s11" d="m432.49 549.52c0 0 16.89 28.7 12.66 79.36-4.22 50.66-37.14 359.66-37.14 359.66l-25.33 0.84c0 0-8.44-118.19-5.07-146.9 3.38-28.7 12.67-58.25 11.82-63.32-0.84-5.06-46.43-161.25-43.06-174.76 3.38-13.51 20.27-54.88 22.8-55.72 2.53-0.85 63.32 0.84 63.32 0.84z"/>
				<path id="&lt;Path&gt;" class="s22" d="m429.96 566.41c0 0 1.69 166.32-8.45 211.06-10.13 44.75-20.26 172.23-20.26 190.81"/>
				<path id="&lt;Path&gt;" class="s21" d="m423.2 398.4l-24.48-12.67-45.59-0.84c0 0-23.64 3.37-33.77 25.33-3.49 7.54 5.06 117.35 5.91 132.55 0.84 15.19 0.84 15.19 0.84 15.19l111.45-7.6c0 0 2.53-138.46-14.36-151.96z"/>
				<path id="&lt;Path&gt;" class="s9" d="m347.22 340.14l3.38 45.59c0 0-1.74 6.35 12.66 7.6 19.42 1.69 27.86-5.91 27.86-5.91 0 0-10.97-21.11-9.29-49.81 1.69-28.71-34.61 2.53-34.61 2.53z"/>
				<path id="&lt;Path&gt;" class="s10" d="m380.99 254.87c0 0-24.67-5.92-48.97 12.66-14.35 10.98-22.79 30.4-15.2 46.44 7.6 16.04 24.49 37.15 32.93 37.15 8.44 0 27.02-12.67 29.55-17.73 2.53-5.07 2.53-8.45 4.22-19.42 1.69-10.98 7.6-7.6 7.6-5.07 0 2.54 3.38 10.13 5.07 5.07 1.68-5.07 36.3-41.37-15.2-59.1z"/>
				<path id="&lt;Path&gt;" class="s10" d="m364.1 257.4c0 19.59-16.44 35.46-36.72 35.46-20.28 0-36.73-15.87-36.73-35.46 0-19.58 16.45-35.46 36.73-35.46 20.28 0 36.72 15.88 36.72 35.46z"/>
				<path id="&lt;Path&gt;" class="s20" d="m501.72 251.83l14.32-21.11 5.28-0.75 1.51 5.27 7.54-6.03-0.76-6.78c0 0 12.06 3.77 11.31 8.29-0.75 4.52-1.51 19.6-1.51 19.6 0 0-14.32 14.32-17.33 14.32-3.02 0-13.07 7.78-13.07 7.78l-12.44-6.98z"/>
				<path id="&lt;Path&gt;" class="s18" d="m405.24 452c0 0 2.21-3.34 34.85-44.59 32.63-41.25 51.64-61.6 50.51-64.9-1.13-3.29-7.93-20.01-16.81-21.3-8.88-1.29-16.6-2.33-19.68 0.68-3.08 3-89.94 84.07-98.65 89.38-18.09 11.01 4.78 54.21 49.78 40.73z"/>
			</g>
			<path id="&lt;Path&gt;" class="s23" d="m949.77 1023.85h-750.78"/>
			<path id="&lt;Path&gt;" class="s23" d="m725.41 830.72h-71.27v-71.28h71.27z"/>
			<g id="&lt;Group&gt;">
				<path id="&lt;Path&gt;" class="s23" d="m755.96 767.93h227.41"/>
				<path id="&lt;Path&gt;" class="s23" d="m755.96 795.08h227.41"/>
				<path id="&lt;Path&gt;" class="s23" d="m755.96 822.24h139.16"/>
			</g>
			<path id="&lt;Path&gt;" class="s3" d="m725.41 936.79h-71.27v-71.28h71.27z"/>
			<g id="&lt;Group&gt;">
				<path id="&lt;Path&gt;" class="s23" d="m755.96 874h227.41"/>
				<path id="&lt;Path&gt;" class="s23" d="m755.96 901.15h227.41"/>
				<path id="&lt;Path&gt;" class="s23" d="m755.96 928.3h139.16"/>
			</g>
			<path id="&lt;Path&gt;" class="s23" d="m640.62 329.24c0 6.56-5.32 11.88-11.88 11.88-6.56 0-11.88-5.32-11.88-11.88 0-6.56 5.32-11.88 11.88-11.88 6.56 0 11.88 5.32 11.88 11.88z"/>
			<path id="&lt;Path&gt;" class="s23" d="m793.3 597.75c0 6.56-5.32 11.88-11.88 11.88-6.56 0-11.88-5.32-11.88-11.88 0-6.56 5.32-11.88 11.88-11.88 6.56 0 11.88 5.32 11.88 11.88z"/>
			<path id="&lt;Path&gt;" class="s23" d="m771.02 598.7h-143.22v-256.42"/>
			<path id="&lt;Path&gt;" class="s23" d="m602.15 329.24c0 6.56-5.32 11.88-11.88 11.88-6.56 0-11.88-5.32-11.88-11.88 0-6.56 5.32-11.88 11.88-11.88 6.56 0 11.88 5.32 11.88 11.88z"/>
			<path id="&lt;Path&gt;" class="s23" d="m609.98 797.06h-20.65v-454.78"/>
			<path id="&lt;Path&gt;" class="s23" d="m633.21 797.63c0 6.56-5.32 11.88-11.88 11.88-6.56 0-11.88-5.32-11.88-11.88 0-6.56 5.32-11.88 11.88-11.88 6.56 0 11.88 5.32 11.88 11.88z"/>
		</g>
	</g>
</svg>