<svg version="1.2" xmlns="http://www.w3.org/2000/svg" viewBox="0 0 1280 823" width="1280" height="823">
	<defs>
		<clipPath clipPathUnits="userSpaceOnUse" id="cp1">
			<path d="m0 0.41h1280v800h-1280z"/>
		</clipPath>
	</defs>
	<style>
		.s0 { fill: #ffffff } 
		.s1 { fill: #fd9ecc } 
		.s2 { fill: #aacef2 } 
		.s3 { fill: #ffd5c0 } 
		.s4 { fill: #404884 } 
		.s5 { fill: #353b6e } 
		.s6 { fill: #c9e3f4 } 
		.s7 { fill: #a7cdf2 } 
		.s8 { fill: #ff90c6 } 
		.s9 { fill: #ac7dfd } 
		.s10 { fill: #fafcfb } 
		.s11 { fill: #ff73b7 } 
		.s12 { fill: #808bd1 } 
	</style>
	<g id="Layer 1">
		<g id="Layer 2 1 ">
			<g id="Vela UI Temaplates">
				<g id="Marketing strategy - Web">
					<g id="&lt;Clip Group&gt;" clip-path="url(#cp1)">
						<g id="&lt;Group&gt;">
							<g id="Marketing strategy - Web-2">
								<g id="Marketing strategy">
									<g id="Background-2">
										<path id="Path 561" class="s0" d="m333.53 823h681.47c0 0 223.94-251.18 62.33-309.59-161.61-58.41-112.94-91.52-17.53-264.81 95.41-173.29-29.2-239.5-132.4-229.76-103.2 9.74-186.93 56.46-282.34 218.08-95.41 161.62-163.55 155.12-262.86 154.49-99.31-0.63-387.47 151.21-48.67 431.59z"/>
									</g>
									<g id="Plants">
										<path id="Path 562" class="s1" d="m430.57 441.79c0 0 51.31-65.67 13.69-120.53-37.62-54.86-31-56-31.82-90.67-0.82-34.67-7.54-70.65-36.1-82.35-28.56-11.7-11.53-36.62-52.15-40.09 0 0 22.07 55.28 12.18 82.67-9.89 27.39-8.7 78.23 9 100.57 17.7 22.34 43 54.32 38.39 91.94-4.61 37.62 30.37 58.26 46.81 58.46z"/>
										<path id="Path 563" class="s0" d="m424.28 458.99c4.26-15.37 6-31.33 5.17-47.26-0.45-7.93-1.65-15.8-3.6-23.5l-0.72-2.89c-0.24-1-0.59-1.89-0.87-2.84l-0.9-2.83-0.45-1.42c-0.15-0.47-0.35-0.93-0.52-1.39l-2.14-5.55q-1.12-2.73-2.53-5.33c-1-1.71-2-3.39-3.07-5.09-1.07-1.7-2.08-3.41-3.1-5.13-2-3.43-4-6.92-5.93-10.4q-5.85-10.44-11.62-20.95c-3.82-7-7.61-14-11.2-21.16q-5.48-10.66-9.8-21.84l-1-2.82c-0.34-0.94-0.63-1.91-0.94-2.86-0.31-0.95-0.64-1.91-0.91-2.87l-0.8-2.91-0.4-1.45-0.33-1.47-0.67-2.94c-0.2-1-0.35-2-0.53-3-0.18-1-0.38-2-0.48-3-1.17-7.99-1.2-16.1-0.08-24.09q0.95-5.98 2.79-11.75c1.18-3.84 2.59-7.57 3.7-11.36q0.84-2.82 1.38-5.72c0.68-3.85 0.77-7.79 0.29-11.67q-0.39-2.92-1.1-5.78c-1.82-7.69-5.53-14.77-9.5-21.65-3.97-6.88-8.33-13.56-12.65-20.25-4.32-6.69-8.65-13.4-13.06-20-4.41-6.6-8.92-13.21-13.5-19.73q7.13 9.6 13.92 19.45c4.54 6.56 9 13.19 13.42 19.8q3.31 5 6.57 10 3.27 5.02 6.34 10.16c2.04 3.43 4 6.94 5.73 10.56q2.6 5.48 4.09 11.35 0.76 2.94 1.2 5.94 0.39 3.03 0.36 6.08-0.06 3.06-0.57 6.07-0.54 2.99-1.4 5.9c-1.12 3.88-2.52 7.61-3.67 11.4q-1.77 5.65-2.69 11.51c-1.06 7.83-1 15.76 0.18 23.57 1.17 7.82 3.21 15.49 6.07 22.87q4.25 11.14 9.65 21.76c3.55 7.11 7.3 14.14 11.1 21.14 3.8 7 7.67 14 11.54 20.94 1.93 3.49 3.88 7 5.88 10.4q1.5 2.58 3 5.14c1 1.7 2.07 3.4 3 5.19q1.42 2.67 2.54 5.49l2.1 5.63q0.27 0.7 0.51 1.41l0.44 1.44 0.88 2.88c0.28 1 0.61 1.9 0.84 2.88l0.71 2.92c1.88 7.79 3 15.74 3.36 23.74 0.32 7.99-0.05 15.99-1.11 23.92l-0.4 3c-0.14 1-0.33 2-0.49 2.95-0.32 2-0.73 3.93-1.13 5.88-0.79 3.84-1.76 7.71-2.9 11.53z"/>
										<path id="Path 564" class="s2" d="m493.48 528.74c0 0 9.17-57.52-46.64-92.75-55.81-35.23-93.91-53.51-103.38-102.34-9.47-48.83-25.07-77.79-54.1-92.09-29.03-14.3-27.49-25.7-49.87-36.56-22.38-10.86-61.36-16-61.36-16 0 0 64.45 47 69.11 94.75 4.66 47.75 19.73 79.1 49.56 103 29.83 23.9 43.2 87.53 104.56 101.66 61.36 14.13 92.12 40.33 92.12 40.33z"/>
										<path id="Path 565" class="s0" d="m495.1 536.98c-2.49-10.02-6.11-19.73-10.8-28.93-4.71-9.18-10.68-17.65-17.73-25.18-1.82-1.82-3.59-3.69-5.5-5.42q-2.85-2.59-5.9-5-6.17-4.66-12.81-8.62l-26.43-16.12c-8.81-5.39-17.62-10.78-26.35-16.3q-6.56-4.12-13-8.38c-4.31-2.85-8.59-5.75-12.73-8.88-8.17-6.39-15.69-13.57-22.44-21.44-0.88-0.95-1.66-2-2.49-3l-2.44-3-2.34-3.1c-0.78-1-1.56-2.07-2.29-3.14-1.48-2.12-3-4.23-4.36-6.42-0.7-1.09-1.43-2.17-2.11-3.27l-2-3.31c-5.35-8.87-10-18.14-14.45-27.45-4.45-9.31-8.93-18.61-12.46-28.37-1.79-4.87-3.28-9.84-4.59-14.84-1.31-5-2.38-10.06-3.77-15-2.82-9.89-7.17-19.28-12.91-27.82-5.69-8.59-12.44-16.42-20.1-23.31-7.67-6.87-15.98-12.98-24.82-18.27l-3.29-2-3.38-2-3.38-1.87c-1.13-0.62-2.24-1.27-3.41-1.82l-6.94-3.42-1.73-0.85-1.77-0.78-3.54-1.56-3.55-1.56q-0.88-0.4-1.77-0.77l-1.8-0.71-7.21-2.81c-2.39-1-4.85-1.76-7.28-2.62l-7.32-2.54 7.34 2.46c2.44 0.84 4.92 1.59 7.31 2.55l7.24 2.75 1.82 0.68q0.88 0.37 1.78 0.76l3.55 1.52 3.56 1.53 1.78 0.76 1.75 0.84 7 3.36c1.17 0.53 2.29 1.18 3.43 1.79l3.41 1.84 3.41 1.85 3.31 2c8.89 5.28 17.26 11.39 25 18.26 7.76 6.89 14.62 14.74 20.4 23.36 5.86 8.59 10.3 18.07 13.15 28.07 1.42 5 2.49 10 3.81 15 1.32 5 2.8 9.9 4.58 14.72 3.51 9.68 8 19 12.43 28.29 4.43 9.29 9.11 18.51 14.44 27.32l2 3.3c0.67 1.1 1.39 2.16 2.08 3.25 1.37 2.17 2.86 4.27 4.33 6.39 0.72 1.06 1.5 2.08 2.27 3.11l2.31 3.09 2.42 3c0.82 1 1.6 2 2.46 3 6.69 7.82 14.13 14.96 22.22 21.31 4.1 3.11 8.36 6 12.66 8.86q6.45 4.28 13 8.39 13.1 8.29 26.27 16.4l26.35 16.27q6.65 4.01 12.82 8.73c2.05 1.6 4 3.27 5.92 5 1.92 1.73 3.69 3.63 5.49 5.49 7.01 7.63 12.92 16.2 17.56 25.46 4.61 9.27 8.14 19.04 10.53 29.12z"/>
										<path id="Path 566" class="s1" d="m378 498.87c-10.38-20.72-35.16-41.09-74-41.55-38.84-0.46-59.48-27-70-49.86-10.52-22.86-40.65-51.31-40.65-51.31l1.14 0.25 0.49 0.1c3.67 0.75 13.6 2.5 30.61 3.62 22.11 1.46 35.57 25.54 55.29 27.57 19.72 2.03 35.78 8.19 52.39 19.75 16.61 11.56 29.09 17.09 63.19 16.29 34.1-0.8 69.54 58.13 69.54 58.13q-0.11 3-0.46 5.73 0.01 0.09 0 0.17c-6.83 52.3-77.22 31.76-87.54 11.11z"/>
										<path id="Path 567" class="s0" d="m465.54 487.75q-14.3-3.1-28.26-7.53c-12.85-4.11-25.39-9.15-37.51-15.07-6.07-2.95-12-6.18-17.85-9.53-5.85-3.35-11.68-6.68-17.71-9.63q-9.05-4.43-18.48-8-9.4-3.63-19.12-6.27-4.87-1.24-9.82-2.16c-3.3-0.62-6.65-1.22-9.93-2.12q-4.91-1.35-9.59-3.35c-1.57-0.65-3.1-1.37-4.64-2.06l-4.55-2.24c-6-3.1-11.72-6.73-17.08-10.85-5.38-4.09-10.43-8.56-15.61-12.85-10.35-8.62-21.26-16.53-32.67-23.68q-13.72-8.7-28.24-16l0.49 0.1q14.4 7 28.08 15.37c11.5 7.07 22.51 14.9 32.95 23.45l7.79 6.43 3.9 3.2c1.31 1 2.63 2.1 4 3.1 5.34 4.07 11.03 7.65 17 10.71l4.52 2.21c1.53 0.68 3.05 1.39 4.6 2q4.62 1.96 9.46 3.28c3.22 0.87 6.52 1.45 9.84 2.06q4.98 0.91 9.91 2.16 9.78 2.69 19.23 6.36c6.3 2.41 12.51 5.09 18.56 8.1 6.05 3.01 11.91 6.36 17.74 9.71 5.83 3.35 11.72 6.61 17.74 9.61 12.04 6 24.49 11.14 37.26 15.36q13.85 4.65 28.1 7.95-0.04 0.1-0.11 0.18z"/>
									</g>
									<g id="Person">
										<path id="Path 568" class="s3" d="m701.81 186.29l-48.2 35.74c0 0-2.34 4.77-0.63 7.45 1.89 3 7.77 1.19 7.77 1.19l44.7-23.55c-1.63-5.28 6.01-15.01-3.64-20.83z"/>
										<path id="Path 569" class="s4" d="m699.53 187.35c0 0 2.65 8.43 5.24 20.45l45.37-35.21c0 0 16-26 0.36-30.34-10.45-2.84-50.97 45.1-50.97 45.1z"/>
										<path id="Path 570" class="s3" d="m702.66 107.64c0 0-0.73 33.2 16.22 25.68 0 0 11.45 4.39 13.22 26.25 1.67 20.68 38.62 8.54 36.67-4.22-1.95-12.76-17.5-16.13-27.52-21.74-10.02-5.61-10-12.06-10-12.06 0 0 2.28-11.89-5.13-6.3-0.05 0-12.51 6.66-23.46-7.61z"/>
										<path id="Path 571" class="s5" d="m730.22 150.9c0 0-6.08 14.11-10 25.55-3.92 11.44 16.28 23.7 15.52 33.12-0.76 9.42-2.24 81.19 9.95 181 0 0 52.72 14.15 93.76-21.78 0 0-19.06-120.28-60.52-156.28 0 0-4.78-46.29-11.69-63.92-9.93-25.27-37.02 2.31-37.02 2.31z"/>
										<g id="Browser">
											<path id="Browser-2" class="s4" d="m461 225.8h398.45c17.3 0 31.33 14.03 31.34 31.33v300.54c0 17.31-14.03 31.34-31.34 31.34h-398.45c-17.31 0-31.34-14.03-31.34-31.34v-300.54c0.01-17.3 14.04-31.33 31.34-31.33z"/>
										</g>
										<g id="Browser-3">
											<g id="Group 336">
												<path id="Path 576" class="s6" d="m394.27 581.41c-0.01 17.22 13.95 31.18 31.17 31.19q0 0 0.01 0h398.72c17.23 0 31.19-13.96 31.19-31.19v-293.6h-461.09z"/>
												<path id="Path 577" class="s7" d="m824.17 249.41h-398.71c-17.22-0.01-31.18 13.95-31.19 31.17q0 0 0 0.01v7.2h461.08v-7.2c0.01-17.21-13.95-31.17-31.16-31.18q-0.01 0-0.01 0z"/>
											</g>
											<g id="Group 337">
												<path id="Path 578" class="s0" d="m427.92 278.41c-2 0-3.91-0.82-5.28-2.28-2.92-3.09-2.92-7.91 0-11 2.74-2.92 7.32-3.06 10.23-0.33q0.01 0.01 0.01 0.01 0.17 0.15 0.32 0.32c2.92 3.09 2.92 7.91 0 11-1.37 1.46-3.28 2.28-5.28 2.28z"/>
												<path id="Path 579" class="s0" d="m448.59 278.41c-2 0-3.91-0.82-5.28-2.28-2.92-3.09-2.92-7.91 0-11 2.74-2.92 7.32-3.06 10.23-0.33q0.01 0.01 0.01 0.01l0.32 0.32c2.92 3.09 2.92 7.91 0 11-1.37 1.46-3.28 2.28-5.28 2.28z"/>
												<path id="Path 580" class="s0" d="m469.26 278.41c-2 0-3.91-0.82-5.28-2.28-2.92-3.09-2.92-7.91 0-11 2.74-2.92 7.32-3.06 10.23-0.33q0.01 0.01 0.01 0.01l0.32 0.32c2.92 3.09 2.92 7.91 0 11-1.37 1.46-3.28 2.28-5.28 2.28z"/>
											</g>
											<g id="Group 339">
												<path id="Rectangle 145" class="s7" d="m420.46 307.3h130.72v98.04h-130.72z"/>
												<g id="Group 338">
													<path id="Rectangle 146" class="s7" d="m421.27 434.86h384.47v8.27h-384.47z"/>
													<path id="Rectangle 147" class="s7" d="m591.36 378.76h214.38v8.27h-214.38z"/>
													<path id="Rectangle 148" class="s7" d="m591.36 343.32h214.38v8.27h-214.38z"/>
													<path id="Rectangle 149" class="s7" d="m591.36 307.89h214.38v8.27h-214.38z"/>
													<path id="Rectangle 150" class="s7" d="m421.27 463.8h384.47v8.27h-384.47z"/>
													<path id="Rectangle 151" class="s7" d="m421.27 492.74h384.47v8.27h-384.47z"/>
													<path id="Rectangle 152" class="s7" d="m421.27 521.68h384.47v8.27h-384.47z"/>
													<path id="Rectangle 153" class="s7" d="m421.27 550.62h384.47v8.27h-384.47z"/>
												</g>
											</g>
										</g>
										<path id="Path 572" class="s3" d="m716.67 200.41l-33.92 45c0 0 0.17 3.44 2.23 5.24 2.65 2.32 7.35 3.11 7.35 3.11l39.53-46.59c0 0-2.27-1.08-15.19-6.76z"/>
										<path id="Path 573" class="s4" d="m712.9 204.41c0 0 2.68 1.27 16.92 8.13l23.51-35.74c4.52-7.79 5.12-16 2.37-24.65-1.93-6.05-10.09-7.66-14.49-5.28-9.21 4.99-28.31 57.54-28.31 57.54z"/>
										<path id="Path 574" class="s8" d="m703.79 121.27c0 0-14.34-5.38-4.78-16.14 0 0 1.8-27.5 33.48-15.55 14.35 6 14.35 20.33 22.72 24.51 8.37 4.18 28.1 1.8 32.28 11.36 4.18 9.56 6 29.3 23.91 34.68 17.91 5.38 20.33 38.86-3.58 36.47-23.91-2.39-38.86 1.19-39.46-17.94-0.6-19.13-3-31.09-12.55-31.09-9.55 0-17.94-1.79-20.93-11.36-2.99-9.57-10.16-17.93-16.14-17.34-5.98 0.59-16.14-10.75-16.14-10.75z"/>
										<g id="Target">
											<path id="Ellipse 39" class="s9" d="m633.85 227.6c29.27 0 52.99 24.76 52.99 55.3 0 30.54-23.72 55.3-52.99 55.3-29.27 0-52.99-24.76-52.99-55.3 0-30.54 23.72-55.3 52.99-55.3z"/>
											<path id="Path 595" class="s10" d="m633.85 327.14c-11.36-0.01-22.22-4.72-30-13-16.56-17.57-16.56-44.99 0-62.56 15.58-16.54 41.61-17.32 58.15-1.74q0.92 0.86 1.78 1.78c16.56 17.57 16.56 44.99 0 62.56-7.77 8.25-18.6 12.94-29.93 12.96z"/>
											<path id="Path 596" class="s9" d="m633.85 316.08c-8.5 0-16.63-3.5-22.48-9.67-12.41-13.18-12.41-33.74 0-46.92 11.67-12.43 31.2-13.05 43.63-1.39q0.69 0.65 1.34 1.34c12.42 13.17 12.42 33.75 0 46.92-5.84 6.19-13.98 9.71-22.49 9.72z"/>
											<path id="Path 597" class="s10" d="m633.85 305.02c-5.68 0-11.11-2.35-15-6.48-8.28-8.78-8.28-22.5 0-31.28 7.78-8.28 20.81-8.69 29.09-0.91q0.03 0.03 0.06 0.06l0.89 0.89c8.27 8.79 8.27 22.49 0 31.28-3.91 4.12-9.35 6.45-15.04 6.44z"/>
											<path id="Path 598" class="s11" d="m633.85 291.83c-2.29 0-4.48-0.95-6.05-2.61-3.34-3.55-3.34-9.08 0-12.63 3.14-3.34 8.4-3.5 11.74-0.36l0.36 0.36c3.34 3.55 3.34 9.08 0 12.63-1.57 1.66-3.76 2.61-6.05 2.61z"/>
										</g>
										<path id="Path 599" class="s3" d="m654.18 221.71l-17.34 6.57c0 0 2.39 3.59 7.17 1.19 4.78-2.4 7.77 4.79 14.35-0.59 6.58-5.38-4.18-7.17-4.18-7.17z"/>
										<g id="Group 345">
											<path id="Path 600" class="s3" d="m683.78 244.62l-10.78 6.58c0 0-0.59 11.36 11.36 9.56l11.59-11c0 0-3.8-7.53-12.17-5.14z"/>
											<path id="Path 601" class="s3" d="m673 251.2l-11.58 11.21c-0.82 0.39-1.17 1.38-0.78 2.2q0 0 0 0l0.08 0.15c1.58 2.55 2.51 3 9.91 2.58 5.91-0.24 11.4-3.09 15-7.78 0 0-5.43-10.15-12.63-8.36z"/>
										</g>
										<path id="Path 594" class="s3" d="m683.19 245.22l-19.73 3c0 0 0 3.59 4.78 3q5.08-0.51 10.16 0z"/>
									</g>
									<g id="Person-2">
										<g id="Magnifying glass">
											<path id="Rectangle 154" class="s9" d="m530.61 353.55c2.87-1.66 6.54-0.69 8.2 2.18q0.02 0.02 0.03 0.05l60.3 105c1.67 2.86 0.69 6.54-2.17 8.2q-0.03 0.02-0.05 0.03c-2.87 1.66-6.54 0.68-8.2-2.19q-0.01-0.02-0.02-0.04l-60.31-105c-1.67-2.86-0.69-6.54 2.17-8.2q0.03-0.02 0.05-0.03z"/>
											<path id="Rectangle 155" class="s4" d="m528.53 354.75c2.87-1.66 6.54-0.68 8.2 2.19q0.01 0.02 0.02 0.04l60.3 105c1.67 2.86 0.69 6.54-2.17 8.2q-0.03 0.02-0.05 0.03c-2.87 1.66-6.54 0.68-8.2-2.19q-0.01-0.02-0.02-0.04l-60.31-105c-1.66-2.87-0.69-6.54 2.18-8.2q0.02-0.02 0.05-0.03z"/>
											<path id="Ellipse 37" class="s9" d="m502.17 306.11c22.57-12.97 51.85-4.39 65.38 19.17 13.53 23.55 6.21 53.16-16.37 66.13-22.57 12.97-51.84 4.39-65.38-19.16-13.53-23.56-6.2-53.17 16.37-66.14z"/>
											<path id="Ellipse 38" class="s10" d="m506 312.77c19.05-10.94 43.75-3.7 55.17 16.18 11.42 19.87 5.24 44.86-13.81 55.81-19.05 10.94-43.75 3.7-55.18-16.18-11.42-19.88-5.23-44.86 13.82-55.81z"/>
											<path id="Path 582" class="s9" d="m497.69 367.58c-0.75 0-1.45-0.41-1.83-1.06-10.16-17.69-4.6-40 12.39-49.79 1.02-0.57 2.3-0.2 2.87 0.82 0.56 1 0.22 2.26-0.77 2.84-15 8.6-19.83 28.35-10.83 44 0.58 1.01 0.23 2.3-0.78 2.88q-0.47 0.26-1 0.28z"/>
										</g>
										<path id="Path 585" class="s5" d="m641.78 426.53c0 0-12.37-13.12-3.09-20.12 0 0 27.84-16.24 37.9 8.51 10.06 24.75-14.31 23.6-15.28 26.49-0.97 2.89-19.53-14.88-19.53-14.88z"/>
										<path id="Path 586" class="s3" d="m642.68 416.16c0 0-12.4 34.84 5.46 32.4 10.47-1.43 15.65-11.06 15.65-11.06 0 0 4.9 0.93 6.05-5.06 0.78-4-4.53-7.65-6.4-0.44 0 0-2.11 0-3.93-4.72-1.13-3-1.53-6.8-5.7-5.88-4.17 0.92-10.69-2.99-11.13-5.24z"/>
										<path id="Path 587" class="s3" d="m645.14 446.94c0 0 9.58 13.75 7.73 21.7-1.85 7.95 29.7 11.13 22.87-3.47-6.83-14.6-11.9-17.93-17.94-31.76-6.04-13.83-12.66 13.53-12.66 13.53z"/>
										<path id="Path 588" class="s3" d="m559.78 400.7c0 0-10.24 0.61-4.82 13.86l9.64 9.63 8.43-2.4z"/>
										<path id="Path 589" class="s4" d="m760.79 753.84c1.21 3.85 2.59 12.57-6.19 19.7-11.64 9.45-7.57 19.2-7.57 19.2l39.22-20.33c0 0-4.7-21.59-12.1-26l-0.2-0.64c-2.63-7.93-29.48-87.3-56.53-101.63 0 0 5.26-65.15-24.66-97.07l-46.1 8.06c0 0 34.1 86 44.14 102.43 10.04 16.43 66.72 81.71 69.22 94.3q0.46 0.96 0.77 1.98z"/>
										<path id="Path 590" class="s12" d="m596.19 806.87h45c0 0 7.22-20.88 3.21-28.51q0.01-0.01 0.27-1.21c2.46-10.71 19.88-89.83 4.55-115.64 0 0 20.47-17.67 39.34-112l-52.19-0.2c0 0-16.87 90.54-16.87 109.82 0 19.28 14.25 105.11 9.84 117.15 0 0 0 0.33-0.15 0.91-0.64 3.43-3.79 15.54-16.52 17.26-14.87 1.96-16.48 12.42-16.48 12.42z"/>
										<path id="Path 591" class="s1" d="m560.46 421.59c0 0 35.94 43.36 38.14 44.82 2.2 1.46 37.15 17.66 37.15 17.66q-0.01 0.05 0 0.11c0.4 2.18 6.7 37.39-2.64 79 0 0 36.87 8.63 70.27-2 0 0-5.3-21.08-6.29-36.94-1.81-28.91 3-55.41-23.82-61l-32-4.41-36.1-10.45-36.75-35.74z"/>
										<path id="Path 592" class="s5" d="m596.19 806.87h45c0 0 7.22-20.88 3.21-28.51l-15.21-1.21c-0.64 3.44-3.79 15.55-16.52 17.27-14.87 1.99-16.48 12.45-16.48 12.45z"/>
										<path id="Path 593" class="s5" d="m747 792.74l39.25-20.33c0 0-4.7-21.6-12.1-26l-13.36 7.43c1.21 3.85 2.59 12.57-6.19 19.7-11.6 9.45-7.6 19.2-7.6 19.2z"/>
									</g>
									<g id="Plant">
										<g id="Group 346">
											<path id="Path 602" class="s5" d="m1048.7 716.13c0 0-39.22-23.42-95.89 0l47.4 57.21z"/>
										</g>
										<path id="Path 603" class="s8" d="m1009.2 706.6c4-46.52 34.24-78.28 60.48-113.33 23.48-31.49 43.74-65.26 60.48-100.79 21.89 41.92 18.41 63.38 11.44 75.18-10.17 17.24-28.08 14.46-36.5 32.69-12.26 26.55 14.78 56.07 3.27 67-9.77 9.29-33.15-8.22-44.13 2.72-8.43 8.4 0.16 23.83-9.27 31.06-7.18 5.51-14.48-1.7-24.51 3.27-14.58 7.21-15.28 30.37-18.53 30-2.4-0.31-4-13.17-2.73-27.8z"/>
										<path id="Path 604" class="s12" d="m1001.68 740.1c44.49-96.03 51.12-205.3 18.56-306 8.49 37.77 1.72 60.81-6 74.85-9.25 16.84-19 19.21-22.89 35.56-5.82 24.67 13.06 33.69 11.64 61-1.44 27.68-21.53 32.66-26.86 59.21-3.13 15.9-1.27 40.38 25.55 75.38z"/>
										<path id="Path 605" class="s2" d="m994 733.84c13.78-82.94-0.6-168.1-40.86-241.91 8.18 30.07 4.86 51.28 0 65.38-7.78 22.54-20.32 29.38-18 46.86 2.4 18 17 20.3 19.61 42.5 1.84 15.56-4.8 19 0 30 5.47 12.5 17.06 14.67 18.52 27.24 0.76 6.45-2 8.32-0.54 13.63 2.41 8.8 12.84 13.62 21.27 16.3z"/>
										<path id="Path 606" class="s4" d="m1048.7 716.13c0 0-38.14 19.62-95.89 0l10.9 90.45h69.74z"/>
									</g>
									<g id="Cloud">
										<path id="Path 1620" class="s1" d="m1196.89 303.52h-100c0 0 8-57 29.47-20.31 0 0 18.32-50.18 37.44 2.78 0.04 0.01 33.09-11.15 33.09 17.53z"/>
									</g>
									<g id="Cloud-2">
										<path id="Path 1622" class="s0" d="m629.6 112.41h-134c0 0 10.67-76.33 39.49-27.22 0 0 24.55-67.25 50.17 3.73 0.04 0 44.34-14.94 44.34 23.49z"/>
									</g>
									<g id="Cloud-3">
										<path id="Path 1622-2" class="s1" d="m246 657.74h-108.27c0 0 8.62-61.69 31.92-22 0 0 19.84-54.35 40.54 3 0 0.02 35.81-12.06 35.81 19z"/>
									</g>
								</g>
							</g>
						</g>
					</g>
				</g>
			</g>
		</g>
	</g>
</svg>